<svg width="360" height="250" viewBox="0 0 360 250" fill="none" xmlns="http://www.w3.org/2000/svg">
<ellipse cx="179.5" cy="211.5" rx="167.5" ry="31.5" fill="#A994FF"/>
<path d="M79.1992 133.333H105.995C105.702 140.619 104.705 146.292 103.005 150.351C101.305 154.41 97.7116 159.697 92.225 166.211H55.6941C50.782 166.211 46.8 162.294 46.8 157.461V142.083C46.8 137.395 50.5477 133.568 55.2566 133.344C49.6785 132.01 45.3756 131.748 44.8076 129.511C44.1321 126.851 53.6944 127.735 52.0735 126.519C50.4525 125.304 39.3642 122.091 38.5979 119.074C37.8316 116.056 47.2654 120.157 46.0546 117.248C44.8437 114.34 34.4712 110.589 33.8336 108.078C33.593 107.131 34.6169 106.778 36.9051 107.02C33.0332 101.845 31.6571 98.9865 32.7767 98.4436C33.997 97.852 36.9977 99.6407 41.7788 103.81C41.1737 100.268 41.4671 98.6535 42.659 98.9671C45.2048 99.6368 48.8438 109.884 51.7847 111.124C54.7257 112.363 50.7142 103.031 53.7738 103.836C56.8333 104.641 59.9121 115.581 61.1215 117.194C62.3308 118.806 61.598 109.404 64.2952 110.114C66.9924 110.823 66.7528 116.672 68.8695 123.685C70.9862 130.698 72.3936 121.392 75.9593 119.803C78.1543 118.824 79.2343 123.334 79.1992 133.333ZM154.744 120.267C158.582 118.692 160.903 118.145 161.705 118.624C162.436 119.061 161.178 120.379 157.93 122.578C159.56 122.761 160.24 123.087 159.97 123.557C159.252 124.812 151.485 125.406 150.317 126.795C149.15 128.184 156.287 127.276 155.424 128.783C154.561 130.291 146.342 130.5 145.061 130.929C143.781 131.358 150.67 132.186 149.909 133.515C149.148 134.844 144.927 133.963 139.645 134.173C134.363 134.382 140.987 136.325 141.815 138.408C142.367 139.797 138.368 139.666 129.817 138.016L124.584 136.786L125.136 136.465L124.602 136.659L124.813 132.276C125.89 125.933 127.218 123.206 128.795 124.095C131.161 125.429 131.179 130.591 133.424 127.132C135.668 123.674 136.115 120.517 138.107 120.505C140.099 120.492 138.586 125.415 139.615 124.718C140.645 124.021 143.988 118.595 146.247 118.581C148.506 118.567 144.671 123.007 146.892 122.744C149.112 122.482 152.78 117.503 154.66 117.491C155.551 117.485 155.579 118.411 154.744 120.267ZM90.2924 52.761C89.277 51.3655 88.6794 49.6557 88.6794 47.8086V46.2258C88.6794 41.5217 92.5556 37.7083 97.3372 37.7083C102.119 37.7083 105.995 41.5217 105.995 46.2258V47.8086C105.995 49.6557 105.397 51.3655 104.382 52.761H105.356C110.268 52.761 114.25 56.6785 114.25 61.511V75.3046C114.25 80.1371 110.268 84.0546 105.356 84.0546H89.3184C84.4063 84.0546 80.4243 80.1371 80.4243 75.3046V61.511C80.4243 56.6785 84.4063 52.761 89.3184 52.761H90.2924ZM93.6 173.75H102.706C103.875 173.75 104.824 174.683 104.824 175.833C104.824 176.984 103.875 177.917 102.706 177.917H93.6C92.4305 177.917 91.4824 176.984 91.4824 175.833C91.4824 174.683 92.4305 173.75 93.6 173.75ZM64.5882 171.667H85.3412C86.5107 171.667 87.4588 172.599 87.4588 173.75V175.833C87.4588 176.984 86.5107 177.917 85.3412 177.917H64.5882C63.4187 177.917 62.4706 176.984 62.4706 175.833V173.75C62.4706 172.599 63.4187 171.667 64.5882 171.667Z" fill="#D8DEED"/>
<path d="M105.629 138.633C105.798 136.973 105.92 135.207 105.995 133.333H61.1335C60.6239 132.705 60.353 132.019 60.353 131.271C60.353 125.326 61.2121 117.461 62.9303 107.675C64.5673 94.1579 72.1082 86.9955 85.5531 86.1872C105.72 84.9749 129.565 83.5072 132.053 107.675C133.706 123.726 138.142 130.013 134.416 133.372H140.188C145.1 133.372 149.082 137.289 149.082 142.122V157.5C149.082 162.332 145.1 166.25 140.188 166.25L92.225 166.211C97.7117 159.697 101.305 154.41 103.005 150.351C104.268 147.335 105.143 143.429 105.629 138.633ZM46.8 157.5V157.461V157.5Z" fill="#E1E5F0"/>
<path d="M105.567 85.712C107.762 85.9232 109.85 86.2203 111.834 86.6032V104.113C111.834 108.946 107.852 112.863 102.94 112.863H91.7345C86.8225 112.863 82.8404 108.946 82.8404 104.113V86.4457C84.6916 86.0961 86.7069 85.8282 88.8863 85.6418C85.3711 84.4735 82.8404 81.2026 82.8404 77.3501V71.5012C83.6704 69.2652 85.8516 67.669 88.4117 67.669C91.6865 67.669 94.3412 70.2807 94.3412 73.5023H96.247C96.247 69.2451 92.7391 65.794 88.4117 65.794C86.2323 65.794 84.2607 66.6694 82.8404 68.0823V63.5564C82.8404 63.4118 82.844 63.2679 82.851 63.125H111.823C111.83 63.2679 111.834 63.4118 111.834 63.5564V68.3694C110.399 66.789 108.312 65.794 105.988 65.794C101.661 65.794 98.1529 69.2451 98.1529 73.5023H100.059C100.059 70.2807 102.713 67.669 105.988 67.669C108.922 67.669 111.359 69.7659 111.834 72.5196V77.3501C111.834 81.2828 109.197 84.6095 105.567 85.712ZM97.6244 132.404C99.4737 131.457 100.72 130.772 101.364 130.348C102.755 129.434 103.625 128.674 103.973 128.068L100.377 126.496C99.8993 126.287 99.573 125.841 99.5235 125.328C99.4479 124.545 100.032 123.849 100.829 123.775C104.782 123.406 107.89 123.644 110.155 124.489C113.307 125.666 116.468 128.613 119.637 133.329L119.647 133.333H99.464H75.601L75.6202 133.326C75.6128 133.327 75.6094 133.328 75.6098 133.327C78.7656 128.616 81.9584 125.659 85.092 124.489C87.3566 123.644 90.4654 123.406 94.4182 123.775C95.2147 123.849 95.7991 124.545 95.7235 125.328C95.6741 125.841 95.3477 126.287 94.8697 126.496L91.2744 128.068C91.6222 128.674 92.4917 129.434 93.8828 130.348C94.5267 130.772 95.7739 131.457 97.6244 132.404Z" fill="#F2F6FB"/>
<path d="M73.2706 173.75H57.8118C56.6422 173.75 55.6941 174.683 55.6941 175.833C55.6941 176.984 56.6422 177.917 57.8118 177.917H73.2706C74.4401 177.917 75.3882 176.984 75.3882 175.833C75.3882 174.683 74.4401 173.75 73.2706 173.75Z" fill="#E1E5F0"/>
<path d="M247.902 146.669C252.627 146.602 257.486 146.586 262.478 146.62C270.045 146.671 268.926 147.317 272.818 146.671C275.187 146.278 276.531 145.515 277.22 145.621C277.663 145.69 277.835 146.117 277.835 147.232C277.835 149.133 276.972 153.095 275.246 159.119L264.807 181.413L260.92 191.725C259.703 194.952 256.594 197.112 253.096 197.16L228.282 197.5L243.068 148.554C243.414 147.41 244.49 146.63 245.703 146.645L247.604 146.669C247.703 146.67 247.803 146.67 247.902 146.669Z" fill="#A339FF"/>
<path d="M265.547 200.645C265.484 201.335 264.894 201.875 264.176 201.875H261.744L267.888 224.431C267.885 224.516 267.411 224.703 266.775 224.87C266.482 224.948 266.185 225.012 265.982 225.038C265.78 225.064 265.648 225.063 265.638 225.025L259.333 201.875H115.618L109.313 225.025C109.267 225.096 108.762 225.025 108.126 224.858C107.833 224.78 107.543 224.69 107.354 224.612C107.166 224.535 107.052 224.47 107.063 224.431L113.206 201.875H111.494C110.734 201.875 110.118 201.269 110.118 200.521C110.118 199.773 110.734 199.167 111.494 199.167H263.153L280.872 148.54C281.12 147.833 281.903 147.457 282.622 147.701C283.341 147.944 283.723 148.715 283.475 149.422L265.547 200.645Z" fill="#D8DEED"/>
<path d="M312.565 79.375H233.576C231.237 79.375 229.341 81.2405 229.341 83.5417V101.25C229.341 103.551 231.237 105.417 233.576 105.417H312.565C314.904 105.417 316.8 103.551 316.8 101.25V83.5417C316.8 81.2405 314.904 79.375 312.565 79.375Z" fill="#E1E5F0"/>
<path d="M237.486 91.7727H281.731C281.965 91.7727 282.154 91.9593 282.154 92.1894V94.3662C282.154 94.5963 281.965 94.7828 281.731 94.7828H237.486C237.252 94.7828 237.062 94.5963 237.062 94.3662V92.1894C237.062 91.9593 237.252 91.7727 237.486 91.7727ZM237.486 96.6641H285.552C285.786 96.6641 285.976 96.8507 285.976 97.0808V99.2576C285.976 99.4877 285.786 99.6742 285.552 99.6742H237.486C237.252 99.6742 237.062 99.4877 237.062 99.2576V97.0808C237.062 96.8507 237.252 96.6641 237.486 96.6641Z" fill="#F2F6FB"/>
<path d="M286.317 86.8813H237.486C237.252 86.8813 237.062 87.0679 237.062 87.298V89.4748C237.062 89.7049 237.252 89.8914 237.486 89.8914H286.317C286.55 89.8914 286.74 89.7049 286.74 89.4748V87.298C286.74 87.0679 286.55 86.8813 286.317 86.8813Z" fill="#F2F6FB"/>
<path d="M312.565 49.7917H233.576C231.237 49.7917 229.341 51.6572 229.341 53.9583V71.6667C229.341 73.9679 231.237 75.8333 233.576 75.8333H312.565C314.904 75.8333 316.8 73.9679 316.8 71.6667V53.9583C316.8 51.6572 314.904 49.7917 312.565 49.7917Z" fill="#F2F6FB"/>
<path d="M303.554 100.051C299.333 100.051 295.911 96.6813 295.911 92.5253C295.911 88.3692 299.333 85 303.554 85C307.775 85 311.197 88.3692 311.197 92.5253C311.197 96.6813 307.775 100.051 303.554 100.051ZM244.705 70.3434C240.484 70.3434 237.062 66.9743 237.062 62.8182C237.062 58.6621 240.484 55.2929 244.705 55.2929C248.926 55.2929 252.348 58.6621 252.348 62.8182C252.348 66.9743 248.926 70.3434 244.705 70.3434Z" fill="#474BFF"/>
<path fill-rule="evenodd" clip-rule="evenodd" d="M244.701 62.7165C243.66 62.7165 242.816 61.897 242.816 60.886C242.816 59.8751 243.66 59.0556 244.701 59.0556C245.742 59.0556 246.585 59.8751 246.585 60.886C246.585 61.897 245.742 62.7165 244.701 62.7165ZM244.701 63.6317C246.587 63.6317 248.117 65.1171 248.117 66.9495H241.285C241.285 65.1171 242.814 63.6317 244.701 63.6317ZM303.55 92.4236C302.509 92.4236 301.666 91.604 301.666 90.5931C301.666 89.5822 302.509 88.7626 303.55 88.7626C304.591 88.7626 305.435 89.5822 305.435 90.5931C305.435 91.604 304.591 92.4236 303.55 92.4236ZM303.55 93.3388C305.437 93.3388 306.966 94.8242 306.966 96.6565H300.134C300.134 94.8242 301.664 93.3388 303.55 93.3388Z" fill="white"/>
<path d="M256.592 61.3131H300.838C301.072 61.3131 301.261 61.4997 301.261 61.7298V63.9066C301.261 64.1367 301.072 64.3232 300.838 64.3232H256.592C256.358 64.3232 256.169 64.1367 256.169 63.9066V61.7298C256.169 61.4997 256.358 61.3131 256.592 61.3131ZM256.592 66.2046H308.481C308.714 66.2046 308.904 66.3911 308.904 66.6212V68.798C308.904 69.0281 308.714 69.2147 308.481 69.2147H256.592C256.358 69.2147 256.169 69.0281 256.169 68.798V66.6212C256.169 66.3911 256.358 66.2046 256.592 66.2046Z" fill="#E1E5F0"/>
<path d="M290.138 56.4217H256.592C256.358 56.4217 256.169 56.6083 256.169 56.8384V59.0152C256.169 59.2453 256.358 59.4318 256.592 59.4318H290.138C290.372 59.4318 290.561 59.2453 290.561 59.0152V56.8384C290.561 56.6083 290.372 56.4217 290.138 56.4217Z" fill="#E1E5F0"/>
<path d="M119.222 147.843L119.114 147.909C118.713 148.181 118.603 148.715 118.861 149.121L137.036 177.107C137.312 177.502 137.855 177.611 138.268 177.357L138.376 177.29C138.777 177.019 138.888 176.484 138.629 176.078L120.466 148.11C120.196 147.686 119.653 147.578 119.222 147.843ZM165.855 198.749L131.761 198.749C131.235 198.749 130.808 199.169 130.808 199.686C130.808 200.204 131.235 200.624 131.761 200.624L165.855 200.624C166.381 200.624 166.808 200.204 166.808 199.686C166.808 199.169 166.381 198.749 165.855 198.749Z" fill="#FFCB3D"/>
<path d="M120.308 147.872C120.373 147.928 120.432 147.995 120.481 148.073L138.645 176.041C138.733 176.18 138.778 176.335 138.783 176.489L149.279 170.317L141.621 156.453L137.242 154.748C136.046 154.476 134.876 154.089 133.745 153.606C131.031 152.4 130.365 151.311 126.823 149.115C125.871 148.521 124.906 147.985 123.869 147.492C123.263 147.324 122.107 147.077 121.11 147.395C120.944 147.448 120.8 147.536 120.663 147.596C120.529 147.678 120.411 147.772 120.308 147.872ZM131.652 198.72C131.693 198.714 131.734 198.712 131.776 198.712L165.87 198.712C165.917 198.712 165.963 198.715 166.008 198.721L166.008 184.791L151.521 184.791C148.786 186.638 147.129 187.846 146.55 188.416C145.682 189.27 144.729 190.041 143.712 190.728C141.235 192.353 139.943 192.333 136.174 194.124C135.157 194.603 134.183 195.124 133.209 195.728C132.235 196.333 131.917 196.978 131.663 197.978C131.621 198.145 131.621 198.312 131.599 198.458C131.599 198.554 131.618 198.641 131.652 198.72Z" fill="#474961"/>
<path opacity="0.176986" d="M120.308 147.872C120.373 147.928 120.431 147.995 120.481 148.073L138.645 176.041C138.733 176.18 138.778 176.334 138.783 176.488L149.277 170.318L141.62 156.453L137.241 154.748C136.044 154.476 134.875 154.089 133.743 153.606C131.03 152.4 130.363 151.311 126.821 149.115C125.87 148.521 124.904 147.985 123.867 147.492C123.261 147.324 122.105 147.077 121.109 147.395C120.942 147.448 120.799 147.536 120.662 147.596C120.528 147.678 120.411 147.772 120.308 147.872Z" fill="#444444"/>
<path d="M143.676 163.496L140.645 154.347C140.136 152.81 140.822 151.134 142.272 150.373L148.749 146.974C151.959 142.045 156.394 138.816 162.584 141.288C162.775 141.364 162.972 141.445 163.176 141.532L162.996 141.431C173.38 135.712 179.793 132.524 182.235 131.867C184.676 131.21 187.156 132.163 189.672 134.726L215.989 170.907C232.007 171.848 240.037 176.488 240.079 184.826C240.12 193.164 235.58 198.251 226.459 200.087C217.463 200.826 210.071 200.571 204.282 199.32C197.723 199.668 192.108 198.816 187.435 196.766C179.926 193.471 172.904 186.226 166.371 175.029L166.044 184.976H143.929C142.76 184.976 141.812 184.043 141.812 182.893C141.812 182.846 141.813 182.8 141.816 182.754C142.34 175.032 142.96 168.613 143.676 163.496Z" fill="#DE3190"/>
<path opacity="0.176986" d="M204.328 199.318C197.75 199.672 192.119 198.821 187.435 196.766C179.926 193.471 172.904 186.226 166.371 175.029L166.044 184.976H143.929C142.76 184.976 141.812 184.043 141.812 182.893C141.812 182.846 141.813 182.8 141.816 182.754C142.975 165.667 144.606 154.957 146.709 150.623C149.998 143.846 154.961 138.244 162.584 141.288C162.854 141.395 163.136 141.514 163.431 141.643L177.643 149.689L179.235 156.633C182.978 176.742 187.755 189.344 193.564 194.439C196.137 196.695 199.725 198.322 204.328 199.318Z" fill="#444444"/>
<path d="M239.735 145.06C241.596 145.168 243.768 145.691 245.729 147.19C248.038 148.945 248.969 150.947 250.654 154.983C252.053 158.336 253.257 161.303 251.876 163.044C250.865 164.318 249.094 164.318 247.904 164.238C246.141 163.898 244.501 163.771 242.904 163.719L239.103 171.855C238.718 172.921 236.031 179.613 235.24 180.438C232.98 182.816 227.241 180.454 218.021 173.354C215.695 171.306 215.046 168.856 216.075 166.002C216.666 164.178 217.218 162.485 217.731 160.925C216.552 160.768 214.843 160.347 214.131 159.079C213.046 157.146 214.846 154.422 216.873 151.397C219.294 147.746 220.598 145.957 223.191 144.651C224.787 143.852 226.393 143.57 227.858 143.564C230.581 142.992 234.81 142.857 239.735 145.06Z" fill="#FFCB3D"/>
<path opacity="0.176986" d="M217.657 160.958C216.487 160.786 214.891 160.348 214.209 159.134C213.124 157.2 214.989 154.515 216.951 151.452C219.338 147.723 220.676 145.877 223.269 144.571C224.767 143.821 226.276 143.544 227.667 143.529C226.572 143.77 225.734 144.08 225.208 144.325C223.879 144.939 223.508 145.461 222.535 147.168C221.988 148.128 220.362 152.724 217.657 160.958Z" fill="#444444"/>
<path d="M204.471 150.245L204.47 150.269L219.222 150.466C219.836 150.473 220.348 149.975 220.354 149.37L220.385 147.662C220.392 147.057 219.885 146.554 219.271 146.547L204.549 146.365L204.549 146.351L202.97 147.373C202.28 147.806 202.261 148.764 202.935 149.199L204.471 150.245Z" fill="#474BFF"/>
<path d="M235.906 139.975C236.258 141.063 236.825 142.483 237.608 144.234C236.631 143.908 235.576 143.66 234.442 143.488C232.741 143.231 231.978 143.207 231.129 143.205L230.972 141.922C229.666 142.365 229.741 142.325 229.625 142.375C228.701 142.598 227.765 142.654 226.835 142.585C225.022 142.388 223.038 139.031 222.272 134.298C222.209 133.898 222.186 133.521 222.164 133.145L222.133 129.346C222.116 128.469 222.33 127.646 222.75 126.916C222.914 126.633 223.12 126.351 223.326 126.07C225.683 123.208 229.752 123.668 230.508 123.791C230.593 123.795 230.677 123.82 230.782 123.826C231.556 124.032 232.315 124.113 233.097 124.153C233.457 124.172 233.719 124.436 233.7 124.79L233.601 130.229C233.603 130.584 235.349 130.251 235.732 130.229C236.751 130.199 238.107 131.02 238.475 132.061C238.756 133.16 238.57 134.674 237.83 135.429C237.561 135.693 236.926 137.206 235.924 139.967C235.92 139.968 235.914 139.971 235.906 139.975ZM216.801 150.441L217.949 150.456C218.463 151.396 218.949 152.28 219.365 153.027C219.817 153.465 220.135 153.772 220.179 153.819C230.221 164.376 235.249 169.657 235.262 169.662C235.309 169.66 235.413 169.021 235.664 166.623C235.683 166.14 235.739 164.967 235.831 163.529C239.912 163.861 243.53 163.395 247.904 164.238C248.543 164.281 249.368 164.283 250.148 164.096C249.849 166.59 249.379 169.936 248.573 173.851C246.151 185.606 243.997 186.829 243.047 187.188C242.236 187.494 239.746 188.182 235.263 185.079C233.464 183.47 231.65 181.74 229.841 179.899C224.743 174.719 220.412 169.421 216.729 164.205C216.074 165.897 215.709 167.121 215.632 167.878C215.557 168.613 215.75 169.576 216.131 170.907C216.141 170.943 216.094 170.943 215.989 170.907L213.015 166.864C213.34 166.345 213.978 164.586 214.93 161.59C213.505 159.462 212.186 157.355 210.965 155.28L206.663 150.34C206.272 149.872 206.307 149.18 206.791 148.776L207.221 148.44C207.415 148.279 207.644 148.195 207.874 148.181L207.583 147.846C207.192 147.378 207.227 146.687 207.711 146.283L208.141 145.947C208.455 145.685 208.858 145.615 209.215 145.729C209.145 145.356 209.268 144.959 209.591 144.689L210.021 144.353C210.505 143.95 211.21 144.03 211.61 144.479L212.058 144.994C211.721 143.558 211.841 142.199 213.239 141.749C213.239 141.749 214.4 143.915 215.805 146.511L213.353 146.481L216.801 150.441Z" fill="#F2A98A"/>
<path d="M242.758 130.991C242.835 131.391 242.897 131.771 242.977 132.152C243.271 132.209 243.585 132.288 243.937 132.452C244.185 132.569 245.885 133.304 246.592 134.759C247.604 136.855 246.515 140.179 243.248 142.201C243.073 142.296 242.922 142.351 242.922 142.351C242.36 142.551 241.829 142.566 241.277 142.579C241.171 142.574 241.043 142.588 241.043 142.588C239.888 142.514 238.657 142.435 237.351 142.351C236.622 142.235 236.157 141.623 235.955 140.512C235.9 140.209 235.878 139.838 235.869 139.42C235.813 138.649 235.712 137.241 235.642 136.113C236.346 136.024 236.999 135.703 237.492 135.207C238.274 134.455 238.526 133.321 238.178 132.28C237.809 131.239 236.751 130.413 235.731 130.444C235.348 130.466 234.981 130.593 234.632 130.783C234.191 131.094 233.81 131.471 233.572 131.959L232.532 134.368L232.551 134.383C232.536 134.385 232.523 134.386 232.51 134.387C230.612 134.581 229.779 127.529 225.73 126.319C224.79 126.041 223.771 126.137 223.192 126.274C224.935 122.962 230.491 123.666 230.597 123.671C231.859 123.861 233.033 124.171 233.71 124.206C237.047 124.461 238.359 124.112 240.006 125.031C240.624 125.376 241.194 125.823 241.608 126.407C242.72 127.936 242.837 129.752 242.758 130.991ZM224.871 132.33C224.662 132.278 224.613 132.004 224.769 131.866C224.989 131.711 225.336 131.562 225.758 131.604C226.665 131.693 227.565 132.323 226.56 132.48C225.96 132.595 225.289 132.456 224.871 132.33ZM221.281 132.062C221.072 131.988 221.045 131.716 221.242 131.601C221.482 131.467 221.807 131.338 222.269 131.424C223.152 131.574 224.004 132.286 222.96 132.378C222.321 132.428 221.697 132.208 221.281 132.062Z" fill="#482D1F"/>
<path d="M223.004 133.18C222.995 133.065 223.081 132.965 223.198 132.955C223.314 132.946 223.417 133.031 223.426 133.146L223.53 134.382L223.531 134.408L223.434 136.614C223.441 136.639 223.46 136.656 223.488 136.66C223.56 136.657 223.635 136.659 223.717 136.665C223.78 136.67 223.829 136.675 223.941 136.689C224.266 136.728 224.408 136.729 224.592 136.671C224.703 136.636 224.823 136.696 224.858 136.806C224.894 136.915 224.832 137.033 224.721 137.068C224.462 137.149 224.272 137.149 223.889 137.102C223.783 137.09 223.739 137.085 223.684 137.081C223.614 137.075 223.554 137.074 223.497 137.077L223.473 137.077C223.226 137.065 223.038 136.882 223.011 136.65L223.01 136.617L223.107 134.403L223.004 133.18Z" fill="#482D1F"/>
<path d="M225.085 138.55C225.233 138.532 225.616 138.455 225.705 138.227C225.705 138.186 225.749 138.124 225.728 138.082C225.667 137.977 225.01 137.965 225.01 137.965C224.142 137.971 223.931 137.926 223.865 138.029C223.843 138.091 223.842 138.174 223.987 138.364C224.15 138.721 224.851 138.588 225.085 138.55Z" fill="#482D1F"/>
<path d="M230.9 141.919L232.651 141.3L231.121 143.138L230.9 141.919Z" fill="#482D1F"/>
<path d="M222.685 134.763C222.409 135.166 221.741 134.172 221.925 133.493C221.983 133.204 222.178 133.13 222.327 133.117C222.56 133.129 222.805 133.309 222.811 133.58C222.856 133.937 222.888 134.523 222.685 134.763ZM226.123 134.868C225.826 135.27 225.179 134.277 225.364 133.598C225.421 133.309 225.616 133.236 225.765 133.222C225.998 133.234 226.243 133.414 226.249 133.685C226.294 134.042 226.348 134.629 226.123 134.868Z" fill="#482D1F"/>
<path d="M193.227 138.036C192.679 138.428 192.557 139.185 192.955 139.724L211.116 164.315C211.514 164.854 212.283 164.974 212.832 164.582C213.38 164.19 213.502 163.434 213.103 162.894L194.943 138.304C194.544 137.764 193.775 137.644 193.227 138.036Z" fill="#474961"/>
<path opacity="0.2" d="M214.955 161.667C213.999 164.68 213.357 166.447 213.032 166.968L216.006 171.012C216.111 171.048 216.158 171.048 216.148 171.012C215.767 169.681 215.574 168.717 215.649 167.982C215.726 167.217 216.099 165.974 216.767 164.253L214.955 161.667Z" fill="#8C2A00"/>
<path d="M235.542 158.547C235.529 158.567 235.502 158.606 235.465 158.664C235.402 158.761 235.333 158.872 235.262 158.994C234.987 159.465 234.753 159.962 234.602 160.444C234.199 161.729 234.46 162.559 235.645 162.861C235.815 162.904 235.917 163.075 235.873 163.242C235.829 163.409 235.655 163.509 235.486 163.466C233.88 163.056 233.498 161.844 233.995 160.26C234.162 159.727 234.415 159.191 234.71 158.684C234.787 158.552 234.861 158.433 234.929 158.328C234.971 158.263 235.002 158.218 235.019 158.192C235.119 158.05 235.317 158.015 235.461 158.113C235.606 158.211 235.642 158.405 235.542 158.547Z" fill="#482D1F"/>
<path d="M142.518 44.7917H217.694C220.033 44.7917 221.929 46.6572 221.929 48.9584V106.667C221.929 107.357 221.361 107.917 220.659 107.917H139.553C138.851 107.917 138.282 107.357 138.282 106.667V48.9584C138.282 46.6572 140.179 44.7917 142.518 44.7917Z" fill="#F2F6FB"/>
<path d="M214.799 58.7006H143.988C143.52 58.7006 143.141 59.0737 143.141 59.5339V76.2179C143.141 76.6781 143.52 77.0512 143.988 77.0512H214.799C215.267 77.0512 215.646 76.6781 215.646 76.2179V59.5339C215.646 59.0737 215.267 58.7006 214.799 58.7006Z" fill="#A339FF"/>
<path d="M181.956 66.298C182.436 66.298 182.825 65.9118 182.825 65.4354C182.825 64.959 182.436 64.5728 181.956 64.5728C181.476 64.5728 181.087 64.959 181.087 65.4354C181.087 65.9118 181.476 66.298 181.956 66.298Z" fill="#F2F6FB"/>
<path d="M182.007 71.5217C182.007 71.5217 181.818 71.5217 181.582 71.5217H174.304C174.069 71.5217 173.979 71.3624 174.102 71.1686L177.652 65.5588C177.775 65.3638 177.981 65.3631 178.11 65.555L181.202 70.207" fill="#F2F6FB"/>
<path d="M179.416 71.5268C179.416 71.5268 179.515 71.3696 179.64 71.1716L181.646 67.9956C181.77 67.7994 181.977 67.7933 182.11 67.9826L184.276 71.0793C184.408 71.2683 184.327 71.4272 184.094 71.4344L182.298 71.4891" fill="#F2F6FB"/>
<path d="M143.564 80.3544H168.879C169.113 80.3544 169.303 80.5409 169.303 80.771V82.8738C169.303 83.1039 169.113 83.2905 168.879 83.2905H143.564C143.331 83.2905 143.141 83.1039 143.141 82.8738V80.771C143.141 80.5409 143.331 80.3544 143.564 80.3544ZM143.564 85.1255H161.404C161.638 85.1255 161.828 85.3121 161.828 85.5422V87.645C161.828 87.8751 161.638 88.0617 161.404 88.0617H143.564C143.331 88.0617 143.141 87.8751 143.141 87.645V85.5422C143.141 85.3121 143.331 85.1255 143.564 85.1255ZM143.564 89.8967H165.142C165.376 89.8967 165.565 90.0833 165.565 90.3134V92.4162C165.565 92.6463 165.376 92.8328 165.142 92.8328H143.564C143.331 92.8328 143.141 92.6463 143.141 92.4162V90.3134C143.141 90.0833 143.331 89.8967 143.564 89.8967ZM143.564 94.6679H157.667C157.901 94.6679 158.09 94.8544 158.09 95.0846V97.1873C158.09 97.4174 157.901 97.604 157.667 97.604H143.564C143.331 97.604 143.141 97.4174 143.141 97.1873V95.0846C143.141 94.8544 143.331 94.6679 143.564 94.6679ZM177.201 85.1255H203.263C203.497 85.1255 203.686 85.3121 203.686 85.5422V87.645C203.686 87.8751 203.497 88.0617 203.263 88.0617H177.201C176.967 88.0617 176.777 87.8751 176.777 87.645V85.5422C176.777 85.3121 176.967 85.1255 177.201 85.1255ZM177.201 89.8967H206.626C206.86 89.8967 207.05 90.0833 207.05 90.3134V92.4162C207.05 92.6463 206.86 92.8328 206.626 92.8328H177.201C176.967 92.8328 176.777 92.6463 176.777 92.4162V90.3134C176.777 90.0833 176.967 89.8967 177.201 89.8967ZM177.201 94.6679H209.99C210.224 94.6679 210.414 94.8544 210.414 95.0846V97.1873C210.414 97.4174 210.224 97.604 209.99 97.604H177.201C176.967 97.604 176.777 97.4174 176.777 97.1873V95.0846C176.777 94.8544 176.967 94.6679 177.201 94.6679ZM177.201 99.4391H199.899C200.133 99.4391 200.323 99.6256 200.323 99.8557V101.958C200.323 102.189 200.133 102.375 199.899 102.375H177.201C176.967 102.375 176.777 102.189 176.777 101.958V99.8557C176.777 99.6256 176.967 99.4391 177.201 99.4391ZM177.201 80.3544H209.99C210.224 80.3544 210.414 80.5409 210.414 80.771V82.8738C210.414 83.1039 210.224 83.2905 209.99 83.2905H177.201C176.967 83.2905 176.777 83.1039 176.777 82.8738V80.771C176.777 80.5409 176.967 80.3544 177.201 80.3544Z" fill="#E1E5F0"/>
<path d="M138.282 48.3617C138.282 46.3901 139.906 44.7917 141.91 44.7917H218.302C220.305 44.7917 221.929 46.3896 221.929 48.3617V51.9318H138.282V48.3617Z" fill="#E1E5F0"/>
<path d="M143.149 49.9845C144.015 49.9845 144.717 49.2943 144.717 48.4429C144.717 47.5914 144.015 46.9012 143.149 46.9012C142.284 46.9012 141.582 47.5914 141.582 48.4429C141.582 49.2943 142.284 49.9845 143.149 49.9845Z" fill="#FF5645"/>
<path d="M148.264 49.9845C149.13 49.9845 149.831 49.2943 149.831 48.4429C149.831 47.5914 149.13 46.9012 148.264 46.9012C147.398 46.9012 146.697 47.5914 146.697 48.4429C146.697 49.2943 147.398 49.9845 148.264 49.9845Z" fill="#FFCB3D"/>
<path d="M153.543 49.9845C154.409 49.9845 155.111 49.2943 155.111 48.4429C155.111 47.5914 154.409 46.9012 153.543 46.9012C152.678 46.9012 151.976 47.5914 151.976 48.4429C151.976 49.2943 152.678 49.9845 153.543 49.9845Z" fill="#3ABF7C"/>
</svg>
