<svg width="360" height="255" viewBox="0 0 360 255" fill="none" xmlns="http://www.w3.org/2000/svg">
<ellipse cx="179.5" cy="222.5" rx="167.5" ry="31.5" fill="#A994FF"/>
<path d="M262.212 20.1178H185.506C183.167 20.1178 181.271 22.0141 181.271 24.3532V79.836C181.271 82.1751 183.167 84.0714 185.506 84.0714H262.212C264.551 84.0714 266.447 82.1751 266.447 79.836V24.3532C266.447 22.0141 264.551 20.1178 262.212 20.1178Z" fill="#F2F6FB"/>
<path d="M194.077 79.0956C189.82 79.0956 186.368 75.609 186.368 71.3082C186.368 67.0073 189.82 63.5207 194.077 63.5207C198.335 63.5207 201.787 67.0073 201.787 71.3082C201.787 75.609 198.335 79.0956 194.077 79.0956ZM194.094 71.2755C194.663 71.2755 195.124 70.8156 195.124 70.2484C195.124 69.6811 194.663 69.2213 194.094 69.2213C193.525 69.2213 193.064 69.6811 193.064 70.2484C193.064 70.8156 193.525 71.2755 194.094 71.2755ZM194.094 71.7891C193.063 71.7891 192.227 72.6226 192.227 73.6507H195.961C195.961 72.6226 195.125 71.7891 194.094 71.7891Z" fill="#D8DEED"/>
<path d="M186.368 34.119C186.368 33.6502 186.746 33.2702 187.216 33.2702H241.268C241.736 33.2702 242.116 33.6509 242.116 34.119V57.2888C242.116 57.7576 241.738 58.1376 241.268 58.1376H187.216C186.748 58.1376 186.368 57.757 186.368 57.2888V34.119ZM207.316 69.8576H249.863C250.717 69.8576 251.409 70.5494 251.409 71.4028C251.409 72.2561 250.717 72.9479 249.863 72.9479H207.316C206.463 72.9479 205.771 72.2561 205.771 71.4028C205.771 70.5494 206.463 69.8576 207.316 69.8576ZM207.316 74.8793H257.599C258.452 74.8793 259.144 75.5711 259.144 76.4244C259.144 77.2778 258.452 77.9695 257.599 77.9695H207.316C206.463 77.9695 205.771 77.2778 205.771 76.4244C205.771 75.5711 206.463 74.8793 207.316 74.8793ZM207.316 64.836H239.034C239.888 64.836 240.579 65.5278 240.579 66.3811C240.579 67.2345 239.888 67.9262 239.034 67.9262H207.316C206.463 67.9262 205.771 67.2345 205.771 66.3811C205.771 65.5278 206.463 64.836 207.316 64.836ZM181.271 23.7347C181.271 21.7372 182.89 20.1178 184.887 20.1178H262.996C264.993 20.1178 266.612 21.7367 266.612 23.7347V27.3516H181.271V23.7347Z" fill="#E1E5F0"/>
<path d="M248.707 52.6979H258.753C260.255 52.6979 261.473 53.9156 261.473 55.4178C261.473 56.9199 260.255 58.1376 258.753 58.1376H248.707C247.205 58.1376 245.987 56.9199 245.987 55.4178C245.987 53.9156 247.205 52.6979 248.707 52.6979Z" fill="#A339FF"/>
<path d="M186.121 25.3788C186.984 25.3788 187.684 24.6795 187.684 23.8169C187.684 22.9544 186.984 22.2551 186.121 22.2551C185.259 22.2551 184.559 22.9544 184.559 23.8169C184.559 24.6795 185.259 25.3788 186.121 25.3788Z" fill="#FF5645"/>
<path d="M191.219 25.3788C192.082 25.3788 192.781 24.6795 192.781 23.8169C192.781 22.9544 192.082 22.2551 191.219 22.2551C190.356 22.2551 189.657 22.9544 189.657 23.8169C189.657 24.6795 190.356 25.3788 191.219 25.3788Z" fill="#FFCB3D"/>
<path d="M196.481 25.3788C197.344 25.3788 198.043 24.6795 198.043 23.8169C198.043 22.9544 197.344 22.2551 196.481 22.2551C195.618 22.2551 194.919 22.9544 194.919 23.8169C194.919 24.6795 195.618 25.3788 196.481 25.3788Z" fill="#3ABF7C"/>
<path d="M255.806 173.564V158.338C255.806 149.105 255.806 139.893 255.806 130.681V116.556C255.806 116.048 247.018 115.625 236.451 115.625H234.248C223.702 115.625 214.893 116.048 214.893 116.556V173.606C214.893 174.115 223.681 174.538 234.248 174.538H236.451C246.996 174.559 255.806 174.115 255.806 173.564Z" fill="#D8DEED"/>
<path d="M193.314 225.934L193.399 225.976C193.843 226.209 194.415 226.082 194.627 225.68L219.425 180.129C219.658 179.705 219.467 179.176 219.022 178.943L218.938 178.9C218.493 178.668 217.921 178.795 217.709 179.197L211.568 190.463C207.566 197.832 203.564 205.181 199.54 212.55L192.912 224.706C192.679 225.129 192.869 225.68 193.314 225.934Z" fill="#D8DEED"/>
<path d="M254.895 178.159H239.373C229.971 178.159 220.568 178.159 211.187 178.159H196.787C196.279 178.159 195.834 178.583 195.834 179.091V179.197C195.834 179.705 196.258 180.129 196.787 180.129H254.938C255.446 180.129 255.891 179.705 255.891 179.197V179.091C255.891 178.583 255.446 178.159 254.895 178.159Z" fill="#D8DEED"/>
<path d="M262.455 224.706L255.827 212.55C251.825 205.181 247.822 197.832 243.799 190.463L237.658 179.197C237.446 178.795 236.874 178.646 236.429 178.9L236.345 178.943C235.9 179.176 235.709 179.726 235.942 180.129L260.74 225.68C260.952 226.082 261.523 226.23 261.968 225.976L262.053 225.934C262.498 225.68 262.688 225.129 262.455 224.706Z" fill="#D8DEED"/>
<path d="M156.686 171.858C158.208 172.615 158.728 173.364 158.809 174.018C158.928 175.12 158.67 176.006 158.056 177.462C156.868 180.373 155.858 183.325 155.046 186.355C154.808 186.303 154.571 186.249 154.335 186.193C154.831 188.084 154.813 189.531 154.813 189.531C132.564 189.531 121.625 189.531 121.996 189.531C122.552 189.531 126.576 178.636 140.773 177.529C141.181 177.497 141.577 177.476 141.962 177.467C142.049 177.105 142.198 176.779 142.469 176.286C141.874 174.828 141.416 171.41 141.26 169.987C141.26 169.929 141.28 169.87 141.3 169.812C141.38 169.656 141.6 169.578 141.78 169.656L146.274 171.858C147.041 171.578 147.853 171.322 148.709 171.067C149.52 170.819 150.332 170.608 151.094 170.414L152.703 166.233C152.762 166.073 152.96 165.973 153.119 166.053C153.178 166.073 153.217 166.113 153.257 166.173C154.09 167.348 156.136 170.344 156.686 171.858Z" fill="#FFCB3D"/>
<path d="M121.143 188.189C120.975 187.129 121.422 186.484 122.484 186.254C126.861 186.012 130.756 186.337 134.169 187.229C137.581 188.121 139.569 188.9 140.131 189.566H122.484C121.734 189.566 121.143 188.958 121.143 188.189ZM155.909 181.019C156.42 180.427 157.99 177.884 157.99 177.884C157.99 177.884 156.263 183.128 155.222 186.382C155.281 186.106 154.457 188.314 154.359 187.742V187.722C154.221 187.072 153.691 186.599 153.024 186.559C152.396 186.52 151.728 186.5 151.022 186.5C150.119 186.5 149.196 186.559 148.293 186.677L146.978 182.675C148.254 183.326 149.706 183.562 151.12 183.444C151.61 183.405 152.082 183.306 152.553 183.168C153.848 182.793 155.006 182.024 155.909 181.019ZM151.187 176.179C151.466 176.492 151.92 176.599 152.313 176.422C152.671 176.213 152.861 175.81 152.785 175.401C152.753 175.228 152.867 175.062 153.04 175.03C153.212 174.999 153.378 175.113 153.41 175.285C153.536 175.968 153.214 176.642 152.615 176.981L152.593 176.992C152.061 177.241 151.46 177.171 151.005 176.859C150.863 177.2 150.58 177.492 150.198 177.665C149.431 177.956 148.571 177.669 148.185 176.991C148.098 176.839 148.151 176.645 148.303 176.558C148.455 176.471 148.649 176.524 148.736 176.676C148.965 177.077 149.493 177.253 149.954 177.078C150.304 176.92 150.504 176.596 150.468 176.279C150.467 176.276 150.466 176.274 150.465 176.272C150.373 176.113 150.354 175.913 150.373 175.733C150.391 175.593 150.465 175.473 150.557 175.413C150.74 175.273 151.016 175.353 151.127 175.553C151.224 175.745 151.232 175.98 151.187 176.179ZM145.823 176.188C146.046 176.608 145.841 177.207 145.618 177.247C145.451 177.267 145.246 177.048 145.172 176.908C145.079 176.748 145.06 176.548 145.079 176.368C145.097 176.228 145.172 176.108 145.265 176.048C145.451 175.909 145.711 175.989 145.823 176.188ZM155.36 172.8C155.566 173.22 155.378 173.779 155.153 173.859C154.984 173.879 154.777 173.659 154.702 173.519C154.608 173.36 154.589 173.16 154.608 172.98C154.627 172.84 154.702 172.72 154.796 172.66C154.984 172.52 155.247 172.6 155.36 172.8Z" fill="#DE6903"/>
<path d="M181.81 224.362H215.103C215.602 224.362 216.006 224.766 216.006 225.264C216.006 225.763 215.602 226.167 215.103 226.167H181.81C181.312 226.167 180.908 225.763 180.908 225.264C180.908 224.766 181.312 224.362 181.81 224.362ZM219.153 224.362H240.202C240.701 224.362 241.105 224.766 241.105 225.264C241.105 225.763 240.701 226.167 240.202 226.167H219.153C218.654 226.167 218.25 225.763 218.25 225.264C218.25 224.766 218.654 224.362 219.153 224.362Z" fill="#FF5645"/>
<path d="M239.967 224.362H219.196L220.862 213.406H235.664L239.967 224.362ZM215.662 224.555C215.508 224.434 215.314 224.362 215.103 224.362H181.81C181.778 224.362 181.745 224.363 181.713 224.367C181.702 224.275 181.696 224.165 181.699 224.034C181.721 223.894 181.724 223.734 181.768 223.574C182.03 222.616 182.347 221.979 183.276 221.413C184.204 220.848 185.152 220.342 186.139 219.898C189.782 218.215 191.026 218.237 193.421 216.693C194.412 216.048 195.323 215.301 196.175 214.494C196.742 213.955 197.968 213.08 199.854 211.869L214.466 211.913L215.662 224.555Z" fill="#474961"/>
<path d="M239.796 177.218C239.763 187.032 239.425 200.068 239.309 204.553C239.289 205.177 239.37 206.867 238.146 207.933C237.799 208.245 237.452 208.374 236.799 208.649C236.289 208.87 234.004 209.531 229.433 209.899C229.147 209.917 228.841 209.935 228.535 209.917C223.821 209.752 222.658 209.458 220.842 208.943C219.638 208.613 218.76 207.584 218.638 206.371C218.067 201.026 216.495 186.458 216.373 185.172C216.21 183.537 216.067 181.681 215.944 179.569L215.88 178.58L210.232 176.354C212.591 185.382 214.879 194.733 216.924 204.029C217.026 204.485 217.21 205.51 216.679 206.478C215.7 208.319 213.149 208.224 207.048 208.946C199.865 209.8 196.865 210.692 195.233 208.87C194.682 208.281 194.498 207.674 194.437 207.389C192.947 200.005 185.56 178.575 182.683 163.2C182.683 163.162 182.663 163.143 182.663 163.105C181.745 158.15 185.193 153.481 190.315 152.855C192.009 152.646 193.539 152.445 195.233 152.236C195.746 152.176 196.258 152.159 196.764 152.181L222.047 151.743C237.043 151.612 234.978 149.872 239.667 152.029C242.793 153.467 244.921 157.562 246.052 164.312C246.457 169.445 244.372 173.747 239.796 177.218Z" fill="#A339FF"/>
<path opacity="0.176986" d="M239.822 177.199C239.824 176.686 239.824 176.182 239.824 175.689C239.824 171.868 239.845 168.58 239.886 166.467C239.926 164.795 240.233 155.61 236.274 153.699C235.927 153.534 235.58 153.406 234.886 153.167C234.335 152.983 231.479 152.028 227.805 152.175C225.418 152.267 221.827 152.414 218.868 154.71C214.787 157.888 214.889 162.903 214.929 163.711L215.906 178.59L210.262 176.366C208.69 170.346 207.086 164.47 205.502 158.849C204.42 155.024 200.803 152.376 196.835 152.18L222.047 151.743C237.043 151.612 234.978 149.872 239.667 152.029C242.793 153.467 244.921 157.562 246.052 164.313C246.456 169.436 244.379 173.731 239.822 177.199Z" fill="#444444"/>
<path d="M218.316 114.337C218.562 114.231 218.813 114.136 219.07 114.054L223.424 112.6C223.677 112.554 223.928 112.514 224.178 112.48C224.521 112.086 225.22 111.752 226.432 111.38C230.737 110.035 236.232 112.271 238.189 117.283C239.894 121.65 242.16 126.584 241.948 126.648C241.903 126.662 240.915 127.37 239.56 127.808C241.519 135.201 242.575 140.151 242.727 142.656C243.03 147.646 241.351 150.991 235.664 151.415C229.976 151.838 222.06 152.436 221.13 150.781C220.532 149.717 217.721 143.148 212.697 131.075C210.819 131.683 209.838 131.994 209.754 132.009C209.492 132.054 208.601 129.118 208.021 124.475C207.355 119.147 210.586 114.703 215.941 113.794C216.826 113.64 217.618 113.821 218.316 114.337Z" fill="#FF5645"/>
<path opacity="0.176986" d="M218.329 114.346C213.003 116.555 210.358 124.122 212.132 129.716C212.328 130.175 212.521 130.626 212.711 131.07C210.824 131.681 209.838 131.994 209.754 132.009C209.492 132.054 208.601 129.118 208.021 124.475C207.355 119.147 210.586 114.703 215.941 113.794C216.832 113.639 217.628 113.823 218.329 114.346Z" fill="#444444"/>
<path d="M209.537 114.969C209.537 114.969 209.149 116.493 211.21 116.072C213.271 115.651 213.863 115.45 213.863 115.45L213.333 114.067L209.537 114.969Z" fill="#482D1F"/>
<path d="M221.189 113.897L224.984 131.616L225.886 126.806C230.642 127.737 234.512 128.203 237.497 128.203C237.513 128.203 237.529 128.203 237.545 128.203C236.873 130.775 235.279 141.938 232.8 146.257C229.665 151.717 227.836 152.316 223.207 151.87C222.733 151.824 222.286 151.74 221.865 151.619C222.067 151.685 222.275 151.74 222.49 151.785L198.545 152.153L198.543 152.159L198.47 152.154L198.377 152.155C198.334 152.156 198.291 152.15 198.25 152.138L188.453 151.418C186.88 151.302 185.433 150.518 184.478 149.265L183.377 147.821C183.116 147.478 182.947 147.075 182.886 146.649C182.69 145.271 183.647 143.996 185.024 143.8L187.952 143.383C189.958 143.097 191.996 143.101 194.001 143.394L200.045 144.277C204.633 142.835 210.757 140.941 212.286 140.615L210.387 131.806L212.631 130.925C213.336 132.533 213.999 134.044 214.62 135.457C213.916 128.743 213.995 121.329 213.149 114.743L211.027 114.789C209.762 115.29 207.109 116.132 206.823 114.347C206.823 114.347 210.333 112.923 212.802 111.88L212.986 111.72C213.149 111.58 213.292 111.499 213.496 111.439C213.537 111.419 213.577 111.419 213.618 111.419L213.754 111.4C213.386 111.427 213.128 111.421 213.039 111.411C211.332 111.336 209.24 108.315 208.234 103.912C208.141 103.557 208.109 103.198 208.056 102.84L207.799 99.2583C207.728 98.4591 207.882 97.6607 208.228 96.9464C208.262 96.863 208.297 96.7995 208.332 96.7361C208.457 96.5241 208.581 96.312 208.709 96.14C209.201 95.4534 209.811 94.9379 210.453 94.5606C211.982 93.7849 213.767 93.5911 214.774 93.6253C214.918 93.6331 215.371 93.6545 216.008 93.6803C216.61 93.7694 217.186 93.8004 217.777 93.7697C218.104 93.7617 218.373 94.0205 218.402 94.3401L218.654 99.4725C218.656 99.5104 218.666 99.564 218.684 99.6331C220.738 98.7975 222.21 99.2742 223.097 101.063C224.428 103.747 223.223 103.167 222.631 103.882C222.204 104.382 221.673 104.629 221.316 104.76C221.25 104.774 221.182 104.812 221.122 104.866L222.72 104.881L223.002 105.984L223.107 107.384L224.157 112.508C224.157 112.508 222.675 113.32 221.189 113.897ZM217.62 110.848L217.5 110.272C217.45 110.293 217.399 110.314 217.347 110.336C215.649 111.046 215.747 110.997 215.628 111.047C215.374 111.125 215.126 111.188 214.891 111.237L216.72 110.978L217.62 110.848ZM234.309 213.464H220.899L221.188 209.033C222.836 209.492 224.129 209.762 228.561 209.917C228.867 209.935 229.173 209.917 229.458 209.899C231.639 209.723 233.3 209.481 234.496 209.252L235.664 213.406L234.309 213.464ZM213.882 208.117L214.466 211.913H199.777L200.746 209.762C202.39 209.574 204.453 209.257 207.073 208.946C210.173 208.579 212.356 208.423 213.882 208.117Z" fill="#DB9E75"/>
<path d="M218.867 110.694L218.096 110.801L217.664 110.863C217.65 110.859 217.635 110.855 217.62 110.85L217.5 110.271L219.69 109.343C219.395 110.011 219.121 110.461 218.867 110.694Z" fill="#482D1F"/>
<path d="M209.526 103.479C209.599 103.835 209.732 104.407 209.592 104.681C209.366 105.123 208.569 104.225 208.63 103.536C208.666 103.251 208.798 103.118 208.961 103.104C209.223 103.062 209.463 103.222 209.526 103.479ZM213.863 102.723C213.936 103.079 214.069 103.652 213.929 103.925C213.702 104.368 212.905 103.47 212.967 102.78C213.003 102.495 213.135 102.363 213.297 102.349C213.56 102.306 213.799 102.467 213.863 102.723Z" fill="#482D1F"/>
<path d="M210.529 103.436L210.521 105.45C210.541 105.697 210.749 105.911 210.988 105.89C211.13 105.889 211.22 105.881 211.581 105.843C211.743 105.825 211.854 105.814 211.984 105.803C212.097 105.793 212.18 105.696 212.17 105.585C212.161 105.475 212.062 105.393 211.95 105.403C211.816 105.415 211.703 105.426 211.539 105.444C211.192 105.481 211.108 105.488 210.969 105.49C210.961 105.49 210.93 105.458 210.928 105.432L210.937 103.436C210.937 103.325 210.846 103.236 210.734 103.235C210.621 103.235 210.529 103.325 210.529 103.436Z" fill="#482D1F"/>
<path d="M212.395 106.936C212.533 106.884 212.866 106.715 212.889 106.511C212.886 106.471 212.901 106.41 212.879 106.391C212.788 106.299 212.531 106.401 212.171 106.493C211.529 106.648 210.98 106.696 210.98 106.696C210.98 106.696 211.193 107.02 211.304 107.111C211.549 107.331 212.178 107.036 212.395 106.936Z" fill="#482D1F"/>
<path d="M217.324 101.24L218.001 101.014C218.387 100.884 218.584 101.454 218.198 101.583L217.522 101.809L217.012 101.98C217.069 102.166 217.108 102.361 217.126 102.563C217.266 104.13 216.086 105.512 214.492 105.649C213.105 105.768 211.861 104.906 211.469 103.648L211.112 103.703L210.817 103.749C210.877 105.258 209.721 106.562 208.174 106.695C206.58 106.832 205.174 105.673 205.035 104.106C204.895 102.539 206.075 101.158 207.669 101.021C209.099 100.898 210.385 101.82 210.729 103.153L211.017 103.109L211.112 103.703C210.761 103.448 210.76 103.44 210.759 103.431L210.439 103.198L210.729 103.153C210.744 103.209 210.757 103.266 210.768 103.323C210.794 103.22 210.874 103.131 211.017 103.109L211.353 103.057C211.215 101.491 212.394 100.111 213.987 99.9744C215.161 99.8735 216.232 100.475 216.771 101.424L217.324 101.24ZM210.534 103.793C210.366 103.819 210.208 103.704 210.184 103.538C210.16 103.375 210.274 103.224 210.439 103.198L211.017 103.109L211.353 103.057C211.353 103.058 211.353 103.059 211.353 103.06C211.371 103.263 211.411 103.46 211.469 103.648L211.112 103.703L210.534 103.793ZM211.112 103.703C210.966 103.726 210.86 103.662 210.804 103.569L211.112 103.703ZM214.439 105.049C215.696 104.941 216.626 103.852 216.516 102.616C216.406 101.38 215.298 100.466 214.04 100.574C212.783 100.682 211.853 101.771 211.963 103.007C212.073 104.243 213.181 105.157 214.439 105.049ZM207.722 101.62C206.465 101.729 205.535 102.818 205.645 104.054C205.755 105.29 206.863 106.204 208.121 106.096C209.378 105.988 210.308 104.898 210.198 103.662C210.194 103.621 210.19 103.579 210.184 103.538C210.013 102.361 208.933 101.516 207.722 101.62Z" fill="#482D1F"/>
<path opacity="0.2" d="M222.478 151.785L198.533 152.153L198.531 152.159L198.458 152.154L198.366 152.155C198.322 152.156 198.279 152.15 198.238 152.138L188.441 151.418C186.869 151.302 185.421 150.518 184.466 149.265L183.365 147.821C183.104 147.478 182.935 147.075 182.874 146.649C182.678 145.272 183.635 143.996 185.013 143.8L187.94 143.383C189.946 143.097 191.984 143.101 193.989 143.394L200.033 144.277C204.622 142.835 210.745 140.941 212.274 140.615L210.375 131.806L212.619 130.925C213.365 132.627 214.064 134.22 214.717 135.703C214.83 136.586 214.962 137.464 215.116 138.338C216.623 146.217 218.37 150.927 222.478 151.785Z" fill="#8C2A00"/>
<path d="M224.772 131.721C224.724 131.562 224.817 131.395 224.979 131.347C225.141 131.3 225.311 131.391 225.359 131.55L227.38 138.249C227.428 138.408 227.335 138.576 227.173 138.623C227.011 138.67 226.841 138.579 226.793 138.42L224.772 131.721ZM237.558 128.449C237.388 128.447 237.252 128.312 237.254 128.145C237.255 127.979 237.393 127.846 237.562 127.847C238.414 127.853 239.213 127.731 239.962 127.481C240.122 127.428 240.296 127.512 240.35 127.669C240.404 127.827 240.319 127.997 240.159 128.051C239.344 128.323 238.477 128.455 237.558 128.449Z" fill="#482D1F"/>
<path d="M220.62 104.687C220.93 104.599 221.848 104.4 222.412 103.72C223.005 103.024 223.297 101.932 222.859 100.923C222.465 99.9501 221.417 99.2148 220.443 99.3187C219.896 99.3858 219.471 99.684 219.414 99.7292C218.743 100.25 218.475 100.917 218.475 100.917L218.313 101.383C218.232 101.279 218.155 101.182 218.081 101.092C216.519 99.656 215.618 98.6597 214.036 97.2254C213.24 97.4951 208.134 99.2815 207.75 99.1132C207.75 97.0753 208.509 96.4194 208.637 96.2473C209.129 95.5608 209.848 94.8945 210.49 94.5171C212.019 93.7414 213.804 93.5477 214.811 93.5819C214.955 93.5896 215.408 93.6111 216.045 93.6368C216.23 93.6411 216.414 93.6453 216.64 93.6461C217.172 93.6406 217.582 93.6456 217.828 93.6446C220.935 93.5787 222.106 93.1559 223.724 93.8422C223.819 93.885 223.951 93.9466 224.108 94.0314C224.216 93.7539 224.341 93.4957 224.466 93.2567C227.887 86.7413 232.042 88.2162 232.042 88.2404C232.042 88.2645 235.191 88.2645 235.996 91.4206C236.077 91.7343 236.641 93.9495 235.739 95.776C234.528 98.1659 230.917 99.6372 226.809 98.6329C226.859 99.3318 226.81 99.9042 226.789 100.202C226.565 102.517 225.282 103.976 224.906 104.592C224.406 105.414 223.788 106.24 223.052 107.072C222.134 106.53 221.431 105.898 220.943 105.175C220.838 105.015 220.73 104.852 220.62 104.687Z" fill="#482D1F"/>
<path d="M179.942 146.697C182.245 144.446 186.948 142.682 194.717 147.128C195.902 147.784 195.47 149.845 194.156 149.842L180.619 149.75C179.602 149.757 179.174 147.454 179.942 146.697Z" fill="#474961"/>
<path d="M152.873 189.565H155.753C157.238 190.024 158.175 190.997 158.563 192.484C158.951 193.972 158.014 195.399 155.753 196.765L155.73 196.76L155.732 196.765H120.155C117.894 195.399 116.957 193.972 117.345 192.484C117.734 190.997 118.67 190.024 120.155 189.565H152.873Z" fill="#3ABF7C"/>
<path d="M167.146 100.843H102.431C99.8894 100.843 97.8141 98.962 97.8141 96.6584V58.0159C97.8141 55.7123 99.8894 53.8311 102.431 53.8311H167.146C169.687 53.8311 171.762 55.7123 171.762 58.0159V96.6392C171.762 98.962 169.687 100.843 167.146 100.843Z" fill="#F2F6FB"/>
<path d="M97.8353 53.578C97.8353 51.2383 99.7318 49.3416 102.071 49.3416H167.506C169.845 49.3416 171.741 51.2394 171.741 53.578V58.4476H97.8353V53.578Z" fill="#E1E5F0"/>
<path d="M109.218 75.6007H117.371C118.043 75.6007 118.588 76.1458 118.588 76.8183C118.588 77.4908 118.043 78.036 117.371 78.036H109.218C108.545 78.036 108 77.4908 108 76.8183C108 76.1458 108.545 75.6007 109.218 75.6007ZM109.218 89.1537H117.371C118.043 89.1537 118.588 89.6989 118.588 90.3714C118.588 91.0439 118.043 91.5891 117.371 91.5891H109.218C108.545 91.5891 108 91.0439 108 90.3714C108 89.6989 108.545 89.1537 109.218 89.1537ZM121.712 75.6007H129.865C130.537 75.6007 131.082 76.1458 131.082 76.8183C131.082 77.4908 130.537 78.036 129.865 78.036H121.712C121.039 78.036 120.494 77.4908 120.494 76.8183C120.494 76.1458 121.039 75.6007 121.712 75.6007ZM121.712 89.1537H129.865C130.537 89.1537 131.082 89.6989 131.082 90.3714C131.082 91.0439 130.537 91.5891 129.865 91.5891H121.712C121.039 91.5891 120.494 91.0439 120.494 90.3714C120.494 89.6989 121.039 89.1537 121.712 89.1537ZM134.206 75.6007H142.359C143.031 75.6007 143.576 76.1458 143.576 76.8183C143.576 77.4908 143.031 78.036 142.359 78.036H134.206C133.533 78.036 132.988 77.4908 132.988 76.8183C132.988 76.1458 133.533 75.6007 134.206 75.6007ZM134.206 89.1537H142.359C143.031 89.1537 143.576 89.6989 143.576 90.3714C143.576 91.0439 143.031 91.5891 142.359 91.5891H134.206C133.533 91.5891 132.988 91.0439 132.988 90.3714C132.988 89.6989 133.533 89.1537 134.206 89.1537ZM109.218 68.8242H124.359C125.031 68.8242 125.576 69.3693 125.576 70.0418C125.576 70.7143 125.031 71.2595 124.359 71.2595H109.218C108.545 71.2595 108 70.7143 108 70.0418C108 69.3693 108.545 68.8242 109.218 68.8242ZM143.524 68.8242H160.571C161.243 68.8242 161.788 69.3693 161.788 70.0418C161.788 70.7143 161.243 71.2595 160.571 71.2595H143.524C142.851 71.2595 142.306 70.7143 142.306 70.0418C142.306 69.3693 142.851 68.8242 143.524 68.8242ZM143.524 82.3772H160.571C161.243 82.3772 161.788 82.9224 161.788 83.5949C161.788 84.2674 161.243 84.8125 160.571 84.8125H143.524C142.851 84.8125 142.306 84.2674 142.306 83.5949C142.306 82.9224 142.851 82.3772 143.524 82.3772ZM128.7 82.3772H131.771C132.443 82.3772 132.988 82.9224 132.988 83.5949C132.988 84.2674 132.443 84.8125 131.771 84.8125H128.7C128.028 84.8125 127.482 84.2674 127.482 83.5949C127.482 82.9224 128.028 82.3772 128.7 82.3772ZM136.112 68.8242H139.182C139.855 68.8242 140.4 69.3693 140.4 70.0418C140.4 70.7143 139.855 71.2595 139.182 71.2595H136.112C135.439 71.2595 134.894 70.7143 134.894 70.0418C134.894 69.3693 135.439 68.8242 136.112 68.8242ZM146.7 75.6007H160.571C161.243 75.6007 161.788 76.1458 161.788 76.8183C161.788 77.4908 161.243 78.036 160.571 78.036H146.7C146.028 78.036 145.482 77.4908 145.482 76.8183C145.482 76.1458 146.028 75.6007 146.7 75.6007Z" fill="#E1E5F0"/>
<path d="M109.218 82.3772H124.359C125.031 82.3772 125.576 82.9224 125.576 83.5949C125.576 84.2674 125.031 84.8126 124.359 84.8126H109.218C108.545 84.8126 108 84.2674 108 83.5949C108 82.9224 108.545 82.3772 109.218 82.3772ZM136.112 82.3772H139.182C139.855 82.3772 140.4 82.9224 140.4 83.5949C140.4 84.2674 139.855 84.8126 139.182 84.8126H136.112C135.439 84.8126 134.894 84.2674 134.894 83.5949C134.894 82.9224 135.439 82.3772 136.112 82.3772Z" fill="#A339FF"/>
<path d="M128.7 68.8242H131.771C132.443 68.8242 132.988 69.3693 132.988 70.0418C132.988 70.7143 132.443 71.2595 131.771 71.2595H128.7C128.028 71.2595 127.482 70.7143 127.482 70.0418C127.482 69.3693 128.028 68.8242 128.7 68.8242ZM146.7 89.1537H160.571C161.243 89.1537 161.788 89.6989 161.788 90.3714C161.788 91.0439 161.243 91.5891 160.571 91.5891H146.7C146.028 91.5891 145.482 91.0439 145.482 90.3714C145.482 89.6989 146.028 89.1537 146.7 89.1537Z" fill="#FF5645"/>
<path d="M108.635 42.7769H82.1647C79.8256 42.7769 77.9294 44.6731 77.9294 47.0122V60.3535C77.9294 62.6926 79.8256 64.5888 82.1647 64.5888H108.635C110.974 64.5888 112.871 62.6926 112.871 60.3535V47.0122C112.871 44.6731 110.974 42.7769 108.635 42.7769Z" fill="#3ABF7C"/>
<path d="M89.2248 48.7063L82.1647 54.387L89.5765 58.4476" stroke="white" stroke-width="2" stroke-linecap="round" stroke-linejoin="round"/>
<path d="M100.914 58.4476L108 53.5875L100.588 48.7063" stroke="white" stroke-width="2" stroke-linecap="round" stroke-linejoin="round"/>
<path d="M93.3883 60.8585L96.614 46.6679" stroke="white" stroke-width="2" stroke-linecap="round" stroke-linejoin="round"/>
<path d="M116.365 196.311C116.4 196.309 116.435 196.308 116.471 196.308H158.612C159.43 196.308 160.094 196.971 160.094 197.79C160.094 198.609 159.43 199.272 158.612 199.272H116.471C116.435 199.272 116.4 199.271 116.365 199.269V224.79C116.365 225.609 115.701 226.273 114.882 226.273C114.064 226.273 113.4 225.609 113.4 224.79L113.4 151.307C113.4 150.594 113.904 149.998 114.575 149.857C114.765 149.768 114.977 149.719 115.2 149.719H241.2C242.019 149.719 242.682 150.383 242.682 151.201C242.682 152.02 242.019 152.684 241.2 152.684H116.365V196.311Z" fill="#D8DEED"/>
<path d="M145.625 146.543L147.662 138.326H132.374C130.786 138.326 129.473 137.119 129.473 135.658V112.385C129.452 110.902 130.744 109.695 132.353 109.695H178.878C180.466 109.695 181.779 110.902 181.779 112.363V135.658C181.779 137.119 180.466 138.326 178.878 138.326H160.248L159.407 146.543H164.923C165.77 146.543 166.426 147.221 166.426 148.047C166.426 148.894 165.749 149.55 164.923 149.55H141.311C140.464 149.55 139.808 148.872 139.808 148.047C139.765 147.221 140.464 146.543 141.311 146.543H145.625Z" fill="#474961"/>
<path fill-rule="evenodd" clip-rule="evenodd" d="M160.879 132.337L160.942 146.564H159.423L160.879 132.337Z" fill="white"/>
</svg>
