<svg width="360" height="268" viewBox="0 0 360 268" fill="none" xmlns="http://www.w3.org/2000/svg">
<ellipse cx="174" cy="243.5" rx="131" ry="24.5" fill="#A994FF"/>
<ellipse cx="73.5" cy="46" rx="29.5" ry="28" fill="#A994FF"/>
<path d="M211.722 27.7603H173.351V68.2283H211.722V27.7603Z" stroke="#E1E5F0" stroke-width="5"/>
<path d="M174.981 26.0183H171.699V29.48H174.981V26.0183Z" fill="#E1E5F0"/>
<path d="M174.981 66.5087H171.699V69.9704H174.981V66.5087Z" fill="#D8DEED"/>
<path d="M213.374 26.0183H210.092V29.48H213.374V26.0183Z" fill="#CCF2FF"/>
<path d="M213.374 66.5087H210.092V69.9703H213.374V66.5087Z" fill="#CCF2FF"/>
<path d="M218.224 41.875H199.821C198.424 41.875 197.28 40.669 197.28 39.195V19.7873C197.28 18.3133 198.424 17.1073 199.821 17.1073H218.224C219.621 17.1073 220.765 18.3133 220.765 19.7873V39.195C220.765 40.669 219.621 41.875 218.224 41.875Z" fill="#E1E5F0"/>
<path d="M215.174 29.1833V28.8547C215.174 28.3613 215.553 27.9613 216.021 27.9613C216.489 27.9613 216.868 28.3613 216.868 28.8547V34.9293C216.868 35.4227 216.489 35.8227 216.021 35.8227C215.669 35.8227 215.367 35.5958 215.239 35.2731C214.717 35.621 214.099 35.8227 213.438 35.8227C211.572 35.8227 210.049 34.2167 210.049 32.2493C210.049 30.282 211.572 28.676 213.438 28.676C214.071 28.676 214.666 28.8614 215.174 29.1833ZM204.43 28.9217H206.663L205.485 24.6208L204.43 28.9217ZM203.991 30.7083L202.928 35.0414C202.811 35.5191 202.349 35.8061 201.896 35.6825C201.443 35.5589 201.171 35.0715 201.288 34.5939L203.958 23.7127C204.367 22.0824 206.526 22.0622 206.988 23.671L209.974 34.5697C210.104 35.0437 209.845 35.5389 209.395 35.6759C208.946 35.8128 208.476 35.5396 208.346 35.0656L207.152 30.7083H203.991ZM213.438 34.036C214.367 34.036 215.132 33.23 215.132 32.2493C215.132 31.2687 214.367 30.4627 213.438 30.4627C212.508 30.4627 211.744 31.2687 211.744 32.2493C211.744 33.23 212.508 34.036 213.438 34.036Z" fill="#F2F6FB"/>
<path d="M208.659 102.131L194.753 92.6833C194.567 92.8197 194.567 92.8197 194.4 92.9755L199.599 109.476C199.599 109.476 201.641 109.184 203.219 108.248L205.577 111.443L209.012 108.658L206.654 105.443C207.322 104.333 207.991 103.222 208.659 102.131Z" fill="#E1E5F0"/>
<path d="M197.365 51.366C197.365 50.1329 198.313 49.1333 199.482 49.1333H218.921L226.8 57.3521V83.3035C226.8 84.5368 225.854 85.5367 224.683 85.5367H199.482C198.312 85.5367 197.365 84.5346 197.365 83.304V51.366Z" fill="#F2F6FB"/>
<path d="M212.349 73.7302H203.244C203.081 73.7302 203.02 73.6132 203.11 73.4674L209.387 63.2524C209.476 63.1072 209.624 63.1057 209.716 63.2455L214.218 70.2214L216.146 67.0655C216.235 66.9202 216.385 66.9141 216.482 67.053L220.989 73.4771C221.086 73.6155 221.031 73.729 220.868 73.7306L216.758 73.7716L212.349 73.7302ZM216.287 64.8471C215.495 64.8471 214.852 64.1903 214.852 63.3802C214.852 62.57 215.495 61.9132 216.287 61.9132C217.08 61.9132 217.723 62.57 217.723 63.3802C217.723 64.1903 217.08 64.8471 216.287 64.8471Z" fill="#E1E5F0"/>
<path d="M218.921 49.1333L226.8 57.3521L219.361 58.7521C218.21 58.9687 217.439 58.157 217.638 56.9442L218.921 49.1333Z" fill="#E1E5F0"/>
<path d="M267.374 190.191V174.133C267.374 164.396 267.374 154.681 267.374 144.966V130.069C267.374 129.533 258.586 129.087 248.019 129.087H245.816C235.271 129.087 226.461 129.533 226.461 130.069V190.235C226.461 190.771 235.249 191.218 245.816 191.218H248.019C258.565 191.24 267.374 190.771 267.374 190.191Z" fill="#D8DEED"/>
<path d="M204.882 244.952L204.967 244.997C205.412 245.242 205.984 245.108 206.195 244.684L230.993 196.645C231.226 196.198 231.035 195.64 230.591 195.394L230.506 195.35C230.061 195.104 229.489 195.238 229.278 195.662L223.136 207.544C219.134 215.316 215.132 223.065 211.108 230.837L204.48 243.657C204.247 244.103 204.438 244.684 204.882 244.952Z" fill="#D8DEED"/>
<path d="M266.442 194.568H250.92C241.518 194.568 232.115 194.568 222.734 194.568H208.334C207.826 194.568 207.381 195.015 207.381 195.551V195.662C207.381 196.198 207.805 196.645 208.334 196.645H266.485C266.993 196.645 267.438 196.198 267.438 195.662V195.551C267.438 195.015 266.993 194.568 266.442 194.568Z" fill="#D8DEED"/>
<path d="M274.024 243.657L267.395 230.837C263.393 223.065 259.391 215.316 255.367 207.544L249.226 195.662C249.014 195.238 248.442 195.082 247.998 195.35L247.913 195.394C247.468 195.64 247.278 196.221 247.511 196.645L272.308 244.684C272.52 245.108 273.092 245.265 273.536 244.997L273.621 244.952C274.066 244.684 274.256 244.103 274.024 243.657Z" fill="#D8DEED"/>
<path d="M251.169 242.987H229.849C229.703 242.987 229.564 243.016 229.44 243.069L231.325 231.318L246.325 229.363L251.169 242.987ZM224.433 243.037C224.338 243.004 224.237 242.987 224.132 242.987H190.482C190.374 242.987 190.271 243.005 190.174 243.04C190.111 242.93 190.064 242.807 190.038 242.674V242.652C190.038 242.54 190.016 242.428 190.038 242.317C190.059 242.183 190.059 242.071 190.101 241.937C190.376 240.932 191.118 240.083 191.605 239.614C191.668 239.547 191.711 239.525 191.774 239.48C192.706 238.877 193.659 238.319 194.654 237.85C196.602 236.912 200.922 234.991 202.214 234.299C203.887 233.406 206.195 231.887 208.609 229.162C208.736 229.095 208.906 229.006 208.906 229.006L223.729 228.626C223.729 228.626 223.793 228.85 223.793 228.872L224.534 242.562C224.534 242.733 224.498 242.894 224.433 243.037Z" fill="#474961"/>
<path d="M190.482 242.987H224.153C224.679 242.987 225.106 243.437 225.106 243.992C225.106 244.547 224.679 244.997 224.153 244.997H190.482C189.956 244.997 189.529 244.547 189.529 243.992C189.529 243.437 189.956 242.987 190.482 242.987ZM229.871 242.987H251.047C251.573 242.987 252 243.437 252 243.992C252 244.547 251.573 244.997 251.047 244.997H229.871C229.344 244.997 228.918 244.547 228.918 243.992C228.918 243.437 229.344 242.987 229.871 242.987Z" fill="#DE3190"/>
<path d="M249.883 192.083C249.882 192.414 249.882 192.749 249.882 193.088C249.882 204.47 249.501 220.762 249.374 226.172C249.353 226.879 249.438 228.814 248.167 230.042C247.659 230.521 247.108 230.729 246.769 230.853C243.021 232.164 237.769 232.185 232.009 231.686C231.628 231.644 231.014 231.415 230.188 231.166C228.939 230.77 228.028 229.605 227.901 228.211C227.308 222.093 225.678 205.385 225.551 203.908C225.381 202.035 225.233 199.913 225.106 197.499L224.69 190.501C222.488 190.009 220.39 189.47 218.404 188.904C221.124 200.416 223.777 212.448 226.122 224.404C226.228 224.928 226.419 226.15 225.868 227.307C224.852 229.424 222.205 229.336 215.873 230.166C208.419 231.17 205.306 232.195 203.612 230.078C203.04 229.402 202.849 228.682 202.786 228.354C201.24 219.778 193.574 194.834 190.588 176.939C190.588 176.895 190.567 176.873 190.567 176.83C190.332 175.404 190.373 174.002 190.646 172.686C191.237 166.553 196.086 161.708 202.079 161.576L220.195 161.177C228.115 161.028 253.755 160.157 254.512 160.922C255.27 161.687 255.581 168.096 255.665 170.821C255.665 171.822 255.665 172.844 255.686 173.823C255.686 178.613 254.903 182.999 253.59 186.384C252.679 188.726 251.536 190.578 250.244 191.771C250.125 191.88 250.004 191.985 249.883 192.083Z" fill="#0094D8"/>
<path opacity="0.176986" d="M249.846 192.112C249.849 188.18 249.87 184.795 249.909 182.573C249.951 180.659 250.269 170.13 246.161 167.946C245.801 167.758 245.441 167.592 244.721 167.321C244.149 167.113 241.184 166.011 237.373 166.177C234.895 166.281 231.168 166.448 228.097 169.069C223.841 172.731 223.947 178.453 223.989 179.39L224.649 190.492C222.442 189.998 220.34 189.457 218.351 188.889C216.975 183.07 215.583 177.384 214.206 171.91C212.935 166.869 208.467 163.595 203.744 164.228C201.987 164.468 200.229 164.708 198.471 164.948C194.555 165.495 191.581 168.577 190.668 172.475C191.348 166.443 196.155 161.706 202.079 161.576L220.195 161.177C228.115 161.028 253.755 160.157 254.512 160.922C255.27 161.687 255.581 168.096 255.665 170.821C255.665 171.822 255.665 172.844 255.686 173.823C255.686 178.613 254.903 182.999 253.59 186.384C252.679 188.726 251.536 190.578 250.244 191.771C250.113 191.892 249.98 192.006 249.846 192.112Z" fill="#444444"/>
<path d="M217.978 146.212L208.869 145.26C207.937 145.171 207.936 143.145 207.908 142.32C207.997 141.475 208.369 140.2 209.039 139.868C208.664 139.181 208.6 137.962 208.885 136.79C209.113 135.855 209.911 135.3 210.737 135.013C211.42 132.682 212.478 128.828 212.87 126.986C214.04 121.378 215.643 119.241 216.195 118.617C216.827 117.879 217.446 117.364 217.859 117.036C220.647 114.855 223.663 114.431 225.207 114.33C225.248 114.306 225.29 114.304 225.333 114.303L231.177 114.001C231.963 113.906 232.707 113.846 233.379 113.793C235.42 113.642 237.527 113.483 239.606 113.758L246.151 113.855C246.194 113.855 246.236 113.855 246.278 113.878C247.824 113.922 250.853 114.235 253.711 116.312C254.135 116.625 254.77 117.116 255.427 117.831C255.998 118.434 257.671 120.511 259.027 126.072C259.479 127.898 260.663 131.711 261.423 134.016C262.259 134.272 263.074 134.798 263.333 135.723C263.657 136.884 263.633 138.105 263.281 138.805C263.962 139.112 264.375 140.372 264.492 141.214C264.492 142.04 264.558 144.064 263.63 144.188L255.403 145.354C255.986 150.172 256.002 154.194 255.569 156.85C255.569 156.919 255.546 157.01 255.523 157.079C255.409 157.787 255.249 158.381 255.043 158.861C255.02 158.907 254.997 158.953 254.974 158.998C253.807 160.735 244.588 160.118 242.415 160.187C238.846 160.301 234.728 160.324 229.65 160.21C228.071 160.164 225.074 160.461 221.414 159.455C221.391 159.455 221.368 159.433 221.368 159.433C221.368 159.433 220.911 159.295 220.385 158.976C220.133 158.816 219.836 158.633 219.584 158.381C217.296 156.21 217.8 151.022 217.8 151.022C217.86 149.322 217.919 147.721 217.978 146.212Z" fill="#5382A1"/>
<path d="M238.489 107.455L238.718 114.57C238.718 114.726 238.655 114.883 238.528 114.95C237.977 115.307 237.194 115.709 236.22 115.932C234.462 116.357 232.958 116.044 232.111 115.776C231.942 115.731 231.815 115.553 231.815 115.374L231.732 111.4C230.53 111.873 230.598 111.826 230.486 111.865C229.152 112.222 228.009 112.178 227.797 112.133C227.034 112.066 226.23 111.396 225.51 110.257C224.536 108.738 223.667 106.371 223.201 103.535C223.117 103.133 223.096 102.731 223.074 102.329L222.99 98.3309C222.969 97.4376 223.18 96.5666 223.583 95.7402C223.752 95.3829 223.921 95.0926 224.133 94.8469C224.178 94.7861 224.224 94.7266 224.27 94.6685C225.935 92.4009 229.245 92.1033 230.783 92.2786C230.973 92.3009 231.651 92.3902 232.625 92.4572C233.154 92.5019 233.578 92.5019 233.832 92.5242C236.987 92.6582 238.237 92.2562 239.825 93.1496C240.121 93.3059 240.799 93.7079 241.392 94.4896C243.065 96.7006 242.663 99.5592 242.557 100.408C242.176 102.954 240.778 104.517 240.354 105.165C239.875 105.91 239.085 106.812 238.489 107.455ZM209.23 155.437L210.74 145.468L217.965 146.06L217.886 152.879C220.648 152.552 223.381 152.515 224.761 153.145C224.801 153.163 224.84 153.181 224.878 153.201C231.419 151.895 242.621 149.735 249.491 148.829L248.799 146.253L263.025 144.236C263.668 151.62 262.937 160.554 255.87 161.47C247.715 162.527 234.213 162.527 215.364 161.47H206.054C205.922 158.601 207.714 156.951 209.23 155.437Z" fill="#DB9E75"/>
<path d="M242.15 102.029C241.157 102.031 240.21 102.081 239.269 102.136C239.41 101.34 239.298 100.468 238.803 99.7407C238.125 98.7357 236.855 98.1773 235.838 98.5347C235.267 98.7357 234.885 99.2047 234.843 99.2493C234.271 100.009 234.144 100.813 234.144 100.813L234.038 101.921C232.336 100.062 230.169 97.7127 228.551 95.919C227.597 96.1946 226.023 96.4702 224.234 96.0693C223.99 96.0122 223.759 95.9261 223.54 95.829C223.554 95.7994 223.568 95.7698 223.583 95.7402C223.752 95.3829 223.921 95.0926 224.133 94.8469C224.178 94.7861 224.224 94.7266 224.27 94.6685C225.935 92.4009 229.245 92.1033 230.783 92.2786C230.973 92.3009 231.651 92.3902 232.625 92.4572C233.154 92.5019 233.578 92.5019 233.832 92.5242C236.987 92.6582 238.237 92.2562 239.825 93.1496C240.121 93.3059 240.799 93.7079 241.392 94.4896C243.065 96.7006 242.663 99.5592 242.557 100.408C242.468 101.001 242.324 101.542 242.15 102.029ZM223.831 101.125C223.62 101.081 223.556 100.79 223.704 100.634C223.895 100.455 224.234 100.277 224.657 100.277C225.525 100.277 226.457 100.88 225.483 101.148C224.911 101.326 224.234 101.237 223.831 101.125ZM228.194 101.282C227.982 101.237 227.918 100.947 228.088 100.79C228.278 100.612 228.617 100.433 229.062 100.433C229.93 100.433 230.862 101.058 229.888 101.304C229.274 101.505 228.617 101.371 228.194 101.282Z" fill="#482D1F"/>
<path opacity="0.2" d="M209.213 155.491L210.74 145.468L217.965 146.06L217.886 152.916C214.123 153.361 210.306 154.344 209.781 154.91C209.599 155.103 209.408 155.296 209.213 155.491Z" fill="#8C2A00"/>
<path d="M225.483 102.711C225.462 103.091 225.398 103.716 225.187 103.939C224.827 104.274 224.361 103.158 224.636 102.465C224.742 102.175 224.89 102.13 225.06 102.153C225.314 102.197 225.483 102.443 225.483 102.711ZM229.274 102.644C229.295 103.024 229.295 103.649 229.083 103.917C228.765 104.297 228.173 103.225 228.384 102.51C228.469 102.22 228.617 102.153 228.787 102.153C229.041 102.153 229.253 102.376 229.274 102.644Z" fill="#482D1F"/>
<path d="M227.537 107.245C227.685 107.2 228.045 107.088 228.109 106.843C228.109 106.798 228.13 106.731 228.109 106.686C228.024 106.53 227.77 106.619 227.389 106.642C226.711 106.686 226.161 106.619 226.161 106.619C226.161 106.619 226.309 107.066 226.415 107.2C226.648 107.535 227.325 107.312 227.537 107.245Z" fill="#482D1F"/>
<path d="M225.782 105.114C225.742 105.366 225.927 105.614 226.168 105.656C226.221 105.661 226.221 105.661 226.255 105.664C226.613 105.693 226.836 105.704 227.22 105.704C227.337 105.704 227.431 105.604 227.431 105.48C227.431 105.357 227.337 105.257 227.22 105.257C226.848 105.257 226.635 105.247 226.288 105.219L226.219 105.213C226.219 105.212 226.2 105.186 226.2 105.182L226.519 102.787L226.521 102.756V101.438C226.521 101.315 226.426 101.215 226.309 101.215C226.192 101.215 226.097 101.315 226.097 101.438V102.74L225.782 105.114Z" fill="#482D1F"/>
<path d="M239.272 100.959C239.368 101.613 239.257 102.326 238.975 102.899C238.633 103.621 238.151 104.014 237.529 104.317C237.422 104.369 237.376 104.502 237.425 104.614C237.474 104.726 237.6 104.774 237.706 104.723C237.98 104.59 238.197 104.461 238.448 104.255C238.819 103.953 239.129 103.573 239.353 103.101C239.674 102.447 239.801 101.639 239.69 100.89C239.672 100.768 239.564 100.685 239.448 100.704C239.333 100.723 239.253 100.837 239.272 100.959Z" fill="#482D1F"/>
<path d="M225.584 102.758C225.562 103.138 225.499 103.763 225.287 103.987C224.927 104.322 224.461 103.205 224.737 102.513C224.842 102.222 224.991 102.178 225.16 102.2C225.414 102.245 225.584 102.49 225.584 102.758ZM229.374 102.691C229.395 103.071 229.395 103.696 229.184 103.964C228.866 104.344 228.273 103.272 228.485 102.557C228.57 102.267 228.718 102.2 228.887 102.2C229.141 102.2 229.353 102.423 229.374 102.691Z" fill="#482D1F"/>
<path d="M227.638 107.292C227.786 107.247 228.146 107.136 228.21 106.89C228.21 106.845 228.231 106.778 228.21 106.734C228.125 106.577 227.871 106.667 227.49 106.689C226.812 106.734 226.261 106.667 226.261 106.667C226.261 106.667 226.41 107.113 226.515 107.247C226.748 107.582 227.426 107.359 227.638 107.292Z" fill="#482D1F"/>
<path d="M239.372 101.006C239.469 101.661 239.357 102.373 239.076 102.946C238.733 103.668 238.251 104.062 237.629 104.365C237.523 104.416 237.477 104.549 237.526 104.661C237.575 104.773 237.7 104.822 237.807 104.77C238.08 104.637 238.297 104.508 238.549 104.303C238.919 104 239.229 103.62 239.453 103.149C239.775 102.495 239.901 101.686 239.791 100.937C239.772 100.815 239.664 100.732 239.549 100.751C239.433 100.77 239.354 100.884 239.372 101.006Z" fill="#482D1F"/>
<path d="M249.106 146.319C249.158 146.496 249.063 146.683 248.896 146.738C248.728 146.792 248.55 146.693 248.499 146.516C247.895 144.447 245.968 138.178 245.561 137.02C245.5 136.846 245.584 136.654 245.748 136.589C245.913 136.525 246.096 136.613 246.157 136.787C246.569 137.961 248.499 144.238 249.106 146.319ZM220.187 127.559C219.658 132.721 219.234 136.839 218.281 146.096C218.262 146.28 218.106 146.413 217.931 146.393C217.757 146.373 217.631 146.208 217.65 146.024C218.603 136.767 219.026 132.649 219.556 127.487C219.574 127.303 219.731 127.17 219.906 127.19C220.08 127.21 220.206 127.375 220.187 127.559Z" fill="#482D1F"/>
<path d="M231.737 111.479L233.472 110.664L231.778 113.608L231.737 111.479Z" fill="#482D1F"/>
<path d="M146.774 244.684L146.689 244.729C146.245 244.974 145.673 244.84 145.461 244.416L120.664 196.377C120.431 195.93 120.621 195.372 121.066 195.126L121.151 195.082C121.595 194.836 122.167 194.97 122.379 195.394L128.52 207.276C132.522 215.048 136.525 222.797 140.548 230.569L147.176 243.389C147.409 243.835 147.219 244.416 146.774 244.684Z" fill="#D8DEED"/>
<path d="M85.9765 194.3H101.499C110.901 194.3 120.304 194.3 129.685 194.3H144.085C144.593 194.3 145.038 194.747 145.038 195.283V195.394C145.038 195.93 144.614 196.377 144.085 196.377H85.9341C85.4259 196.377 84.9812 195.93 84.9812 195.394V195.283C84.9812 194.747 85.4259 194.3 85.9765 194.3Z" fill="#D8DEED"/>
<path d="M77.6329 243.389L84.2612 230.569C88.2635 222.797 92.2659 215.048 96.2894 207.276L102.431 195.394C102.642 194.97 103.214 194.814 103.659 195.082L103.744 195.126C104.188 195.372 104.379 195.953 104.146 196.377L79.3482 244.416C79.1365 244.84 78.5647 244.997 78.12 244.729L78.0353 244.684C77.5906 244.416 77.4 243.835 77.6329 243.389Z" fill="#D8DEED"/>
<path d="M79.6023 130.784L81.6141 147.936C82.8424 158.321 84.0494 168.706 85.2776 179.069L87.1412 194.97C87.2047 195.528 86.8447 196.087 86.3365 196.154L86.2306 196.176C85.7224 196.243 85.2565 195.841 85.1718 195.238L77.6118 131.007C77.5482 130.449 77.9082 129.891 78.4165 129.824L78.5223 129.801C79.0518 129.734 79.5388 130.181 79.6023 130.784Z" fill="#D8DEED"/>
<path d="M115.354 242.966H126.805C127.334 242.966 127.779 243.425 127.779 243.971C127.779 244.517 127.334 244.976 126.805 244.976H115.052C114.522 244.976 114.099 244.539 114.078 243.971C114.078 243.425 114.522 242.966 115.052 242.966H115.354L115.581 243.145C116.005 243.48 116.089 244.127 115.772 244.574C115.454 245.021 114.84 245.11 114.416 244.775L93.1553 228.07C92.7318 227.735 92.6471 227.087 92.9647 226.64C93.2824 226.194 93.8965 226.104 94.32 226.439L115.354 242.966ZM171.296 244.953H137.668C137.139 244.953 136.715 244.506 136.715 243.948C136.715 243.389 137.139 242.943 137.668 242.943H171.318C171.847 242.943 172.271 243.389 172.271 243.948C172.249 244.506 171.826 244.953 171.296 244.953Z" fill="#FFCB3D"/>
<path d="M94.3239 226.458L102.092 214.847L114.84 224.606C115.539 227.108 116.259 229.609 116.979 232.133C117.36 233.45 117.741 234.746 118.122 236.041C119.308 236.532 120.325 236.979 121.045 237.314C122.421 237.939 123.586 238.52 124.856 239.391C124.856 239.391 125.958 240.106 126.572 241.133C126.762 241.468 126.932 241.848 127.038 242.25C127.08 242.428 127.08 242.607 127.101 242.763C127.098 242.842 127.087 242.927 127.071 243.012C126.98 242.982 126.884 242.966 126.785 242.966H115.334L94.3239 226.458ZM171.562 242.981C171.478 242.956 171.39 242.943 171.298 242.943H137.649C137.516 242.943 137.39 242.971 137.275 243.022C137.215 242.882 137.181 242.727 137.181 242.563L138.109 229.565C138.081 229.118 142.868 228.902 152.471 228.917C152.704 228.917 152.915 228.984 153.106 229.141C155.52 231.865 157.828 233.384 159.501 234.277C160.793 234.97 165.113 236.89 167.061 237.828C168.056 238.297 169.009 238.856 169.941 239.459C170.005 239.503 170.047 239.526 170.111 239.593C170.598 240.062 171.339 240.91 171.614 241.915C171.656 242.049 171.656 242.161 171.678 242.295C171.699 242.407 171.678 242.518 171.678 242.63V242.652C171.654 242.77 171.615 242.881 171.562 242.981Z" fill="#474961"/>
<path d="M112.127 192.084L103.601 193.468C96.4027 194.69 88.2965 188.881 87.2445 180.563C87.1414 179.834 87.1001 179.106 87.1001 178.377C87.1001 171.474 87.5224 164.102 94.2353 162.557C100.948 161.012 145.449 162.128 150.588 162.128C155.728 162.128 157.58 164.262 159.451 167.405C161.321 170.549 160.757 175.926 160.283 179.313C159.437 185.422 159.004 190.095 158.839 195.09C158.798 196.141 158.736 197.255 158.674 198.499C158.303 205.916 157.973 208.981 157.354 218.606C157.127 222.422 156.941 225.723 156.797 228.231C156.735 229.474 155.724 230.46 154.528 230.46H153.311L136.348 230.525C135.069 230.525 134.017 229.431 134.058 228.102L134.285 219.206L134.43 213.89C134.51 210.904 134.591 207.719 134.672 204.479C132.745 207.052 130.988 209.418 129.402 211.576C128.118 213.354 126.648 215.397 124.814 217.973C122.379 221.39 120.325 224.338 118.758 226.616C118.072 227.594 116.817 227.921 115.734 227.463C115.567 227.395 115.404 227.309 115.248 227.204L114.083 226.4L106.036 220.973L99.4926 216.551C98.2432 215.702 97.8832 214.005 98.6879 212.777L104.003 204.603L107.18 199.712C108.302 197.977 109.951 195.434 112.127 192.084Z" fill="#474BFF"/>
<path opacity="0.176986" d="M134.604 204.562C130.581 209.935 127.306 214.398 124.777 217.951C122.342 221.368 120.288 224.316 118.721 226.594C117.937 227.711 116.413 227.979 115.248 227.197L114.083 226.393L106.036 220.966L99.4926 216.544C98.2432 215.695 97.8832 213.998 98.6879 212.77L104.003 204.596L107.18 199.705C108.308 197.961 109.969 195.4 112.162 192.023L135.004 188.313V188.936L134.86 194.252C134.774 197.637 134.689 201.132 134.604 204.562L134.604 204.562Z" fill="#444444"/>
<path d="M138.162 183.11C137.122 184.769 136.811 185.22 136.495 185.594C136.144 186.008 135.813 186.488 134.753 188.18C134.624 188.386 134.677 188.663 134.872 188.799C135.067 188.935 135.33 188.878 135.459 188.673C136.499 187.014 136.81 186.563 137.126 186.189C137.477 185.775 137.808 185.295 138.869 183.603C138.998 183.397 138.944 183.12 138.749 182.984C138.554 182.848 138.291 182.904 138.162 183.11Z" fill="#482D1F"/>
<path d="M122.188 135.988C125.301 133.531 133.348 126.853 133.348 126.853C135.974 129.355 129.664 133.844 129.664 133.844" fill="#482D1F"/>
<mask id="mask0_1_274" style="mask-type:alpha" maskUnits="userSpaceOnUse" x="86" y="115" width="36" height="49">
<path d="M111.046 116.682C111.709 116.903 112.378 117.205 113.04 117.607C115.56 119.148 116.767 121.136 118.991 125.178C120.854 128.528 122.506 131.543 121.32 133.553C120.532 134.888 118.769 135.236 117.582 135.334L117.529 140.521V140.745L117.424 151.867C117.252 155.461 117.04 158.384 116.788 160.636C116.41 164.014 92.2231 165.407 92.2231 161.532C91.6513 160.058 91.4612 155.284 91.4824 153.586L91.6553 137.15C91.3821 137.177 91.1057 137.21 90.8259 137.248C89.64 137.248 87.7977 137.011 86.9082 135.589C85.6165 133.552 87.0988 130.258 88.7506 126.562C90.7412 122.131 91.5977 119.603 94.2565 118.15C95.4125 117.518 96.3741 117.207 97.1413 117.214C98.7162 116.237 100.539 115.694 102.473 115.731L107.132 115.821C108.519 115.836 109.839 116.141 111.046 116.682Z" fill="white"/>
</mask>
<g mask="url(#mask0_1_274)">
<path d="M111.046 116.682C111.709 116.903 112.378 117.205 113.04 117.607C115.56 119.148 116.767 121.136 118.991 125.178C120.854 128.528 122.506 131.543 121.32 133.553C120.532 134.888 118.769 135.236 117.582 135.334L117.529 140.521V140.745L117.424 151.867C117.252 155.461 117.04 158.384 116.788 160.636C116.41 164.014 92.2231 165.407 92.2231 161.532C91.6513 160.058 91.4612 155.284 91.4824 153.586L91.6553 137.15C91.3821 137.177 91.1057 137.21 90.8259 137.248C89.64 137.248 87.7977 137.011 86.9082 135.589C85.6165 133.552 87.0988 130.258 88.7506 126.562C90.7412 122.131 91.5977 119.603 94.2565 118.15C95.4125 117.518 96.3741 117.207 97.1413 117.214C98.7162 116.237 100.539 115.694 102.473 115.731L107.132 115.821C108.519 115.836 109.839 116.141 111.046 116.682Z" fill="#FFCB3D"/>
</g>
<path opacity="0.2" d="M105.947 115.876C107.956 115.683 110.668 116.164 113.04 117.607C115.56 119.148 116.8 121.224 119.024 125.266C120.887 128.616 122.506 131.543 121.32 133.553C120.54 134.873 118.806 135.229 117.62 135.331L117.694 128.16V127.758C117.778 121.282 113.077 115.966 107.169 115.899L105.947 115.876V115.876Z" fill="#8C2A00"/>
<path d="M139.671 138.715L139.66 140.708C139.67 141.549 138.864 142.125 138.122 141.806L136.378 141.05L128.158 128.092C127.818 127.553 127.964 126.809 128.476 126.45L129.916 125.426C130.427 125.067 131.132 125.221 131.472 125.76L139.671 138.715Z" fill="#FFCB3D"/>
<path d="M127.683 132.769L133.485 129.048C134.018 128.715 134.706 128.955 135.013 129.595L135.295 130.16C135.515 130.636 135.468 131.178 135.229 131.579C135.659 131.545 136.07 131.812 136.28 132.312L136.562 132.894C136.826 133.479 136.709 134.161 136.337 134.576C136.854 134.329 137.478 134.578 137.767 135.2L138.049 135.764C138.356 136.427 138.142 137.219 137.61 137.576L134.164 139.779C129.815 143.064 125.738 145.983 121.933 148.536L122.141 150.327C126.77 151.063 133.14 152.078 141.253 153.371L141.342 153.385C142.826 153.251 144.12 153.486 145.003 153.678C147.22 153.444 149.414 153.188 151.61 152.955C153.387 152.409 157.374 151.517 157.634 154.189C157.634 154.189 155.923 154.776 153.606 155.554C150.329 156.653 145.82 158.155 143.274 159.013L143.183 159.016L132.691 161.983L115.761 161.945C115.742 161.872 115.724 161.801 115.705 161.729C116.34 161.391 116.722 161.019 116.772 160.62C117.055 158.369 117.267 155.443 117.408 151.842L117.411 151.48C112.155 154.788 107.485 157.308 103.403 159.041C100.989 160.068 98.6169 160.984 96.3087 161.788C90.9298 162.904 88.6447 159.706 88.0306 159.058C87.3106 158.299 85.8494 156.177 88.4965 143.626C88.9995 141.244 89.5255 139.089 90.0253 137.201C90.3043 137.228 90.5698 137.237 90.8086 137.237C95.9583 136.534 99.9404 137.789 104.922 137.367C104.31 139.014 103.515 140.988 102.536 143.291C107.449 141.515 112.452 139.524 117.546 137.318L117.567 135.292C118.374 135.226 119.448 135.043 120.301 134.513C120.302 134.522 120.304 134.532 120.305 134.541L120.478 136.029C122.813 134.987 125.167 133.901 127.54 132.77C127.571 132.753 127.619 132.753 127.683 132.769ZM102.052 115.606C102.514 114.326 102.968 113.195 103.451 111.848C103.449 111.847 103.448 111.846 103.447 111.845L103.893 107.951C103.85 107.706 103.659 107.803 103.447 107.736C102.896 107.58 102.419 107.095 102.037 106.648C101.339 105.8 101.224 104.565 101.562 103.426C101.986 102.331 103.087 101.505 104.104 101.594C104.485 101.639 104.845 101.795 105.184 102.019L105.205 102.041C105.311 102.153 105.459 102.175 105.607 102.197C105.967 102.197 106.264 101.929 106.285 101.55L106.475 95.7207C106.475 95.341 106.751 95.073 107.111 95.073C107.894 95.073 108.656 95.0283 109.44 94.8497C109.546 94.8497 109.631 94.8273 109.715 94.8273C110.478 94.738 114.565 94.47 116.767 97.6637C116.958 97.9763 117.148 98.289 117.296 98.6017C117.678 99.4057 117.847 100.299 117.784 101.237L117.551 105.302C117.508 105.704 117.466 106.106 117.381 106.53C116.365 111.555 114.205 115.039 112.384 115.151C111.452 115.173 110.52 115.061 109.609 114.771C109.496 114.711 109.568 114.758 108.295 114.215L108.028 115.737C109.221 115.975 110.451 116.36 111.694 116.935C111.292 117.494 110.859 118.009 110.414 118.367C105.586 122.342 94.5244 118.055 96.4341 117.235C97.3711 116.833 99.4084 115.987 102.052 115.606Z" fill="#BF865F"/>
<path opacity="0.2" d="M117.542 151.338C118.964 150.442 120.428 149.488 121.936 148.478L122.156 150.343C125.236 150.843 131.622 151.859 141.315 153.391C141.318 153.39 141.321 153.39 141.324 153.39C142.845 153.239 144.171 153.508 145.072 153.704C147.289 153.47 149.414 153.188 151.61 152.955C153.386 152.409 157.374 151.517 157.634 154.189C157.42 154.268 156.054 154.71 153.737 155.487C150.459 156.586 145.95 158.089 143.404 158.946L143.313 158.949L132.821 161.917L115.891 161.878C115.872 161.806 115.854 161.734 115.835 161.663C116.47 161.324 116.852 160.953 116.902 160.554C117.185 158.303 117.397 155.377 117.538 151.776L117.542 151.338ZM117.677 137.191L117.697 135.226C118.461 135.163 119.465 134.996 120.293 134.528L120.462 135.966C119.531 136.381 118.602 136.789 117.677 137.191Z" fill="#8C2A00"/>
<path d="M166.765 148.133C166.934 148.825 166.553 149.517 165.896 149.696L136.503 158.048C135.847 158.227 135.191 157.825 135.021 157.133C134.852 156.441 135.233 155.748 135.889 155.57L165.282 147.217C165.918 147.061 166.595 147.463 166.765 148.133Z" fill="#474961"/>
<path d="M97.1024 101.485C97.1329 100.181 97.4079 98.4485 98.4918 97.016C98.9365 96.413 99.5294 95.9663 100.165 95.6313C101.859 94.738 103.151 95.1847 106.496 95.0953C107.174 95.0953 108.169 94.9837 109.44 94.8497C110.308 94.7365 115.534 94.0324 116.767 97.6637C116.332 97.5743 115.306 97.552 114.353 97.7977C110.245 98.8697 109.038 106.374 107.153 106.061C107.135 106.059 107.116 106.055 107.096 106.051L107.111 106.039L106.2 103.403C105.988 102.867 105.628 102.443 105.205 102.086C104.866 101.862 104.506 101.706 104.125 101.661C103.108 101.572 102.007 102.398 101.584 103.493C101.181 104.587 101.372 105.815 102.113 106.664C102.579 107.222 103.214 107.602 103.913 107.736L103.966 107.735C103.832 109.406 103.631 111.651 103.432 111.958C103.116 112.834 102.815 113.599 102.516 114.382C102.089 114.345 101.711 114.307 101.414 114.28C100.482 114.19 99.1059 114.079 97.3694 113.967C97.3694 113.967 97.2424 113.967 97.1365 113.945C96.5859 113.855 96.0565 113.766 95.5271 113.476C95.5271 113.476 95.3576 113.409 95.2094 113.275C92.2235 110.684 91.5671 106.977 92.8376 104.9C93.7482 103.448 95.5271 102.89 95.7812 102.8C96.12 102.689 96.4588 102.644 96.7553 102.622C96.871 102.256 96.9867 101.871 97.1024 101.485ZM114.565 104.118C114.141 104.23 113.442 104.341 112.871 104.185C111.875 103.962 112.807 103.336 113.718 103.292C114.141 103.269 114.48 103.448 114.692 103.627C114.84 103.783 114.776 104.073 114.565 104.118ZM118.165 104.029C117.741 104.185 117.085 104.386 116.471 104.274C115.433 104.118 116.322 103.403 117.212 103.292C117.678 103.225 117.995 103.381 118.228 103.537C118.419 103.671 118.376 103.962 118.165 104.029Z" fill="#482D1F"/>
<path d="M116.598 106.843C116.407 106.575 116.471 105.972 116.534 105.57C116.555 105.279 116.809 105.101 117.042 105.101C117.191 105.123 117.381 105.212 117.424 105.525C117.572 106.262 116.852 107.289 116.598 106.843ZM113.104 106.865C112.892 106.597 112.976 105.972 113.04 105.592C113.061 105.302 113.315 105.123 113.548 105.123C113.696 105.145 113.887 105.235 113.929 105.547C114.078 106.284 113.379 107.312 113.104 106.865Z" fill="#482D1F"/>
<path d="M116.384 105.153C116.4 105.031 116.319 104.918 116.203 104.902C116.087 104.885 115.98 104.971 115.964 105.093L115.795 106.411L115.793 106.439L115.772 108.805C115.764 108.832 115.744 108.849 115.716 108.852C115.451 108.823 115.131 108.823 114.756 108.853C114.64 108.863 114.552 108.97 114.561 109.093C114.57 109.216 114.672 109.308 114.789 109.299C115.146 109.27 115.445 109.27 115.685 109.298L115.708 109.299C115.956 109.299 116.153 109.114 116.192 108.867L116.195 108.832L116.216 106.457L116.384 105.153Z" fill="#482D1F"/>
<path d="M114.522 111.019C114.374 110.997 113.993 110.907 113.908 110.662C113.908 110.617 113.866 110.55 113.887 110.505C113.951 110.394 114.607 110.394 114.607 110.394C115.475 110.416 115.687 110.371 115.751 110.483C115.772 110.55 115.772 110.639 115.624 110.84C115.433 111.22 114.734 111.086 114.522 111.019Z" fill="#482D1F"/>
<path d="M102.404 142.986C102.563 142.909 102.752 142.983 102.825 143.151C102.898 143.319 102.829 143.518 102.669 143.595L95.9564 146.856C95.7971 146.933 95.6084 146.86 95.535 146.692C95.4616 146.523 95.5313 146.324 95.6907 146.247L102.404 142.986ZM106.07 132.682C106.011 132.508 106.098 132.316 106.264 132.255C106.429 132.193 106.611 132.285 106.669 132.459C106.684 132.504 106.709 132.583 106.74 132.692C106.792 132.872 106.844 133.072 106.892 133.287C107.023 133.873 107.105 134.459 107.113 135.012C107.136 136.723 106.435 137.819 104.819 137.797C104.644 137.794 104.504 137.642 104.506 137.457C104.508 137.272 104.652 137.124 104.828 137.127C106.021 137.143 106.497 136.4 106.478 135.021C106.471 134.523 106.395 133.984 106.274 133.441C106.229 133.241 106.18 133.054 106.132 132.887C106.104 132.787 106.082 132.717 106.07 132.682Z" fill="#482D1F"/>
<path d="M108.339 114.19L106.624 113.453L107.64 117.496L108.339 114.19Z" fill="#482D1F"/>
<path d="M257.082 160.577H87.4588C86.6401 160.577 85.9765 161.277 85.9765 162.14C85.9765 163.003 86.6401 163.703 87.4588 163.703H257.082C257.901 163.703 258.565 163.003 258.565 162.14C258.565 161.277 257.901 160.577 257.082 160.577Z" fill="#D8DEED"/>
<path d="M183.604 94.0473H123.492C121.132 94.0473 119.204 91.8763 119.204 89.218V44.6251C119.204 41.9668 121.132 39.7958 123.492 39.7958H183.604C185.964 39.7958 187.892 41.9668 187.892 44.6251V89.1959C187.892 91.8763 185.964 94.0473 183.604 94.0473Z" fill="#F2F6FB"/>
<path d="M138.967 69.9125C142.115 69.9125 144.668 67.2675 144.668 64.0048C144.668 60.7421 142.115 58.0971 138.967 58.0971C135.818 58.0971 133.265 60.7421 133.265 64.0048C133.265 67.2675 135.818 69.9125 138.967 69.9125Z" fill="#FFCB3D"/>
<path d="M153.084 69.9125C156.233 69.9125 158.786 67.2675 158.786 64.0048C158.786 60.7421 156.233 58.0971 153.084 58.0971C149.935 58.0971 147.383 60.7421 147.383 64.0048C147.383 67.2675 149.935 69.9125 153.084 69.9125Z" fill="#3ABF7C"/>
<path d="M167.202 69.9125C170.351 69.9125 172.903 67.2675 172.903 64.0048C172.903 60.7421 170.351 58.0971 167.202 58.0971C164.053 58.0971 161.5 60.7421 161.5 64.0048C161.5 67.2675 164.053 69.9125 167.202 69.9125Z" fill="#A339FF"/>
<path d="M172.786 79.4774H134.468C133.879 79.4774 133.401 79.9812 133.401 80.6027C133.401 81.2241 133.879 81.7279 134.468 81.7279H172.786C173.376 81.7279 173.853 81.2241 173.853 80.6027C173.853 79.9812 173.376 79.4774 172.786 79.4774Z" fill="#E1E5F0"/>
<path d="M172.72 74.9763H134.535C133.908 74.9763 133.401 75.5116 133.401 76.1719C133.401 76.8322 133.908 77.3675 134.535 77.3675H172.72C173.346 77.3675 173.853 76.8322 173.853 76.1719C173.853 75.5116 173.346 74.9763 172.72 74.9763Z" fill="#E1E5F0"/>
<path d="M119.012 42.6245C119.012 40.9155 120.325 39.53 121.947 39.53H184.9C186.521 39.53 187.835 40.9151 187.835 42.6245V45.719H119.012V42.6245Z" fill="#E1E5F0"/>
<path d="M123.016 44.0311C123.729 44.0311 124.306 43.4328 124.306 42.6948C124.306 41.9568 123.729 41.3586 123.016 41.3586C122.304 41.3586 121.727 41.9568 121.727 42.6948C121.727 43.4328 122.304 44.0311 123.016 44.0311Z" fill="#FF5645"/>
<path d="M127.224 44.0311C127.937 44.0311 128.514 43.4328 128.514 42.6948C128.514 41.9568 127.937 41.3586 127.224 41.3586C126.512 41.3586 125.935 41.9568 125.935 42.6948C125.935 43.4328 126.512 44.0311 127.224 44.0311Z" fill="#FFCB3D"/>
<path d="M131.568 44.0311C132.281 44.0311 132.858 43.4328 132.858 42.6948C132.858 41.9568 132.281 41.3586 131.568 41.3586C130.856 41.3586 130.279 41.9568 130.279 42.6948C130.279 43.4328 130.856 44.0311 131.568 44.0311Z" fill="#3ABF7C"/>
<path d="M189.434 159.797C189.645 160.19 190.045 160.456 190.504 160.456H220.934C221.612 160.456 222.141 159.875 222.141 159.161C222.141 158.446 221.591 157.865 220.934 157.865H191.335L181.016 128.586C180.784 127.916 180.085 127.581 179.449 127.827C178.814 128.073 178.496 128.81 178.729 129.48L189.339 159.585C189.365 159.66 189.397 159.731 189.434 159.797Z" fill="#474961"/>
</svg>
