<svg width="303" height="176" viewBox="0 0 303 176" fill="none" xmlns="http://www.w3.org/2000/svg">
<ellipse cx="151.5" cy="151" rx="151.5" ry="25" fill="#E1DAFB"/>
<path d="M240.257 154.587H226.993C226.682 154.587 226.41 154.333 226.41 154.028V153.825C226.41 153.521 226.669 153.267 226.993 153.267H240.257C240.568 153.267 240.84 153.521 240.84 153.825V154.028C240.84 154.333 240.581 154.587 240.257 154.587ZM207.451 153.267C207.773 153.267 208.034 153.562 208.034 153.927C208.034 154.291 207.773 154.587 207.451 154.587H186.357C186.036 154.587 185.775 154.291 185.775 153.927C185.775 153.562 186.036 153.267 186.357 153.267H207.451Z" fill="#DE3190"/>
<path d="M207.516 153.27C207.495 153.268 207.474 153.267 207.453 153.267H186.449C186.435 153.186 186.428 153.085 186.43 152.954C186.445 152.852 186.446 152.734 186.474 152.618C186.64 151.917 186.841 151.451 187.43 151.038C188.019 150.624 188.62 150.254 189.246 149.929C191.556 148.699 192.346 148.714 193.864 147.586C194.493 147.114 195.071 146.568 195.611 145.977C195.97 145.583 196.705 144.944 197.815 144.058L207.516 144.311V153.27ZM240.306 153.269C240.291 153.267 240.275 153.267 240.259 153.267H227.038L228.21 144.963L236.907 143.835L240.306 153.269Z" fill="#474961"/>
<path d="M211.466 63.1565C211.909 62.5907 212.404 62.0677 212.948 61.5975C214.53 60.9239 217.548 60.2117 219.701 60.9892C222.22 61.8985 223.774 64.3849 223.774 64.3849C223.774 64.3849 224.144 63.9491 227.996 76.1428C230.564 84.2719 233.056 95.2876 235.472 109.19C235.703 110.746 237.038 119.527 239.476 135.53C239.478 135.544 239.48 135.557 239.482 135.57C239.584 136.371 239.094 137.115 238.386 137.232L224.897 139.445C224.248 139.551 223.631 139.09 223.462 138.372C221.779 131.242 220.87 127.345 220.733 126.68C220.438 125.352 220.148 123.849 219.848 122.127L217.488 109.195C217.465 109.069 217.42 108.663 217.354 107.974C216.253 103.398 215.311 99.4846 214.529 96.2348C213.901 98.9698 213.22 101.902 212.489 105.033C212.133 122.585 211.868 132.566 211.692 134.977C211.665 135.35 211.579 136.722 211.433 139.095C211.384 139.891 210.782 140.497 210.079 140.458L196.173 139.686C195.511 139.65 194.981 139.052 194.944 138.302C194.329 125.655 194.736 113.758 196.165 102.611C198.383 85.3109 201.735 78.2413 203.733 71.5865C203.756 71.5072 205.342 68.6611 208.491 63.0482C209.586 63.0555 210.577 63.0916 211.466 63.1565Z" fill="#FFCB3D"/>
<path opacity="0.2" d="M209.535 66.9212C208.802 69.179 208.676 71.6864 209.259 74.1112C210.074 77.5081 210.89 80.905 211.706 84.3019C211.706 84.3019 212.653 88.2372 214.547 96.1077C213.914 98.879 213.227 101.854 212.489 105.033C212.124 122.53 211.854 132.484 211.678 134.894C211.558 136.535 211.469 137.928 211.409 139.075C211.368 139.879 210.762 140.495 210.052 140.454L196.134 139.657C195.472 139.619 194.942 139.02 194.907 138.27C194.317 125.643 194.736 113.757 196.165 102.611C198.383 85.3109 201.695 78.2101 203.694 71.5553C203.712 71.4914 206.568 69.0391 209.535 66.9212Z" fill="#8C2A00"/>
<path d="M208.403 39.2039C208.683 39.0872 208.961 38.9884 209.231 38.9047L209.177 37.8047C209.169 37.6446 209.276 37.5071 209.417 37.4959L215.489 37.0169C215.631 37.0058 215.755 37.1276 215.765 37.2891L215.803 37.9103C219.115 37.4517 221.049 37.347 221.603 37.5962C226.75 39.9071 227.601 49.9405 227.574 52.9928C227.567 53.8113 226.413 54.546 224.112 55.1968C224.363 57.9712 224.51 59.5386 224.595 60.3528C224.595 60.3528 224.594 60.497 224.623 60.7102C224.696 61.3369 207.21 67.4711 207.21 67.4711C207.197 67.458 207.185 67.4592 207.185 67.4592C207.185 67.4592 206.936 67.4116 206.63 67.2403C206.477 67.1689 206.323 67.0689 206.165 66.926C204.995 65.889 204.807 63.3002 204.782 62.6688C204.767 62.4687 204.755 62.3114 204.755 62.3114C204.707 61.3694 204.589 59.4622 204.357 55.9043C203.528 56.3094 202.624 56.7214 201.645 57.1401L201.681 42.5031C201.684 41.4565 202.232 40.5104 203.078 40.0914C204.962 39.1585 206.737 38.8627 208.403 39.2039Z" fill="#DE3190"/>
<path d="M207.482 144.376L205.178 144.316L197.815 144.058L198.192 139.76L207.579 140.277L207.482 144.376ZM226.999 139.069L236.154 137.57L236.907 143.835L228.21 144.963L226.999 139.069ZM215.3 31.6278V37.0494L210.288 37.4371L210.358 36.255C209.642 36.4619 209.683 36.4376 209.614 36.4547C208.782 36.5904 208.089 36.4793 207.963 36.4352C207.504 36.337 207.056 35.8452 206.687 35.0555C206.187 34.0017 205.803 32.4056 205.691 30.5345C205.664 30.268 205.676 30.006 205.687 29.744L205.878 27.1479C205.919 26.5676 206.089 26.0026 206.395 25.5121C206.52 25.2927 206.64 25.1168 206.784 24.9728C208.332 23.1662 210.75 23.7446 211.181 23.8686C211.231 23.8892 211.283 23.8952 211.333 23.9158C211.795 24.1168 212.242 24.2134 212.691 24.2811C212.897 24.3054 213.045 24.5278 213.024 24.7593L212.664 28.4619C212.788 28.3888 214.74 27.5075 215.284 27.9521C215.733 28.3243 215.924 30.6487 215.3 31.6278ZM204.859 64.3714L204.991 64.2392C205.051 64.2392 205.085 64.2427 205.096 64.2497L215.826 58.7614L216.047 56.5494C220.797 55.9667 224.083 55.2792 225.903 54.4867C225.935 60.1754 225.565 63.4479 224.793 64.3041C223.042 66.2454 213.926 71.0426 204.801 72.3376C202.761 73.3623 199.387 74.1085 194.678 74.5762C193.335 73.6026 192.614 71.9021 192.514 69.4746L195.783 68.2003C195.651 68.1488 195.583 68.1104 195.583 68.1104C194.876 66.2789 203.838 64.6581 204.981 64.3087L204.859 64.3714ZM202.181 56.7874C197.775 59.0862 190.681 60.8341 188.784 58.3298C186.301 55.0507 185.974 46.122 187.804 31.544C183.811 30.5417 181.045 29.4522 179.507 28.2755C179.09 27.957 178.845 27.4213 178.857 26.8535C178.876 25.9313 179.554 25.2012 180.371 25.2228C184.281 25.3261 186.758 25.3176 187.804 25.1973C187.83 25.1943 187.856 25.1915 187.882 25.1888C191.053 24.8732 193.851 27.5203 194.131 31.1015L195.33 46.462L201.678 43.001L201.672 57.0073C201.844 56.9338 202.014 56.8605 202.181 56.7874Z" fill="#DB9E75"/>
<path opacity="0.176986" d="M208.305 39.1762C207.143 39.6759 205.958 40.4879 205.166 41.8071C204.938 42.1896 204.653 42.7652 204.459 43.5767C204.431 43.6947 204.402 43.7983 204.375 43.9163C204.309 44.1677 204.166 44.7004 204.052 45.2735C203.931 45.9193 203.878 47.1345 203.898 48.818L203.902 48.8609L203.932 49.5638C204.101 52.1091 204.239 54.1958 204.35 55.9004C203.527 56.3035 202.628 56.7131 201.655 57.1295L201.682 42.4976C201.684 41.4536 202.229 40.509 203.072 40.0877C204.919 39.1642 206.664 38.8603 208.305 39.1762V39.1762Z" fill="#444444"/>
<path d="M210.36 36.2893L212.345 35.7281L210.288 37.4872L210.36 36.2893Z" fill="#482D1F"/>
<path d="M214.203 32.2324L214.215 32.231C214.39 32.1637 214.904 31.9603 215.246 31.3549C215.589 30.7495 215.707 29.8973 215.345 29.1789C214.994 28.4766 214.256 28.022 213.616 28.1811C213.257 28.2705 212.996 28.548 212.968 28.574C212.574 29.0266 212.449 29.5402 212.449 29.5402L212.383 29.893C212.312 29.7732 212.247 29.6547 212.188 29.5387C211.376 28.3412 210.565 27.1291 209.754 25.9171C209.224 26.0158 208.386 26.0779 207.455 25.7326C207.129 25.6057 206.852 25.3673 206.606 25.2061C206.68 25.1121 206.753 25.0326 206.814 24.937C207.949 23.5007 210.04 23.5431 210.982 23.7723C211.096 23.8005 211.503 23.9074 212.091 24.0212C212.41 24.0884 212.667 24.119 212.82 24.1518C214.73 24.4663 215.514 24.295 216.425 24.9904C216.596 25.1134 216.983 25.4236 217.296 25.9746C218.179 27.5329 217.761 29.3627 217.645 29.9069C217.26 31.5349 216.355 32.3561 216.058 32.7467C215.464 33.5424 214.692 32.7467 214.692 32.7467C214.692 32.7467 214.493 32.5488 214.203 32.2324Z" fill="#482D1F"/>
<path d="M197.552 70.05C197.656 70.0208 197.761 70.0928 197.787 70.2108C197.813 70.3287 197.749 70.448 197.645 70.4771C196.992 70.6601 196.48 70.784 195.338 71.0459C194.201 71.3065 193.693 71.4295 193.047 71.6105C192.943 71.6397 192.838 71.5677 192.812 71.4498C192.786 71.3318 192.85 71.2126 192.954 71.1834C193.607 71.0004 194.119 70.8765 195.261 70.6146C196.398 70.354 196.906 70.231 197.552 70.05ZM199.045 72.2376C199.15 72.2158 199.252 72.295 199.271 72.4146C199.29 72.5341 199.22 72.6487 199.115 72.6705C198.393 72.8199 197.835 72.95 196.596 73.2507C195.353 73.5524 194.792 73.6831 194.065 73.8336C193.96 73.8554 193.859 73.7762 193.839 73.6567C193.82 73.5372 193.89 73.4226 193.995 73.4008C194.718 73.2513 195.275 73.1213 196.514 72.8205C197.758 72.5188 198.318 72.3881 199.045 72.2376Z" fill="#482D1F"/>
<path d="M206.462 29.8632C206.462 30.1152 206.474 30.5475 206.353 30.7311C206.166 31.0051 205.78 30.2761 205.897 29.7804C205.967 29.5866 206.057 29.5156 206.161 29.5215C206.318 29.5232 206.451 29.683 206.462 29.8632ZM209.245 30.0291C209.258 30.2837 209.269 30.7159 209.136 30.8969C208.948 31.171 208.563 30.4419 208.68 29.9462C208.75 29.7525 208.84 29.6815 208.944 29.6874C209.101 29.689 209.234 29.8489 209.245 30.0291Z" fill="#482D1F"/>
<path d="M207.605 30.1571L207.367 31.5925C207.367 31.5974 207.382 31.6228 207.389 31.624C207.458 31.6379 207.53 31.6469 207.643 31.6569C207.665 31.6589 207.688 31.6608 207.722 31.6635C207.763 31.667 207.786 31.6689 207.808 31.6707C207.883 31.677 207.945 31.6825 208.011 31.6891C208.082 31.6962 208.135 31.7673 208.129 31.848C208.122 31.9287 208.06 31.9884 207.988 31.9813C207.924 31.9749 207.863 31.9694 207.789 31.9632C207.767 31.9614 207.744 31.9595 207.703 31.9561C207.669 31.9533 207.646 31.9513 207.623 31.9494C207.503 31.9387 207.423 31.9288 207.344 31.913C207.197 31.8837 207.087 31.7062 207.113 31.5399L207.35 30.103C207.364 30.0234 207.431 29.9709 207.501 29.9859C207.572 30.0008 207.618 30.0774 207.605 30.1571Z" fill="#482D1F"/>
<path d="M211.572 30.0586C211.583 30.2257 211.575 30.397 211.548 30.5696C211.372 31.6979 210.419 32.4509 209.42 32.2521C208.579 32.0849 207.973 31.2976 207.907 30.3802L207.483 30.346C207.304 31.4706 206.353 32.2203 205.356 32.0219C204.356 31.823 203.689 30.7471 203.865 29.6185C204.041 28.4902 204.994 27.7371 205.994 27.9359C206.864 28.1091 207.483 28.9478 207.512 29.9072L207.916 29.9399C207.92 29.9096 207.924 29.8792 207.929 29.8488C208.105 28.7204 209.058 27.9674 210.058 28.1662C210.769 28.3077 211.312 28.893 211.502 29.6254L212.37 29.4849C212.476 29.4677 212.575 29.5513 212.59 29.6715C212.605 29.7918 212.531 29.9033 212.425 29.9204L211.572 30.0586ZM207.123 30.0518C207.156 29.2435 206.652 28.5137 205.926 28.3693C205.138 28.2124 204.386 28.8063 204.247 29.6952C204.108 30.5839 204.634 31.4316 205.423 31.5885C206.211 31.7454 206.963 31.1515 207.102 30.2625C207.109 30.2214 207.114 30.1804 207.117 30.1395C207.116 30.1253 207.115 30.1107 207.116 30.0958C207.117 30.0806 207.119 30.0659 207.123 30.0518ZM211.166 30.4928C211.305 29.6042 210.779 28.7564 209.99 28.5996C209.202 28.4427 208.45 29.0366 208.311 29.9255C208.172 30.8142 208.698 31.6619 209.487 31.8188C210.275 31.9757 211.027 31.3817 211.166 30.4928Z" fill="#482D1F"/>
<path d="M208.104 32.8494C208.2 32.824 208.434 32.7521 208.47 32.6108C208.474 32.582 208.494 32.5414 208.47 32.522C208.418 32.4374 208.254 32.4789 208.013 32.5051C207.587 32.539 207.251 32.5019 207.251 32.5019C207.251 32.5019 207.343 32.7573 207.41 32.8301C207.539 33.0187 207.965 32.8959 208.104 32.8494Z" fill="#482D1F"/>
<path d="M216.322 56.5301C216.295 55.2386 216.274 54.1088 216.259 53.1408C216.244 52.1726 216.222 50.5825 216.195 48.3705C216.194 48.249 216.105 48.1519 215.998 48.1536C215.891 48.1553 215.805 48.2551 215.807 48.3766C215.834 50.5891 215.855 52.1797 215.87 53.1486C215.885 54.1176 215.907 55.2482 215.934 56.5406C215.937 56.6621 216.026 56.7582 216.133 56.7553C216.24 56.7524 216.325 56.6515 216.322 56.5301Z" fill="#482D1F"/>
<path d="M133.198 157.55L133.2 157.638C133.191 157.975 132.936 158.244 132.622 158.25L110.859 158.212C110.545 158.203 110.295 157.929 110.29 157.592L110.288 157.504C110.297 157.166 110.552 156.897 110.866 156.891L132.615 156.93C132.943 156.924 133.193 157.198 133.198 157.55ZM75.2906 158.104L75.2588 158.111L62.5275 146.834C62.2945 146.629 62.2428 146.233 62.4369 145.984L62.4757 145.91C62.5922 145.749 62.7734 145.661 62.9545 145.676C63.0581 145.676 63.1487 145.72 63.2392 145.793L75.9113 156.895L82.8459 156.912C83.1435 156.907 83.3807 157.181 83.3989 157.518L83.4002 157.606C83.3925 157.943 83.1507 158.212 82.8531 158.218L75.268 158.192C75.2755 158.163 75.283 158.133 75.2906 158.104Z" fill="#FF5645"/>
<path d="M133.03 157.108C132.925 156.995 132.78 156.927 132.615 156.93L110.866 156.891C110.831 156.892 110.798 156.896 110.765 156.903L111.638 147.779L121.577 147.747C122.773 148.633 123.551 149.273 123.911 149.667C124.451 150.257 125.029 150.803 125.657 151.275C127.176 152.404 127.965 152.388 130.275 153.619C130.901 153.944 131.502 154.313 132.091 154.727C132.68 155.141 132.881 155.606 133.047 156.307C133.075 156.424 133.077 156.541 133.091 156.643C133.095 156.875 133.07 157.013 133.03 157.108ZM63.2383 145.792L67.7574 138.773L75.548 145.476L75.7809 146.356C76.6868 149.954 77.1785 151.851 77.2562 152.047C77.3496 152.275 77.4464 152.487 77.5482 152.693C78.2518 153.018 79.0508 153.335 80.2715 154.027C80.8927 154.364 81.488 154.745 82.0703 155.171C82.6527 155.596 82.8468 156.065 83.0021 156.769C83.0151 156.828 83.0216 156.887 83.0264 156.945C82.97 156.923 82.9093 156.911 82.8459 156.912L75.9112 156.895L63.2392 145.793C63.2389 145.793 63.2386 145.793 63.2383 145.792Z" fill="#474961"/>
<path d="M101.37 74.9044C101.409 74.9103 101.447 74.9174 101.486 74.9257C101.861 75.0059 102.21 75.1951 102.501 75.4745C113.702 86.2472 120.327 95.1575 122.376 102.205C123.537 106.202 124.563 116.486 125.452 133.056C125.617 136.129 123.553 138.771 120.842 138.958C120.785 138.962 120.728 138.965 120.671 138.966L112.514 139.205C109.841 139.284 107.602 136.927 107.475 133.899L106.387 108.031C104.6 105.889 103.042 104.002 101.714 102.37C101.395 104.339 100.904 106.417 100.109 109.198C98.785 113.831 93.3909 122.989 83.9266 136.671L83.5629 137.22C82.0214 139.548 79.1591 140.14 76.9918 138.578L70.9054 134.194C68.6133 132.543 67.9363 129.098 69.3932 126.5C69.4538 126.392 69.5176 126.287 69.5846 126.184L83.1394 105.339C83.4625 97.0747 84.1022 89.8448 85.0584 83.6492C86.4927 74.3558 97.2293 74.5565 101.293 74.7095C101.319 74.7732 101.345 74.8381 101.37 74.9044Z" fill="#3ABF7C"/>
<path opacity="0.176986" d="M101.362 74.9023C101.403 74.9085 101.445 74.916 101.486 74.9249C101.861 75.0052 102.21 75.1943 102.501 75.4738C113.702 86.2465 120.327 95.1568 122.376 102.205C123.537 106.201 124.563 116.485 125.452 133.056C125.617 136.128 123.553 138.77 120.842 138.957C120.785 138.961 120.728 138.964 120.671 138.966L112.514 139.205C109.841 139.283 107.602 136.926 107.475 133.898L106.388 108.03C104.601 105.889 103.044 104.003 101.716 102.372C102.303 98.7365 102.301 95.4694 102.529 88.8347C102.758 82.1611 102.369 77.5169 101.362 74.9023Z" fill="#444444"/>
<path d="M109.077 40.4817L189.891 34.0771L193.529 93.0398C193.629 94.6559 192.554 96.0576 191.128 96.1706L115.478 102.166C114.052 102.279 112.815 101.06 112.715 99.4444L109.077 40.4817Z" fill="#F2F6FB"/>
<path d="M113.407 46.6299L115.829 46.4379C115.972 46.4266 116.096 46.5484 116.106 46.7101L116.172 47.7919C116.182 47.9535 116.075 48.0936 115.932 48.1049L113.51 48.2969C113.367 48.3082 113.244 48.1864 113.234 48.0248L113.167 46.9429C113.157 46.7813 113.265 46.6412 113.407 46.6299ZM175.855 41.6809L186.358 40.8484C186.501 40.8371 186.625 40.959 186.635 41.1206L186.701 42.2024C186.711 42.364 186.604 42.5042 186.461 42.5155L175.957 43.3479C175.815 43.3592 175.691 43.2374 175.681 43.0758L175.614 41.994C175.604 41.8323 175.712 41.6922 175.855 41.6809ZM156.018 43.2529L166.522 42.4205C166.665 42.4092 166.788 42.531 166.798 42.6926L166.865 43.7744C166.875 43.936 166.768 44.0762 166.625 44.0875L156.121 44.9199C155.979 44.9313 155.855 44.8094 155.845 44.6478L155.778 43.566C155.768 43.4044 155.876 43.2642 156.018 43.2529ZM168.508 42.2631L173.869 41.8382C174.011 41.8269 174.135 41.9488 174.145 42.1104L174.212 43.1922C174.222 43.3538 174.114 43.494 173.972 43.5053L168.611 43.9302C168.468 43.9415 168.344 43.8196 168.334 43.658L168.268 42.5762C168.258 42.4146 168.365 42.2744 168.508 42.2631Z" fill="#D8DEED"/>
<path d="M132.228 51.6235L119.679 57.1874C119.343 57.3364 119.155 57.8418 119.258 58.3164L126.961 93.5569C127.065 94.0314 127.421 94.2954 127.757 94.1464L140.306 88.5824C140.642 88.4335 140.83 87.928 140.727 87.4535L133.024 52.213C132.92 51.7385 132.563 51.4745 132.228 51.6235Z" fill="#D8DEED"/>
<path d="M131.544 91.9805C132.167 91.7628 132.527 91.0372 132.347 90.3599C132.168 89.6826 131.518 89.3101 130.895 89.5278C130.271 89.7455 129.912 90.4711 130.091 91.1484C130.27 91.8257 130.921 92.1982 131.544 91.9805Z" fill="#F2F6FB"/>
<path d="M129.901 54.549L127.979 54.9496C127.785 54.99 127.66 55.1333 127.701 55.2696C127.741 55.406 127.93 55.4837 128.125 55.4432L130.047 55.0427C130.241 55.0022 130.365 54.8589 130.325 54.7226C130.285 54.5863 130.095 54.5086 129.901 54.549Z" fill="#F2F6FB"/>
<path d="M132.778 56.1473L120.842 61.265L127.19 89.3475L139.126 84.2298L132.778 56.1473Z" fill="#F2F6FB"/>
<path d="M130.936 75.0445L127.527 76.0464C127.443 76.071 127.397 76.0266 127.424 75.9472L128.797 71.9114C128.824 71.832 128.899 71.8084 128.966 71.8596L131.303 73.6652L131.717 72.4345C131.744 72.355 131.82 72.3294 131.89 72.3786L134.141 73.9771C134.209 74.0257 134.197 74.0855 134.113 74.111L132.642 74.5574L130.936 75.0445ZM131.572 71.6393C131.272 71.7274 130.966 71.5793 130.889 71.3085C130.812 71.0378 130.992 70.7468 131.292 70.6587C131.591 70.5706 131.897 70.7187 131.975 70.9895C132.052 71.2602 131.872 71.5512 131.572 71.6393Z" fill="#D8DEED"/>
<path d="M146.839 61.9887L180.117 59.3514C180.26 59.3401 180.384 59.4619 180.394 59.6235L180.563 62.3724C180.573 62.534 180.466 62.6742 180.323 62.6855L147.044 65.3228C146.902 65.3341 146.778 65.2123 146.768 65.0507L146.598 62.3018C146.589 62.1402 146.696 62 146.839 61.9887ZM147.173 67.4066L167.595 65.7882C167.737 65.7769 167.861 65.8987 167.871 66.0603L168.041 68.8092C168.051 68.9708 167.943 69.1109 167.801 69.1222L147.379 70.7407C147.236 70.752 147.112 70.6301 147.102 70.4685L146.933 67.7197C146.923 67.5581 147.03 67.4179 147.173 67.4066ZM147.507 72.8245L175.643 70.5947C175.786 70.5834 175.909 70.7052 175.919 70.8669L176.089 73.6157C176.099 73.7773 175.992 73.9175 175.849 73.9288L147.713 76.1586C147.57 76.1699 147.447 76.048 147.437 75.8864L147.267 73.1376C147.257 72.976 147.365 72.8358 147.507 72.8245Z" fill="#E1E5F0"/>
<path d="M173.906 54.3993L146.504 56.5708C146.362 56.5821 146.254 56.7223 146.264 56.8839L146.434 59.6328C146.444 59.7944 146.568 59.9162 146.71 59.9049L174.111 57.7334C174.254 57.7221 174.362 57.5819 174.352 57.4203L174.182 54.6714C174.172 54.5098 174.048 54.388 173.906 54.3993Z" fill="#D8DEED"/>
<path d="M150.233 81.4032L163.712 80.335C164.529 80.2703 164.856 80.3467 165.183 80.513C165.511 80.6792 165.776 80.9403 165.967 81.2846C166.157 81.6288 166.27 81.9852 166.327 82.911L166.397 84.0398C166.454 84.9656 166.386 85.3363 166.24 85.7073C166.093 86.0783 165.862 86.3786 165.559 86.5949C165.255 86.8112 164.94 86.9384 164.124 87.0032L150.644 88.0714C149.827 88.1362 149.5 88.0597 149.173 87.8934C148.846 87.7272 148.581 87.4661 148.39 87.1219C148.199 86.7776 148.087 86.4212 148.03 85.4954L147.96 84.3666C147.903 83.4408 147.97 83.0702 148.117 82.6992C148.264 82.3281 148.494 82.0278 148.798 81.8115C149.102 81.5953 149.416 81.468 150.233 81.4032Z" fill="#474BFF"/>
<path d="M108.833 36.5314C108.734 34.9153 109.809 33.5135 111.236 33.4004L186.884 27.4053C188.311 27.2922 189.548 28.5113 189.648 30.1269L189.909 34.3697L109.095 40.7743L108.833 36.5314Z" fill="#E1E5F0"/>
<path d="M113.173 38.5398C113.922 38.4805 114.486 37.7446 114.434 36.8961C114.382 36.0477 113.732 35.408 112.984 35.4673C112.235 35.5266 111.671 36.2625 111.723 37.111C111.775 37.9594 112.425 38.5991 113.173 38.5398Z" fill="#FF5645"/>
<path d="M117.692 38.1817C118.44 38.1224 119.005 37.3865 118.952 36.538C118.9 35.6896 118.251 35.0499 117.502 35.1092C116.753 35.1685 116.189 35.9044 116.241 36.7529C116.294 37.6013 116.943 38.241 117.692 38.1817Z" fill="#FFCB3D"/>
<path d="M122.339 37.8134C123.088 37.754 123.652 37.0181 123.6 36.1697C123.548 35.3212 122.898 34.6815 122.15 34.7409C121.401 34.8002 120.837 35.5361 120.889 36.3845C120.941 37.233 121.591 37.8727 122.339 37.8134Z" fill="#3ABF7C"/>
<path d="M84.8242 63.1425L83.3928 63.4423C83.3393 63.4535 83.2848 63.4583 83.2304 63.4566C82.8017 63.4433 82.4637 63.0386 82.4755 62.5528C82.59 57.8261 83.0104 54.7422 83.7368 53.3011C83.9494 52.8792 84.2233 52.5392 84.5401 52.276C85.8354 50.8827 88.0395 50.0973 90.6681 49.5904L91.3945 49.4452C92.5181 49.2292 93.6004 49.2454 94.6053 49.4503C95.8591 49.5046 97.4026 49.8343 98.8063 50.8831C99.0289 51.0471 99.5041 51.3989 100.028 51.9793C100.028 51.9793 101.056 53.0992 102.399 56.9117C102.554 57.3637 102.78 58.1145 103.077 59.1642C103.186 59.5499 102.998 59.9627 102.658 60.0862C102.635 60.0946 102.611 60.1016 102.587 60.107L100.96 60.4745L101.388 66.4663C101.4 66.6277 101.41 66.7747 101.435 66.9336C101.539 67.6872 101.543 68.6396 101.114 69.5147C100.499 70.7992 99.5225 72.6325 94.4157 73.5935C89.6657 74.4831 88.2843 73.121 87.3488 72.1761C86.6794 71.5056 86.3984 70.4597 86.2733 69.74C86.2486 69.5811 86.2134 69.4393 86.1759 69.2829L84.8242 63.1425Z" fill="#FF5645"/>
<path opacity="0.176986" d="M94.5826 49.4479C97.1025 49.9543 99.1379 51.6464 100.119 53.8394C100.44 54.5497 100.604 55.3509 100.649 56.1462L100.958 60.4746L102.581 60.1166C102.605 60.1113 102.628 60.1045 102.652 60.0961C102.993 59.9742 103.182 59.5623 103.074 59.176C102.779 58.1189 102.554 57.3641 102.399 56.9116C101.056 53.0992 100.028 51.9792 100.028 51.9792C99.5041 51.3989 99.0289 51.0471 98.8063 50.883C97.3804 49.8178 95.8395 49.4943 94.5826 49.4479Z" fill="#444444"/>
<path d="M112.11 139.216C112.255 139.226 112.401 139.229 112.548 139.224L120.704 138.985C120.762 138.984 120.819 138.981 120.876 138.977C121.359 138.944 121.822 138.832 122.255 138.654L121.433 147.823H111.638L112.11 139.216ZM78.6368 139.345L75.548 145.476L67.7574 138.773L70.537 133.891C70.6649 134.004 70.799 134.112 70.9391 134.213L77.0256 138.597C77.5331 138.963 78.0788 139.211 78.6368 139.345ZM107.404 71.2233L109.285 71.4598C110.086 70.9815 117.385 66.6899 117.861 68.7713C117.861 68.7713 117.829 68.8471 117.755 68.9772L121.153 67.6587C123.027 70.6316 121.441 75.2787 121.416 75.2949C117.079 77.4512 113.824 78.5968 111.649 78.7318C111.398 78.7474 111.174 78.7293 110.976 78.6775C110.973 78.7045 110.969 78.7316 110.966 78.7589C104.105 79.6916 96.9126 79.3463 89.3884 77.723C87.5781 77.3325 85.5754 72.5572 83.3803 63.3972C83.4016 63.3947 83.4227 63.3913 83.4437 63.3869L91.8897 61.6176C91.9653 61.6018 92.0362 61.5741 92.1013 61.5365L94.1822 69.5601L100.578 70.3645C100.787 70.0448 100.939 69.7365 101.074 69.4546C101.503 68.5796 101.5 67.6272 101.396 66.8735C101.371 66.7147 101.361 66.5677 101.349 66.4063L100.91 60.2688L102.541 59.9427C102.576 59.9358 102.61 59.9258 102.643 59.9127C102.687 59.895 102.729 59.8724 102.768 59.8455L104.513 63.9323C105.962 63.0235 110.181 57.0817 110.181 57.0817C110.181 57.0817 110.406 60.4547 110.854 67.2007L107.404 71.2233ZM93.6025 47.8339L93.7507 49.2282C96.3768 49.3498 97.5704 50.5069 97.9726 51.0114C97.9726 51.0114 95.2019 51.5848 89.6603 52.7316C88.1659 51.3737 85.9416 51.0658 84.5598 52.2469C85.327 51.4046 86.6522 50.6798 88.5354 50.0722C89.028 49.9133 89.4971 49.7798 89.9435 49.6691L89.4609 44.4684C89.4328 44.4504 89.4047 44.4313 89.3767 44.4111C88.872 44.0329 88.4911 43.3286 88.5636 42.5019C88.6245 41.7394 89.1283 40.6902 89.7417 40.5646C90.0859 40.4905 91.0468 40.8216 90.9789 40.4778C90.9337 40.2486 90.6687 39.0333 90.184 36.832C90.1429 36.6016 90.2618 36.3681 90.4618 36.3073C90.9152 36.1848 91.3637 36.1549 91.8085 35.8832C91.8585 35.868 91.9052 35.8387 91.9552 35.8235C92.3668 35.6377 94.6581 34.5623 96.4078 36.1264C96.5572 36.248 96.7041 36.416 96.8543 36.5981C97.2091 37.0219 97.443 37.5582 97.552 38.1324L98.0515 40.6987C98.0868 40.9613 98.1346 41.2201 98.1449 41.4903C98.3351 44.7882 97.6226 47.3277 96.5926 47.7316C96.471 47.7837 95.7993 48.0029 94.9549 48.0012C94.8732 47.9956 94.9457 48.0191 93.7818 47.8563C93.7204 47.8489 93.6606 47.8414 93.6025 47.8339Z" fill="#F2A98A"/>
<path opacity="0.2" d="M107.306 71.3029L110.854 67.2213C110.406 60.4616 110.181 57.0817 110.181 57.0817C110.181 57.0817 105.962 63.0235 104.513 63.9323L102.802 59.9783C102.756 60.0145 102.704 60.0443 102.649 60.0664C102.616 60.0795 102.582 60.0896 102.547 60.0965L100.916 60.4225L101.355 66.56C101.367 66.7214 101.377 66.8684 101.401 67.0273C101.505 67.7809 101.509 68.7334 101.08 69.6084C100.953 69.8737 100.811 70.1624 100.62 70.4619L107.306 71.3029Z" fill="#8C2A00"/>
<path d="M117.289 71.3453C117.929 71.1368 118.423 70.9563 119.524 70.5392C120.63 70.1202 121.128 69.9383 121.775 69.7276C121.878 69.694 121.986 69.7615 122.015 69.8783C122.045 69.9951 121.986 70.1169 121.882 70.1505C121.242 70.3589 120.748 70.5395 119.647 70.9565C118.541 71.3755 118.043 71.5574 117.396 71.7682C117.293 71.8017 117.185 71.7342 117.156 71.6175C117.126 71.5007 117.186 71.3788 117.289 71.3453ZM116.95 74.365C117.647 74.0841 118.19 73.8807 119.401 73.4392C120.608 72.999 121.149 72.7966 121.841 72.5177C121.942 72.477 122.053 72.5368 122.089 72.6512C122.125 72.7657 122.072 72.8915 121.971 72.9322C121.274 73.2131 120.731 73.4166 119.52 73.858C118.313 74.2982 117.772 74.5006 117.08 74.7795C116.979 74.8203 116.868 74.7605 116.832 74.646C116.796 74.5315 116.849 74.4057 116.95 74.365Z" fill="#482D1F"/>
<path d="M85.6676 40.6269C85.6572 40.0604 85.7378 39.4419 85.9946 38.833C86.2399 38.2271 86.5955 37.861 86.747 37.7087C87.5823 36.8781 88.3868 36.9374 90.2767 36.3179C90.6734 36.1823 91.2576 35.9897 91.9375 35.6922C91.9908 35.6911 92.0375 35.6618 92.0875 35.6466C92.4991 35.4609 94.7565 34.6387 96.4145 36.1547C96.4212 36.183 96.6714 36.3348 96.669 36.3811C96.669 36.3811 94.9445 40.5943 91.3404 41.4534C91.2439 41.3356 90.9883 41.0566 90.605 40.8798C90.5608 40.8628 90.2481 40.73 89.9039 40.8042C89.2904 40.9297 88.7927 41.6579 88.7318 42.4204C88.6526 43.2188 89.0302 43.9089 89.5224 44.2909C90.0146 44.6728 90.5448 44.6485 90.7173 44.6416L90.9198 44.5754C91.0947 44.9549 91.2164 45.3637 91.0752 45.6756C90.8024 46.2781 90.2946 46.626 89.5518 46.7192C88.8648 47.7047 87.7413 48.3924 86.4378 48.4957C84.1919 48.6737 82.2622 47.0493 82.1275 44.8676C81.9986 42.7784 83.5626 40.9357 85.6676 40.6269ZM98.2178 39.9233C97.9904 40.0379 97.6004 40.2019 97.2169 40.1665C96.62 40.1352 97.1021 39.6244 97.6213 39.4971C97.8747 39.4353 98.0957 39.52 98.235 39.5992C98.3459 39.6718 98.3361 39.857 98.2178 39.9233ZM95.7928 40.6597C95.5528 40.7781 95.1629 40.9421 94.7669 40.9105C94.1733 40.8934 94.6521 40.3684 95.1713 40.2411C95.4371 40.1755 95.6581 40.2603 95.7974 40.3394C95.9209 40.4082 95.9111 40.5934 95.7928 40.6597Z" fill="#482D1F"/>
<path d="M97.5382 41.2989C97.523 41.1213 97.6179 40.9558 97.7679 40.9103C97.8679 40.8799 97.9688 40.91 98.0532 41.0969C98.2479 41.5237 98.0144 42.2931 97.7916 42.0874C97.6265 41.9554 97.5702 41.5473 97.5382 41.2989ZM95.2931 41.8896C95.2779 41.712 95.3728 41.5465 95.5228 41.501C95.6228 41.4706 95.7237 41.5007 95.8081 41.6876C96.0027 42.1144 95.7693 42.8838 95.5465 42.6781C95.3813 42.5461 95.3125 42.1418 95.2931 41.8896Z" fill="#482D1F"/>
<path d="M96.5947 44.5615C96.5005 44.5597 96.2679 44.5393 96.1936 44.3948C96.1869 44.3665 96.1643 44.3278 96.1701 44.2956C96.2 44.1955 96.3726 44.1886 96.6043 44.1486C97.0144 44.0696 97.3293 43.9284 97.3293 43.9284C97.3293 43.9284 97.2963 44.2421 97.2506 44.332C97.1791 44.5966 96.7423 44.5622 96.5947 44.5615Z" fill="#482D1F"/>
<path d="M96.9139 41.604L97.4188 43.0643L97.4234 43.0799C97.4599 43.2345 97.4005 43.4064 97.2705 43.4735C97.2462 43.4838 97.2325 43.4892 97.2188 43.4944C97.0889 43.5443 96.9943 43.5746 96.6537 43.678C96.5847 43.699 96.5137 43.6526 96.4952 43.5743C96.4767 43.4961 96.5177 43.4157 96.5867 43.3947C96.9213 43.2931 97.0132 43.2637 97.1357 43.2166C97.1484 43.2117 97.1612 43.2067 97.1739 43.2016C97.1711 43.2025 97.1777 43.1829 97.1744 43.1615L96.6695 41.7011L96.6639 41.6807L96.4913 40.8372C96.4751 40.7583 96.5185 40.6795 96.5881 40.6612C96.6577 40.6429 96.7273 40.6921 96.7434 40.771L96.9139 41.604Z" fill="#482D1F"/>
<path d="M92.2704 61.4778C91.9557 60.1051 91.6198 58.6781 91.2625 57.1968C91.2342 57.0796 91.1275 57.0106 91.0241 57.0426C90.9207 57.0747 90.8598 57.1957 90.888 57.3129C91.2449 58.7923 91.5804 60.2175 91.8946 61.5884C91.9216 61.706 92.0275 61.7766 92.1313 61.746C92.2351 61.7155 92.2973 61.5954 92.2704 61.4778Z" fill="#482D1F"/>
</svg>
