<svg width="18" height="20" viewBox="0 0 18 20" fill="none" xmlns="http://www.w3.org/2000/svg">
<g clip-path="url(#clip0_3_552)">
<path d="M17.7491 5.88333C17.7489 5.54792 17.6772 5.25153 17.5321 4.99715C17.3896 4.74701 17.1762 4.53736 16.89 4.3716C14.5271 3.00917 12.162 1.6509 9.7999 0.287084C9.1631 -0.0805554 8.54567 -0.0671526 7.91358 0.305764C6.9731 0.860417 2.26442 3.55813 0.86129 4.37083C0.283443 4.70535 0.00226237 5.21729 0.00212348 5.88271C0.0012207 8.62264 0.00212348 11.3625 0.0012207 14.1025C0.00135959 14.4306 0.0700401 14.7212 0.208721 14.9717C0.35129 15.2294 0.567679 15.4449 0.860526 15.6144C2.26372 16.4271 6.97303 19.1246 7.9133 19.6794C8.54567 20.0525 9.1631 20.0658 9.80011 19.6981C12.1623 18.3342 14.5275 16.976 16.8907 15.6135C17.1836 15.4441 17.4 15.2285 17.5425 14.971C17.681 14.7205 17.7498 14.4299 17.75 14.1017C17.75 14.1017 17.75 8.62333 17.7491 5.88333Z" fill="#5C8DBC"/>
<path d="M8.90252 9.9659L0.208496 14.9717C0.351066 15.2294 0.567454 15.4449 0.860302 15.6144C2.2635 16.4271 6.9728 19.1246 7.91308 19.6794C8.54544 20.0525 9.16287 20.0658 9.79988 19.6981C12.162 18.3342 14.5273 16.976 16.8905 15.6135C17.1834 15.4441 17.3997 15.2285 17.5423 14.971L8.90252 9.9659Z" fill="#1A4674"/>
<path d="M6.32764 11.4487C6.83354 12.3319 7.78458 12.9276 8.87555 12.9276C9.97326 12.9276 10.9297 12.3243 11.4331 11.4317L8.90271 9.9659L6.32764 11.4487Z" fill="#1A4674"/>
<path d="M17.7489 5.88333C17.7488 5.54791 17.677 5.25152 17.532 4.99715L8.90259 9.9659L17.5424 14.971C17.6809 14.7205 17.7497 14.4299 17.7498 14.1017C17.7498 14.1017 17.7498 8.62333 17.7489 5.88333Z" fill="#1B598E"/>
<path d="M17.2738 10.3237H16.5987V10.999H15.9234V10.3237H15.2483V9.64862H15.9234V8.97348H16.5987V9.64862H17.2738V10.3237ZM14.8103 10.3237H14.1352V10.999H13.4601V10.3237H12.7849V9.64862H13.4601V8.97348H14.1352V9.64862H14.8103V10.3237Z" fill="white"/>
<path d="M11.433 11.4317C10.9297 12.3243 9.97325 12.9276 8.87554 12.9276C7.78457 12.9276 6.83353 12.3319 6.32763 11.4487C6.07348 11.0055 5.94002 10.5034 5.94054 9.99257C5.94054 8.37167 7.25464 7.05764 8.87554 7.05764C9.9595 7.05764 10.9055 7.6459 11.4139 8.52007L13.9793 7.04285C12.9596 5.28271 11.056 4.09854 8.87554 4.09854C5.62027 4.09854 2.98145 6.73743 2.98145 9.99257C2.98145 11.0605 3.26554 12.0619 3.76207 12.9258C4.77915 14.6952 6.68825 15.8867 8.87554 15.8867C11.0669 15.8867 12.9789 14.6904 13.9946 12.9158L11.433 11.4317Z" fill="white"/>
</g>
<defs>
<clipPath id="clip0_3_552">
<rect width="17.78" height="20" fill="white"/>
</clipPath>
</defs>
</svg>
