<svg width="20" height="20" viewBox="0 0 20 20" fill="none" xmlns="http://www.w3.org/2000/svg">
<path d="M10 9.625C10 9.625 9.46875 6.28125 9.46875 6.03125C9.46875 5.78125 9.71875 5.625 10 5.625C10.2812 5.625 10.5313 5.8125 10.5313 6.0625C10.5313 6.3125 10 9.625 10 9.625ZM10 10.4062C10 10.4062 10.5313 13.75 10.5313 14C10.5313 14.2187 10.2812 14.4375 10 14.4375C9.71875 14.4375 9.46875 14.25 9.46875 14C9.46875 13.75 10 10.4062 10 10.4062ZM9.59375 10C9.59375 10 6.25 10.5313 6 10.5313C5.78125 10.5313 5.5625 10.2812 5.5625 10C5.5625 9.71875 5.75 9.46875 6 9.46875C6.25 9.46875 9.59375 10 9.59375 10ZM10.4062 10C10.4062 10 13.75 9.46875 14 9.46875C14.2187 9.46875 14.4375 9.71875 14.4375 10C14.4375 10.2812 14.25 10.5313 14 10.5313C13.75 10.5313 10.4062 10 10.4062 10ZM9.71875 9.71875C9.71875 9.71875 6.96875 7.71875 6.8125 7.5625C6.65625 7.40625 6.6875 7.09375 6.90625 6.875C7.125 6.65625 7.40625 6.625 7.59375 6.78125C7.71875 7 9.71875 9.71875 9.71875 9.71875ZM10.2813 10.2813C10.2813 10.2813 13.0312 12.2812 13.1875 12.4375C13.3437 12.5937 13.3125 12.9063 13.0937 13.125C12.875 13.3437 12.5937 13.375 12.4062 13.2187C12.2812 13.0312 10.2813 10.2813 10.2813 10.2813V10.2813ZM9.71875 10.2813C9.71875 10.2813 7.71875 13.0313 7.5625 13.1875C7.40625 13.3438 7.09375 13.3125 6.875 13.0938C6.65625 12.875 6.625 12.5938 6.78125 12.4063C6.96875 12.2813 9.71875 10.2813 9.71875 10.2813V10.2813ZM10.2813 9.71875C10.2813 9.71875 12.2812 6.96875 12.4375 6.8125C12.5937 6.65625 12.9062 6.6875 13.125 6.90625C13.3437 7.125 13.375 7.40625 13.2187 7.59375C13.0312 7.75 10.2813 9.71875 10.2813 9.71875Z" fill="#6ADBC6"/>
<path d="M9.75005 9.34376C9.75005 9.34376 7.00005 3.93751 6.8438 3.56251C6.68755 3.18751 6.7813 2.78126 7.06255 2.65626C7.3438 2.53126 7.68755 2.78127 7.8438 3.15627C8.00005 3.53127 9.75005 9.34376 9.75005 9.34376V9.34376ZM10.25 10.6563C10.25 10.6563 13 16.0625 13.1563 16.4375C13.3125 16.8125 13.2188 17.2188 12.9375 17.3438C12.6563 17.4688 12.3125 17.2188 12.1563 16.8438C12 16.4688 10.25 10.6563 10.25 10.6563V10.6563ZM9.3438 10.2813C9.3438 10.2813 3.93755 13.0313 3.56255 13.1875C3.18755 13.3438 2.7813 13.25 2.6563 12.9688C2.5313 12.6875 2.7813 12.3438 3.1563 12.1875C3.56255 12.0313 9.3438 10.2813 9.3438 10.2813V10.2813ZM10.6563 9.75002C10.6563 9.75002 16.0625 7.00001 16.4375 6.84376C16.8125 6.68751 17.2188 6.78127 17.3438 7.06252C17.4688 7.34377 17.2188 7.68752 16.8438 7.84377L10.6563 9.75002V9.75002ZM9.3438 9.71877C9.3438 9.71877 3.5938 7.84377 3.18755 7.68752C2.7813 7.53127 2.5938 7.18752 2.7188 6.90627C2.8438 6.62502 3.25005 6.56251 3.62505 6.71876C4.00005 6.87501 9.3438 9.71877 9.3438 9.71877V9.71877ZM10.6563 10.2813C10.6563 10.2813 16.4063 12.1563 16.8125 12.3125C17.1875 12.4688 17.4063 12.8438 17.3125 13.0938C17.1875 13.375 16.7813 13.4375 16.4063 13.2813C16 13.125 10.6563 10.2813 10.6563 10.2813ZM9.7188 10.6563C9.7188 10.6563 7.8438 16.4063 7.68755 16.8125C7.5313 17.1875 7.1563 17.4063 6.9063 17.3125C6.62505 17.1875 6.56255 16.7813 6.7188 16.4063C6.87505 16 9.7188 10.6563 9.7188 10.6563V10.6563ZM10.2813 9.37501C10.2813 9.37501 12.1563 3.62502 12.3125 3.21877C12.4688 2.81252 12.8125 2.59376 13.0938 2.71876C13.375 2.84376 13.4375 3.25002 13.2813 3.62502C13.125 4.03127 10.2813 9.37501 10.2813 9.37501" fill="#FFCE31"/>
<path d="M10 14.7187C10 14.7187 10.5313 18.625 10.5313 18.9062C10.5313 19.1875 10.2812 19.4062 10 19.4062C9.71875 19.4062 9.46875 19.1875 9.46875 18.9062C9.46875 18.625 10 14.7187 10 14.7187ZM10 5C10 5 9.46875 1.34375 9.46875 1.09375C9.46875 0.84375 9.6875 0.625 10 0.625C10.3125 0.625 10.5313 0.84375 10.5313 1.09375C10.5313 1.34375 10 5 10 5ZM13.3438 13.3438C13.3438 13.3438 16.4688 15.7188 16.6875 15.9063C16.875 16.0938 16.875 16.4375 16.6562 16.625C16.4375 16.8125 16.125 16.8437 15.9375 16.6562C15.7188 16.4687 13.3438 13.3438 13.3438 13.3438ZM6.46875 6.46875C6.46875 6.46875 3.5 4.28125 3.34375 4.09375C3.15625 3.90625 3.1875 3.59375 3.40625 3.375C3.625 3.15625 3.9375 3.15625 4.125 3.3125C4.25 3.5 6.46875 6.46875 6.46875 6.46875ZM13.3438 6.65625C13.3438 6.65625 15.7188 3.53125 15.9063 3.3125C16.0938 3.125 16.4375 3.125 16.625 3.34375C16.8438 3.5625 16.8437 3.875 16.6562 4.0625C16.4687 4.28125 13.3438 6.65625 13.3438 6.65625ZM6.46875 13.5312C6.46875 13.5312 4.28125 16.5 4.09375 16.6562C3.90625 16.8437 3.59375 16.8125 3.375 16.5937C3.15625 16.375 3.125 16.0938 3.3125 15.9375C3.5 15.75 6.46875 13.5312 6.46875 13.5312V13.5312ZM14.7187 10C14.7187 10 18.625 9.46875 18.9062 9.46875C19.1875 9.46875 19.375 9.6875 19.375 10C19.375 10.2812 19.1563 10.5313 18.875 10.5313C18.625 10.5313 14.7187 10 14.7187 10V10ZM5 10C5 10 1.34375 10.5313 1.09375 10.5313C0.84375 10.5313 0.625 10.3125 0.625 10C0.625 9.6875 0.84375 9.46875 1.09375 9.46875C1.34375 9.46875 5 10 5 10Z" fill="#42ADE2"/>
<path d="M6.46875 2.15625C6.77941 2.15625 7.03125 1.90441 7.03125 1.59375C7.03125 1.28309 6.77941 1.03125 6.46875 1.03125C6.15809 1.03125 5.90625 1.28309 5.90625 1.59375C5.90625 1.90441 6.15809 2.15625 6.46875 2.15625Z" fill="#42ADE2"/>
<path d="M13.5937 2.15625C13.9044 2.15625 14.1562 1.90441 14.1562 1.59375C14.1562 1.28309 13.9044 1.03125 13.5937 1.03125C13.2831 1.03125 13.0312 1.28309 13.0312 1.59375C13.0312 1.90441 13.2831 2.15625 13.5937 2.15625Z" fill="#42ADE2"/>
<path d="M6.3125 19C6.62316 19 6.875 18.7482 6.875 18.4375C6.875 18.1268 6.62316 17.875 6.3125 17.875C6.00184 17.875 5.75 18.1268 5.75 18.4375C5.75 18.7482 6.00184 19 6.3125 19Z" fill="#42ADE2"/>
<path d="M13.4375 19C13.7482 19 14 18.7482 14 18.4375C14 18.1268 13.7482 17.875 13.4375 17.875C13.1268 17.875 12.875 18.1268 12.875 18.4375C12.875 18.7482 13.1268 19 13.4375 19Z" fill="#42ADE2"/>
<path d="M1.53125 14.0625C1.84191 14.0625 2.09375 13.8107 2.09375 13.5C2.09375 13.1893 1.84191 12.9375 1.53125 12.9375C1.22059 12.9375 0.96875 13.1893 0.96875 13.5C0.96875 13.8107 1.22059 14.0625 1.53125 14.0625Z" fill="#42ADE2"/>
<path d="M1.53125 6.9375C1.84191 6.9375 2.09375 6.68566 2.09375 6.375C2.09375 6.06434 1.84191 5.8125 1.53125 5.8125C1.22059 5.8125 0.96875 6.06434 0.96875 6.375C0.96875 6.68566 1.22059 6.9375 1.53125 6.9375Z" fill="#42ADE2"/>
<path d="M18.375 14.2187C18.6857 14.2187 18.9375 13.9669 18.9375 13.6562C18.9375 13.3456 18.6857 13.0938 18.375 13.0938C18.0643 13.0938 17.8125 13.3456 17.8125 13.6562C17.8125 13.9669 18.0643 14.2187 18.375 14.2187Z" fill="#42ADE2"/>
<path d="M18.375 7.09375C18.6857 7.09375 18.9375 6.84191 18.9375 6.53125C18.9375 6.22059 18.6857 5.96875 18.375 5.96875C18.0643 5.96875 17.8125 6.22059 17.8125 6.53125C17.8125 6.84191 18.0643 7.09375 18.375 7.09375Z" fill="#42ADE2"/>
</svg>
