<svg width="18" height="23" viewBox="0 0 18 23" fill="none" xmlns="http://www.w3.org/2000/svg">
<path d="M5.80513 17.78C5.80513 17.78 4.87729 18.2902 6.46547 18.4628C8.38955 18.6703 9.37286 18.6406 11.4932 18.2611C11.4932 18.2611 12.0507 18.5916 12.8292 18.8779C8.07601 20.8042 2.07169 18.7663 5.80513 17.78ZM5.2243 15.2663C5.2243 15.2663 4.18362 15.9948 5.773 16.1502C7.82833 16.3507 9.45146 16.3671 12.2601 15.8557C12.2601 15.8557 12.6486 16.2281 13.2595 16.4318C7.51254 18.0208 1.11152 16.5571 5.2243 15.2663Z" fill="#5382A1"/>
<path d="M10.1206 11.0024C11.2919 12.2774 9.81292 13.4248 9.81292 13.4248C9.81292 13.4248 12.7867 11.9732 11.421 10.1554C10.1454 8.46028 9.1672 7.61793 14.4628 4.71394C14.4628 4.71394 6.15049 6.67692 10.1206 11.0024" fill="#E76F00"/>
<path d="M16.4074 19.6392C16.4074 19.6392 17.094 20.1741 15.6511 20.588C12.9075 21.3739 4.2319 21.6112 1.82183 20.6193C0.955502 20.263 2.58017 19.7684 3.09119 19.6646C3.62415 19.5553 3.92876 19.5757 3.92876 19.5757C2.96528 18.9339 -2.29876 20.8359 1.25492 21.3805C10.9462 22.8666 18.9211 20.7114 16.4074 19.6392ZM6.25132 12.662C6.25132 12.662 1.83842 13.6531 4.68865 14.0129C5.89207 14.1653 8.29111 14.1308 10.5258 13.9537C12.3521 13.8082 14.1859 13.4984 14.1859 13.4984C14.1859 13.4984 13.5419 13.7592 13.076 14.06C8.59475 15.1744 -0.0623236 14.656 2.42994 13.516C4.53765 12.5527 6.25139 12.662 6.25139 12.662H6.25132ZM14.1677 16.846C18.7232 14.6077 16.6169 12.4567 15.1468 12.7465C14.7864 12.8174 14.6258 12.8788 14.6258 12.8788C14.6258 12.8788 14.7596 12.6807 15.015 12.595C17.9234 11.6281 20.1602 15.4465 14.0762 16.9588C14.0762 16.9588 14.1467 16.8993 14.1677 16.846Z" fill="#5382A1"/>
<path d="M11.4211 0.0246636C11.4211 0.0246636 13.944 2.41108 9.02822 6.08051C5.08635 9.02411 8.12935 10.7024 9.02661 12.62C6.72564 10.657 5.037 8.92899 6.16991 7.32071C7.83261 4.95976 12.439 3.81514 11.4211 0.0245972" fill="#E76F00"/>
<path d="M6.69887 22.9113C11.0715 23.176 17.7863 22.7644 17.9453 20.808C17.9453 20.808 17.6396 21.5497 14.3315 22.1387C10.5993 22.8028 5.99627 22.7253 3.26611 22.2996C3.26618 22.2996 3.82501 22.737 6.69894 22.9113" fill="#5382A1"/>
</svg>
