<svg width="360" height="270" viewBox="0 0 360 270" fill="none" xmlns="http://www.w3.org/2000/svg">
<path d="M204.571 32.85H108.847C106.508 32.85 104.612 34.8647 104.612 37.35V111.6C104.612 114.085 106.508 116.1 108.847 116.1H204.571C206.91 116.1 208.806 114.085 208.806 111.6V37.35C208.806 34.8647 206.91 32.85 204.571 32.85Z" fill="#F2F6FB"/>
<path d="M104.612 37.3514C104.612 34.8653 106.507 32.85 108.846 32.85H204.778C207.116 32.85 209.012 34.8643 209.012 37.3514V42.2665H104.612V37.3514Z" fill="#E1E5F0"/>
<path d="M110.686 39.6983C111.767 39.6983 112.643 38.7881 112.643 37.6652C112.643 36.5424 111.767 35.6321 110.686 35.6321C109.606 35.6321 108.73 36.5424 108.73 37.6652C108.73 38.7881 109.606 39.6983 110.686 39.6983Z" fill="#FF5645"/>
<path d="M117.07 39.6983C118.15 39.6983 119.026 38.7881 119.026 37.6652C119.026 36.5424 118.15 35.6321 117.07 35.6321C115.989 35.6321 115.114 36.5424 115.114 37.6652C115.114 38.7881 115.989 39.6983 117.07 39.6983Z" fill="#FFCB3D"/>
<path d="M123.659 39.6983C124.739 39.6983 125.615 38.7881 125.615 37.6652C125.615 36.5424 124.739 35.6321 123.659 35.6321C122.579 35.6321 121.703 36.5424 121.703 37.6652C121.703 38.7881 122.579 39.6983 123.659 39.6983Z" fill="#3ABF7C"/>
<path d="M109.771 48.6219H112.713C112.947 48.6219 113.137 48.8234 113.137 49.0719V50.1434C113.137 50.3919 112.947 50.5934 112.713 50.5934H109.771C109.537 50.5934 109.348 50.3919 109.348 50.1434V49.0719C109.348 48.8234 109.537 48.6219 109.771 48.6219ZM190.285 48.6219H203.646C203.88 48.6219 204.07 48.8234 204.07 49.0719V50.1434C204.07 50.3919 203.88 50.5934 203.646 50.5934H190.285C190.051 50.5934 189.861 50.3919 189.861 50.1434V49.0719C189.861 48.8234 190.051 48.6219 190.285 48.6219ZM164.71 48.6219H178.071C178.305 48.6219 178.495 48.8234 178.495 49.0719V50.1434C178.495 50.3919 178.305 50.5934 178.071 50.5934H164.71C164.476 50.5934 164.287 50.3919 164.287 50.1434V49.0719C164.287 48.8234 164.476 48.6219 164.71 48.6219ZM180.813 48.6219H187.543C187.777 48.6219 187.967 48.8234 187.967 49.0719V50.1434C187.967 50.3919 187.777 50.5934 187.543 50.5934H180.813C180.579 50.5934 180.389 50.3919 180.389 50.1434V49.0719C180.389 48.8234 180.579 48.6219 180.813 48.6219Z" fill="#D8DEED"/>
<path d="M114.507 62.9152H142.077C142.311 62.9152 142.501 63.1167 142.501 63.3652V66.4082C142.501 66.6567 142.311 66.8582 142.077 66.8582H114.507C114.274 66.8582 114.084 66.6567 114.084 66.4082V63.3652C114.084 63.1167 114.274 62.9152 114.507 62.9152ZM114.507 69.3225H137.341C137.575 69.3225 137.764 69.524 137.764 69.7725V72.8155C137.764 73.0641 137.575 73.2655 137.341 73.2655H114.507C114.274 73.2655 114.084 73.0641 114.084 72.8155V69.7725C114.084 69.524 114.274 69.3225 114.507 69.3225ZM114.507 82.1372H127.869C128.103 82.1372 128.292 82.3387 128.292 82.5872V85.6302C128.292 85.8787 128.103 86.0802 127.869 86.0802H114.507C114.274 86.0802 114.084 85.8787 114.084 85.6302V82.5872C114.084 82.3387 114.274 82.1372 114.507 82.1372ZM114.507 75.7299H142.077C142.311 75.7299 142.501 75.9314 142.501 76.1799V79.2229C142.501 79.4714 142.311 79.6729 142.077 79.6729H114.507C114.274 79.6729 114.084 79.4714 114.084 79.2229V76.1799C114.084 75.9314 114.274 75.7299 114.507 75.7299Z" fill="#E1E5F0"/>
<path d="M143.595 94.459H168.875C170.128 94.459 170.669 94.6157 171.187 94.9098C171.704 95.204 172.11 95.6356 172.387 96.1856C172.664 96.7356 172.812 97.3099 172.812 98.6416V100.134C172.812 101.466 172.664 102.04 172.387 102.59C172.11 103.14 171.704 103.572 171.187 103.866C170.669 104.16 170.128 104.316 168.875 104.316H143.595C142.342 104.316 141.802 104.16 141.284 103.866C140.766 103.572 140.36 103.14 140.083 102.59C139.806 102.04 139.659 101.466 139.659 100.134V98.6416C139.659 97.3099 139.806 96.7356 140.083 96.1856C140.36 95.6356 140.766 95.204 141.284 94.9098C141.802 94.6157 142.342 94.459 143.595 94.459Z" fill="#3ABF7C"/>
<path d="M191.097 72.5636V77.7385C191.097 79.2601 190.197 80.6173 188.848 81.1289C185.685 82.3286 182.522 82.9284 179.36 82.9284C176.197 82.9284 173.034 82.3286 169.871 81.1289C168.523 80.6173 167.622 79.2601 167.622 77.7385V72.881L158.181 69.3401C157.808 69.2003 157.518 68.8844 157.395 68.4852C157.178 67.7763 157.543 67.0144 158.21 66.7834L177.085 60.2499C178.699 59.6909 180.444 59.7209 182.041 60.3351L198.842 66.797C199.185 66.9292 199.459 67.2121 199.592 67.5735C199.848 68.2676 199.526 69.051 198.873 69.3232L191.097 72.5636Z" fill="#474BFF"/>
<path opacity="0.176986" d="M191.097 72.5636V77.7385C191.097 79.2601 190.197 80.6173 188.848 81.1289C185.685 82.3286 182.522 82.9284 179.36 82.9284C176.197 82.9284 173.034 82.3286 169.871 81.1289C168.523 80.6173 167.622 79.2601 167.622 77.7385V72.881L176.899 76.36C178.626 77.0077 180.515 76.9731 182.22 76.2626L191.097 72.5636Z" fill="#444444"/>
<path d="M194.495 77.2485V71.4539L179.245 67.8272C178.968 67.7613 178.794 67.4744 178.858 67.1863C178.921 66.8983 179.197 66.7182 179.475 66.7841L195.124 70.5059C195.358 70.5615 195.524 70.7779 195.524 71.0274V77.2485C196.066 77.4639 196.451 78.0093 196.451 78.6482C196.451 79.1988 196.165 79.6801 195.739 79.9404C195.776 80.0103 195.805 80.072 195.824 80.1257C196.722 82.6644 197.862 85.3564 195.257 85.4941C193.76 85.5731 193.518 83.7623 194.531 80.0616C193.97 79.8565 193.568 79.3011 193.568 78.6482C193.568 78.0093 193.953 77.4639 194.495 77.2485Z" fill="#474961"/>
<path d="M216.847 36.4489C216.847 35.2069 217.796 34.2 218.964 34.2H237.938L245.647 42.3785V68.1751C245.647 69.4177 244.697 70.425 243.529 70.425H218.965C217.795 70.425 216.847 69.4183 216.847 68.1761V36.4489Z" fill="#F2F6FB"/>
<path d="M236.829 54.2192L227.227 59.3521C227.153 59.3912 227.064 59.3599 227.028 59.2822C227.017 59.2602 227.012 59.236 227.012 59.2114V48.9456C227.012 48.8586 227.078 48.7881 227.16 48.7881C227.183 48.7881 227.206 48.7938 227.227 48.8049L236.829 53.9378C236.902 53.9769 236.931 54.0716 236.894 54.1493C236.88 54.1795 236.857 54.204 236.829 54.2192Z" fill="#D8DEED"/>
<path d="M237.938 34.2L245.647 42.3785L238.415 43.7628C237.263 43.9832 236.49 43.1703 236.687 41.9448L237.938 34.2Z" fill="#D8DEED"/>
<path d="M216.847 80.9989C216.847 79.7569 217.796 78.75 218.964 78.75H237.938L245.647 86.9285V112.725C245.647 113.968 244.697 114.975 243.529 114.975H218.965C217.795 114.975 216.847 113.968 216.847 112.726V80.9989Z" fill="#F2F6FB"/>
<path d="M237.938 78.75L245.647 86.9285L238.415 88.3128C237.263 88.5332 236.49 87.7203 236.687 86.4948L237.938 78.75Z" fill="#D8DEED"/>
<path d="M223.412 103.614V94.0613C223.412 93.8673 223.49 93.6826 223.627 93.5545C224.708 92.5444 226.028 92.1209 227.586 92.284C229.25 92.4581 230.353 93.3551 230.895 94.975V105.417C230.895 105.541 230.8 105.642 230.683 105.642C230.617 105.642 230.555 105.609 230.515 105.553C229.767 104.511 228.92 103.859 227.973 103.597C227.037 103.338 225.811 103.551 224.295 104.235C223.972 104.381 223.599 104.221 223.462 103.877C223.429 103.794 223.412 103.704 223.412 103.614ZM239.173 103.614C239.173 103.704 239.156 103.794 239.122 103.877C238.985 104.221 238.612 104.381 238.289 104.235C236.773 103.551 235.548 103.338 234.612 103.597C233.665 103.859 232.818 104.511 232.07 105.553C232.03 105.609 231.967 105.642 231.901 105.642C231.784 105.642 231.69 105.541 231.69 105.417V94.975C232.232 93.3551 233.335 92.4581 234.999 92.284C236.557 92.1209 237.877 92.5444 238.957 93.5545C239.094 93.6826 239.173 93.8673 239.173 94.0613V103.614Z" fill="#D8DEED"/>
<path d="M98.6844 192.15H251.663L262.516 144.27C264.527 135.397 272.603 129.644 281.091 131.036C281.475 131.099 281.855 131.179 282.232 131.275C289.739 133.196 294.359 141.219 292.551 149.195L280.326 203.13C278.315 212.002 270.239 217.756 261.75 216.364C261.367 216.301 260.987 216.221 260.61 216.125C256.042 214.956 252.543 211.527 250.911 207.225H99.4371C97.8049 211.527 94.3059 214.956 89.738 216.125C89.361 216.221 88.9804 216.301 88.5973 216.364C80.1089 217.756 72.0331 212.002 70.0221 203.13L57.7968 149.195C55.9889 141.219 60.6088 133.196 68.1157 131.275C68.4926 131.179 68.8732 131.099 69.2563 131.036C77.7447 129.644 85.8205 135.397 87.8315 144.27L98.6844 192.15Z" fill="#E1E5F0"/>
<mask id="mask0_307_98" style="mask-type:alpha" maskUnits="userSpaceOnUse" x="89" y="130" width="172" height="63">
<path d="M110.541 130.95H239.718C251.413 130.95 260.894 141.024 260.894 153.45V192.15H89.3647V153.45C89.3647 141.024 98.8457 130.95 110.541 130.95Z" fill="white"/>
</mask>
<g mask="url(#mask0_307_98)">
<path d="M110.541 130.95H239.718C251.413 130.95 260.894 141.024 260.894 153.45V192.15H89.3647V153.45C89.3647 141.024 98.8457 130.95 110.541 130.95Z" fill="#F2F6FB"/>
</g>
<path d="M84.1762 219.6L78.3373 230.345C77.4309 232.013 75.4234 232.585 73.8535 231.622C72.2836 230.659 71.7457 228.526 72.6521 226.858L77.3087 218.288C75.9466 217.156 75.0711 215.393 75.0711 213.412C75.0711 209.995 77.6784 207.225 80.8947 207.225H268.942C272.158 207.225 274.765 209.995 274.765 213.412C274.765 215.271 273.994 216.939 272.773 218.073L277.546 226.858C278.453 228.526 277.915 230.659 276.345 231.622C274.775 232.585 272.768 232.013 271.861 230.345L266.022 219.6H84.1762Z" fill="#D8DEED"/>
<path d="M172.032 231.341C172.121 231.311 172.215 231.296 172.311 231.296H184.064C184.594 231.296 185.038 231.768 185.038 232.331C185.038 232.893 184.594 233.366 184.064 233.366H173.965H140.082C139.556 233.366 139.129 232.912 139.129 232.353C139.129 231.794 139.556 231.341 140.082 231.341H172.032Z" fill="#FFCB3D"/>
<path d="M173.954 231.341H172.311C172.215 231.341 172.121 231.356 172.032 231.386H140.082C139.929 231.386 139.783 231.424 139.655 231.493L139.341 216.929L155.194 217.169L158.198 208.166L172.132 212.653C172.828 215.166 173.545 217.679 174.261 220.214C174.641 221.538 175.02 222.839 175.4 224.14C176.581 224.634 177.593 225.083 178.31 225.419C179.68 226.047 180.84 226.631 182.105 227.506C182.105 227.506 183.201 228.224 183.812 229.256C184.002 229.592 184.171 229.974 184.276 230.378C184.319 230.557 184.319 230.737 184.34 230.894C184.333 231.041 184.302 231.206 184.262 231.363C184.198 231.348 184.132 231.341 184.064 231.341H173.958C173.967 231.309 173.972 231.276 173.971 231.243C173.97 231.276 173.965 231.309 173.954 231.341Z" fill="#474961"/>
<path opacity="0.176986" d="M173.991 231.341C174.006 231.29 174.008 231.237 173.998 231.183C173.977 231.003 173.977 230.823 173.935 230.666C173.681 229.586 172.876 228.686 172.41 228.213C171.457 227.561 170.504 226.976 169.466 226.458C165.718 224.478 164.638 224.501 162.182 222.723C161.165 221.981 160.233 221.148 159.365 220.203L155.722 217.188L155.224 217.181L158.232 208.166L172.165 212.653C172.861 215.166 173.578 217.679 174.295 220.214C174.674 221.538 175.054 222.839 175.433 224.14C176.614 224.634 177.626 225.083 178.343 225.419C179.713 226.047 180.873 226.631 182.138 227.506C182.138 227.506 183.235 228.224 183.846 229.256C184.036 229.592 184.204 229.974 184.31 230.378C184.352 230.557 184.352 230.737 184.373 230.894C184.366 231.043 184.334 231.211 184.293 231.371C184.22 231.351 184.143 231.341 184.064 231.341H173.991Z" fill="#444444"/>
<path d="M159.984 202C160.059 203.92 160.162 205.517 160.308 206.689C160.333 206.982 160.319 209.138 159.94 209.904C158.762 212.248 152.233 211.559 146.418 211.731C140.603 211.903 137.397 212.507 135.667 211.084C134.719 210.309 134.578 208.918 134.521 208.432C134.262 205.958 133.96 203.453 133.642 200.934C126.394 203.989 121.835 205.802 119.967 206.37C118.118 206.933 116.069 207.085 114.205 207.177C98.326 213.306 89.7766 203.418 88.8762 201.069C85.4366 192.098 86.5026 184.716 89.4218 179.478C91.3044 176.1 105.74 167.922 132.728 154.943C133.333 154.652 134.662 153.935 136.716 152.791C139.112 151.429 142.269 150.668 146.189 150.508C147.095 150.471 148.001 150.541 148.892 150.716C154.55 151.826 157.597 153.968 158.034 157.142C158.04 157.18 158.044 157.199 158.05 157.238C158.243 158.602 158.413 160.039 158.562 161.532C159.548 161.31 160.483 161.077 161.368 160.833C161.37 160.831 161.373 160.828 161.376 160.826C163.704 159.121 172.303 157.714 176.506 159.654C181.701 162.052 184.752 167.838 183.965 173.798H183.965C182.84 182.308 182.197 186.921 182.035 187.637C181.793 188.735 178.855 201.151 177.782 205.708C177.547 206.742 176.514 207.527 175.19 207.668C173.731 207.833 164.825 204.133 159.984 202V202Z" fill="#A339FF"/>
<path opacity="0.176986" d="M160.065 202.035C159.71 192.271 159.966 174.661 158.65 161.543C159.621 161.324 160.543 161.094 161.415 160.853C161.418 160.851 161.421 160.849 161.424 160.846C163.751 159.141 172.351 157.734 176.554 159.674C181.749 162.072 184.8 167.859 184.012 173.819V173.819C182.888 182.328 182.245 186.941 182.083 187.657C181.841 188.755 178.902 201.171 177.83 205.728C177.594 206.762 176.562 207.547 175.237 207.688C173.782 207.853 164.914 204.17 160.065 202.035V202.035ZM133.728 200.938C126.457 204.003 121.886 205.821 120.014 206.391C118.251 206.927 116.305 207.09 114.512 207.184C114.818 207.064 115.126 206.938 115.438 206.805C122.207 203.928 127.991 199.555 132.79 193.687V193.687C133.102 196.105 133.422 198.527 133.728 200.938Z" fill="#444444"/>
<path d="M112.123 165.245C100.57 171.275 93.4042 175.609 90.6264 178.247L89.7886 178.69C85.5616 172.717 83.8517 164.629 84.6589 154.426C82.6398 153.901 80.9083 153.364 80.1172 152.97C78.5351 152.183 78.1067 150.461 78.8322 147.804C79.44 145.251 80.6694 142.29 82.5205 138.922C84.7206 134.919 87.8244 134.803 89.8277 135.07C91.5773 133.686 100.106 133.528 101.706 133.873C104.223 134.435 107.956 135.223 110.001 138.449C110.658 139.454 110.963 140.432 111.122 141.13C111.122 141.13 111.428 142.108 111.645 143.173C112.143 145.609 113.132 154.132 112.123 165.245Z" fill="#FFCB3D"/>
<path d="M137.112 133.196L116.024 153.37C115.546 153.828 115.508 154.61 115.938 155.118C116.369 155.626 117.105 155.667 117.583 155.21L138.671 135.035C139.149 134.578 139.187 133.795 138.757 133.288C138.327 132.78 137.59 132.739 137.112 133.196Z" fill="#474961"/>
<path d="M129.74 139.9L117.153 131.267C116.371 130.731 115.35 130.8 114.639 131.438L102.315 142.482C101.421 143.283 101.308 144.702 102.062 145.652C102.188 145.811 102.335 145.951 102.497 146.068L116.608 156.171L130.002 143.469C130.874 142.641 130.95 141.219 130.171 140.292C130.045 140.141 129.9 140.009 129.74 139.9Z" fill="#474BFF"/>
<path d="M94.985 125.654C94.3516 124.783 93.7842 123.963 93.4829 123.289C93.0362 122.307 93.2689 119.445 94.1136 118.303C94.9583 117.161 101.656 111.879 101.741 111.873C102.454 111.752 106.476 111.25 108.756 114.284C108.964 114.539 109.152 114.818 109.324 115.166C109.695 115.973 109.902 116.86 109.898 117.762L109.865 121.78C109.849 122.187 109.812 122.596 109.753 122.983C109.327 125.857 108.486 128.243 107.526 129.78C106.816 130.938 106.013 131.629 105.275 131.707C105.065 131.745 103.923 131.807 102.564 131.479C102.475 131.455 102.499 131.475 101.946 131.267L102.059 133.914C103.892 134.322 106.266 134.884 108.175 136.363C105.449 137.904 102.43 138.597 99.1185 138.443C97.694 138.377 96.1919 138.174 94.6124 137.834C93.4401 136.36 92.0117 135.492 91.2143 135.352C90.8509 135.288 90.3582 135.182 89.7811 135.111C89.7911 135.102 89.8012 135.093 89.8113 135.084C90.508 134.474 92.5104 134.096 94.6961 133.89L94.8323 125.603L94.985 125.654ZM112.848 157.9C112.897 157.9 112.946 157.897 112.995 157.891C112.947 157.893 112.9 157.893 112.853 157.89C112.851 157.894 112.849 157.897 112.848 157.9ZM115.68 155.441L116.579 156.076L117.413 155.287C117.44 155.265 117.467 155.242 117.493 155.217L117.992 154.74L129.905 143.476C130.071 143.32 130.208 143.141 130.316 142.949L133.919 139.502C135.551 138.645 136.816 138.307 137.239 138.938C137.239 138.938 130.923 146.216 127.587 150.035C126.715 152.466 125.421 155.574 123.707 159.36C119.436 161.482 115.563 163.45 112.088 165.264C112.312 162.892 112.443 160.637 112.507 158.532C108.358 166.083 101.945 172.464 93.2679 177.675C82.171 184.34 80.3622 161.619 80.0742 152.847C80.115 152.868 80.1567 152.889 80.1992 152.91C82.4749 153.992 93.0284 156.487 94.9839 156.15C95.0401 156.142 95.0944 156.129 95.1466 156.108L94.8142 161.559L107.126 152.267C107.129 152.264 107.131 152.26 107.134 152.257L113.261 143.924C113.73 143.287 114.595 143.174 115.194 143.672C115.381 143.827 115.521 144.025 115.609 144.242L115.786 143.962C116.211 143.293 117.067 143.116 117.697 143.568C118.113 143.866 118.327 144.362 118.302 144.858C118.633 144.824 118.976 144.917 119.262 145.146L119.265 145.149C119.846 145.614 119.962 146.491 119.525 147.109C119.513 147.125 119.501 147.141 119.489 147.157L119.399 147.273C119.832 147.164 120.307 147.28 120.657 147.626C121.213 148.177 121.243 149.103 120.725 149.693L115.68 155.441ZM160.721 202.229C164.438 203.853 170.008 206.169 173.139 207.152L172.132 212.653L160.226 208.819C160.319 208.15 160.315 207.472 160.3 207.289C160.166 206.221 160.072 204.791 160.002 203.079C159.991 202.742 159.978 202.39 159.964 202.024L160.721 202.229ZM139.346 211.996C141.093 212.024 143.387 211.821 146.418 211.731C148.582 211.667 150.844 211.722 152.893 211.696L155.377 216.62L155.194 217.169L139.361 216.929L139.346 211.996Z" fill="#F2A98A"/>
<path opacity="0.2" d="M112.447 158.366C112.532 158.21 112.615 158.054 112.698 157.898C113.092 157.921 113.492 157.765 113.782 157.435L115.564 155.404L116.514 156.076L117.348 155.287C117.376 155.265 117.402 155.242 117.428 155.217L117.927 154.74L129.841 143.476C130.007 143.32 130.144 143.141 130.252 142.949L133.855 139.502C135.486 138.645 136.752 138.307 137.174 138.938C137.174 138.938 130.864 146.209 127.527 150.03C126.656 152.473 125.365 155.607 123.681 159.341C119.395 161.47 115.509 163.444 112.024 165.264C112.253 162.83 112.386 160.518 112.447 158.366Z" fill="#8C2A00"/>
<path d="M101.947 131.275L99.0005 130.216L102.046 133.908L101.947 131.275Z" fill="#482D1F"/>
<path d="M105.307 111.978C106.491 112.299 107.734 112.949 108.679 114.206C108.886 114.461 109.075 114.74 109.246 115.089C109.41 115.444 109.542 115.816 109.638 116.197L98.9105 120.172L100.286 112.494C102.339 112.177 104.012 112.004 105.307 111.978Z" fill="#482D1F"/>
<path d="M106.138 112.461C102.381 116.369 99.9895 118.922 98.9618 120.121C98.9239 120.179 98.8858 120.239 98.8475 120.301C98.8021 120.097 98.6256 119.434 98.1415 118.794C98.0963 118.752 97.7047 118.285 97.1392 118.079C96.1197 117.749 94.841 118.317 94.1863 119.336C93.4908 120.38 93.5779 121.704 94.0458 122.684C94.5136 123.665 95.3263 124.078 95.6098 124.192L96.7501 124.423L96.8652 124.368C96.0269 126.252 95.2628 127.948 94.7736 128.071C93.8843 128.294 92.5128 126.276 91.5445 125.299C90.9291 124.678 89.4509 122.645 89.0087 119.814C88.8773 118.878 88.3891 115.702 90.225 113.2C90.8656 112.331 91.6266 111.876 91.9393 111.678C93.0034 111.076 97.0885 110.731 100.227 110.549C99.6293 109.564 99.2658 107.525 99.1367 104.43C99.1324 104.328 99.1608 104.228 99.2172 104.145C99.3547 103.944 99.6196 103.9 99.8088 104.046C102.409 106.055 104.064 107.514 104.773 108.424C105.294 107.543 106.814 106.517 109.333 105.345C109.422 105.304 109.521 105.297 109.614 105.323C109.84 105.389 109.973 105.636 109.912 105.876C108.867 109.96 108.072 112.105 107.527 112.312C107.227 112.426 106.764 112.476 106.138 112.461Z" fill="#DE3190"/>
<path d="M108.836 122.564C108.882 122.29 109.122 122.069 109.379 122.095C109.549 122.105 109.685 122.23 109.769 122.54C109.884 123.32 109.146 124.368 108.883 123.914C108.695 123.634 108.779 122.974 108.836 122.564ZM104.188 122.292C104.234 122.018 104.474 121.797 104.731 121.823C104.901 121.833 105.037 121.958 105.121 122.268C105.236 123.048 104.498 124.096 104.235 123.642C104.046 123.362 104.13 122.702 104.188 122.292Z" fill="#482D1F"/>
<path d="M107.261 122.855L107.43 125.098C107.43 125.106 107.4 125.143 107.39 125.144C107.275 125.152 107.156 125.153 106.971 125.148C106.935 125.147 106.897 125.146 106.843 125.144C106.774 125.142 106.737 125.14 106.701 125.139C106.578 125.135 106.476 125.132 106.368 125.13C106.251 125.128 106.154 125.227 106.152 125.352C106.15 125.476 106.244 125.578 106.361 125.58C106.467 125.582 106.567 125.585 106.688 125.589C106.723 125.59 106.761 125.591 106.829 125.594C106.884 125.595 106.922 125.597 106.959 125.598C107.157 125.603 107.288 125.603 107.42 125.593C107.663 125.575 107.869 125.323 107.852 125.064L107.683 122.819C107.674 122.695 107.572 122.603 107.455 122.613C107.339 122.623 107.252 122.731 107.261 122.855Z" fill="#482D1F"/>
<path d="M106.039 126.868C105.887 126.812 105.516 126.659 105.48 126.436C105.477 126.391 105.451 126.325 105.492 126.3C105.59 126.18 105.851 126.273 106.239 126.357C106.927 126.486 107.479 126.491 107.479 126.491C107.479 126.491 107.291 126.865 107.171 126.965C106.935 127.253 106.258 126.965 106.039 126.868Z" fill="#482D1F"/>
<path d="M100.905 121.686L99.6403 121.374C99.4694 121.332 99.3629 121.151 99.4025 120.969C99.4421 120.788 99.6128 120.675 99.7837 120.717L101.143 121.051C101.614 120.109 102.517 119.439 103.592 119.359C105.249 119.236 106.686 120.563 106.801 122.323C106.804 122.365 106.806 122.407 106.807 122.449L107.451 122.485C107.645 121.023 108.778 119.853 110.219 119.746C111.876 119.623 113.313 120.95 113.429 122.71C113.545 124.471 112.296 125.997 110.639 126.12C108.983 126.243 107.547 124.918 107.43 123.159L106.76 123.122C106.519 124.524 105.411 125.629 104.011 125.733C102.355 125.856 100.918 124.529 100.802 122.769C100.777 122.393 100.815 122.028 100.905 121.686ZM101.587 121.644C101.466 121.977 101.411 122.342 101.436 122.722C101.527 124.11 102.66 125.157 103.967 125.06C105.274 124.963 106.259 123.759 106.168 122.37C106.076 120.982 104.943 119.935 103.636 120.032C102.739 120.099 101.993 120.687 101.644 121.499C101.643 121.506 101.641 121.513 101.64 121.52C101.63 121.566 101.611 121.608 101.587 121.644ZM108.057 122.917C108.057 122.981 108.059 123.045 108.063 123.109C108.154 124.497 109.288 125.544 110.595 125.447C111.901 125.35 112.886 124.146 112.795 122.757C112.704 121.369 111.57 120.322 110.264 120.419C109.061 120.509 108.13 121.536 108.061 122.782C108.065 122.806 108.067 122.831 108.065 122.857C108.064 122.878 108.062 122.898 108.057 122.917Z" fill="#482D1F"/>
<path d="M132.987 193.843L131.161 175.056C131.143 174.871 130.987 174.736 130.813 174.755C130.638 174.774 130.511 174.94 130.529 175.125L132.355 193.913C132.373 194.098 132.529 194.233 132.703 194.214C132.878 194.195 133.005 194.029 132.987 193.843Z" fill="#482D1F"/>
<path d="M96.4302 150.808C96.4302 150.808 96.6195 154.606 95.2012 156.002" stroke="#482D1F" stroke-width="3" stroke-linecap="round" stroke-linejoin="round"/>
<path d="M205.2 193.5H243.953C244.889 193.5 245.647 194.306 245.647 195.3V198.9C245.647 199.894 244.889 200.7 243.953 200.7H205.2C204.264 200.7 203.506 199.894 203.506 198.9V195.3C203.506 194.306 204.264 193.5 205.2 193.5ZM203.082 164.7H241.835C242.771 164.7 243.529 165.506 243.529 166.5V170.1C243.529 171.094 242.771 171.9 241.835 171.9H203.082C202.147 171.9 201.388 171.094 201.388 170.1V166.5C201.388 165.506 202.147 164.7 203.082 164.7ZM198.635 179.1H237.388C238.324 179.1 239.082 179.906 239.082 180.9V184.5C239.082 185.494 238.324 186.3 237.388 186.3H198.635C197.7 186.3 196.941 185.494 196.941 184.5V180.9C196.941 179.906 197.7 179.1 198.635 179.1Z" fill="#474BFF"/>
<path d="M209.012 186.3H247.765C248.7 186.3 249.459 187.106 249.459 188.1V191.7C249.459 192.694 248.7 193.5 247.765 193.5H209.012C208.076 193.5 207.318 192.694 207.318 191.7V188.1C207.318 187.106 208.076 186.3 209.012 186.3ZM210.282 171.9H249.035C249.971 171.9 250.729 172.706 250.729 173.7V177.3C250.729 178.294 249.971 179.1 249.035 179.1H210.282C209.347 179.1 208.588 178.294 208.588 177.3V173.7C208.588 172.706 209.347 171.9 210.282 171.9Z" fill="#474961"/>
<path d="M205.094 167.4H243.529V169.425H205.094C204.568 169.425 204.141 168.972 204.141 168.413C204.141 167.853 204.568 167.4 205.094 167.4ZM208.588 174.6H246.282V176.625H208.588V174.6ZM201.388 181.8H239.082V183.825H201.388V181.8ZM207.318 189H245.012V191.025H207.318V189ZM207.953 196.2H245.647V198.225H207.953V196.2Z" fill="#D8DEED"/>
</svg>
