<svg width="360" height="269" viewBox="0 0 360 269" fill="none" xmlns="http://www.w3.org/2000/svg">
<circle cx="281" cy="82" r="17" fill="#BDDCED"/>
<circle cx="80.5" cy="48.5" r="27.5" fill="#BDDCED"/>
<ellipse cx="172.5" cy="250" rx="99.5" ry="8" fill="#BDDCED"/>
<path d="M211.722 27.8639H173.351V68.4829H211.722V27.8639Z" stroke="#E1E5F0" stroke-width="5"/>
<path d="M174.981 26.1154H171.699V29.59H174.981V26.1154Z" fill="#E1E5F0"/>
<path d="M174.981 66.7568H171.699V70.2314H174.981V66.7568Z" fill="#D8DEED"/>
<path d="M213.374 26.1154H210.092V29.59H213.374V26.1154Z" fill="#CCF2FF"/>
<path d="M213.374 66.7568H210.092V70.2314H213.374V66.7568Z" fill="#CCF2FF"/>
<path d="M218.224 42.0312H199.821C198.424 42.0312 197.28 40.8207 197.28 39.3412V19.8612C197.28 18.3817 198.424 17.1712 199.821 17.1712H218.224C219.621 17.1712 220.765 18.3817 220.765 19.8612V39.3412C220.765 40.8207 219.621 42.0312 218.224 42.0312Z" fill="#E1E5F0"/>
<path d="M215.174 29.2922V28.9623C215.174 28.4671 215.553 28.0657 216.021 28.0657C216.489 28.0657 216.868 28.4671 216.868 28.9623V35.0597C216.868 35.5549 216.489 35.9563 216.021 35.9563C215.669 35.9563 215.367 35.7287 215.239 35.4047C214.717 35.7539 214.099 35.9563 213.438 35.9563C211.572 35.9563 210.049 34.3444 210.049 32.3697C210.049 30.395 211.572 28.783 213.438 28.783C214.071 28.783 214.666 28.9691 215.174 29.2922ZM204.43 29.0296H206.663L205.485 24.7126L204.43 29.0296ZM203.991 30.8229L202.928 35.1722C202.811 35.6516 202.349 35.9397 201.896 35.8157C201.443 35.6916 201.171 35.2024 201.288 34.723L203.958 23.8012C204.367 22.1648 206.526 22.1446 206.988 23.7594L209.974 34.6987C210.104 35.1744 209.845 35.6716 209.395 35.809C208.946 35.9465 208.476 35.6722 208.346 35.1965L207.152 30.8229H203.991ZM213.438 34.163C214.367 34.163 215.132 33.354 215.132 32.3697C215.132 31.3854 214.367 30.5763 213.438 30.5763C212.508 30.5763 211.744 31.3854 211.744 32.3697C211.744 33.354 212.508 34.163 213.438 34.163Z" fill="#F2F6FB"/>
<path d="M208.659 102.513L194.753 93.0292C194.567 93.166 194.567 93.166 194.4 93.3225L199.599 109.884C199.599 109.884 201.641 109.591 203.219 108.652L205.577 111.859L209.012 109.063L206.654 105.837C207.322 104.722 207.991 103.608 208.659 102.513Z" fill="#E1E5F0"/>
<path d="M197.365 51.5576C197.365 50.32 198.313 49.3167 199.482 49.3167H218.921L226.8 57.5661V83.6143C226.8 84.8523 225.854 85.8558 224.683 85.8558H199.482C198.312 85.8558 197.365 84.85 197.365 83.6149V51.5576Z" fill="#F2F6FB"/>
<path d="M212.349 74.0053H203.244C203.081 74.0053 203.02 73.8879 203.11 73.7415L209.387 63.4884C209.476 63.3427 209.625 63.3412 209.716 63.4815L214.218 70.4834L216.146 67.3158C216.235 67.17 216.385 67.1638 216.482 67.3033L220.989 73.7513C221.086 73.8902 221.031 74.0041 220.868 74.0057L216.758 74.0468L212.349 74.0053ZM216.287 65.0891C215.495 65.0891 214.852 64.4299 214.852 63.6167C214.852 62.8035 215.495 62.1442 216.287 62.1442C217.08 62.1442 217.723 62.8035 217.723 63.6167C217.723 64.4299 217.08 65.0891 216.287 65.0891Z" fill="#E1E5F0"/>
<path d="M218.921 49.3167L226.8 57.5661L219.361 58.9713C218.21 59.1887 217.439 58.374 217.638 57.1567L218.921 49.3167Z" fill="#E1E5F0"/>
<path d="M267.374 190.9V174.783C267.374 165.009 267.374 155.258 267.374 145.507V130.555C267.374 130.017 258.586 129.568 248.019 129.568H245.816C235.271 129.568 226.461 130.017 226.461 130.555V190.945C226.461 191.483 235.249 191.931 245.816 191.931H248.019C258.565 191.954 267.374 191.483 267.374 190.9Z" fill="#D8DEED"/>
<path d="M204.882 245.866L204.967 245.911C205.412 246.157 205.984 246.023 206.195 245.597L230.993 197.379C231.226 196.93 231.035 196.37 230.591 196.123L230.506 196.079C230.061 195.832 229.489 195.967 229.278 196.392L223.136 208.318C219.134 216.119 215.132 223.898 211.108 231.699L204.48 244.566C204.247 245.014 204.438 245.597 204.882 245.866Z" fill="#D8DEED"/>
<path d="M266.442 195.294H250.92C241.518 195.294 232.115 195.294 222.734 195.294H208.334C207.826 195.294 207.381 195.742 207.381 196.28V196.392C207.381 196.93 207.805 197.379 208.334 197.379H266.485C266.993 197.379 267.438 196.93 267.438 196.392V196.28C267.438 195.742 266.993 195.294 266.442 195.294Z" fill="#D8DEED"/>
<path d="M274.024 244.566L267.395 231.699C263.393 223.898 259.391 216.119 255.367 208.318L249.226 196.392C249.014 195.966 248.442 195.81 247.998 196.079L247.913 196.123C247.468 196.37 247.278 196.953 247.511 197.379L272.308 245.597C272.52 246.023 273.092 246.18 273.536 245.911L273.621 245.866C274.066 245.597 274.256 245.014 274.024 244.566Z" fill="#D8DEED"/>
<path d="M251.169 243.893H229.849C229.703 243.893 229.564 243.923 229.44 243.976L231.325 232.181L246.325 230.219L251.169 243.893ZM224.433 243.944C224.338 243.911 224.237 243.893 224.132 243.893H190.482C190.374 243.893 190.271 243.912 190.174 243.946C190.111 243.836 190.064 243.713 190.038 243.579V243.557C190.038 243.445 190.016 243.333 190.038 243.221C190.059 243.086 190.059 242.974 190.101 242.84C190.376 241.831 191.118 240.979 191.605 240.508C191.668 240.441 191.711 240.419 191.774 240.374C192.706 239.769 193.659 239.208 194.654 238.737C196.602 237.796 200.922 235.868 202.214 235.173C203.887 234.277 206.195 232.752 208.609 230.017C208.736 229.95 208.906 229.86 208.906 229.86L223.729 229.479C223.729 229.479 223.793 229.704 223.793 229.726L224.534 243.467C224.534 243.639 224.498 243.8 224.433 243.944Z" fill="#474961"/>
<path d="M190.482 243.893H224.153C224.679 243.893 225.106 244.345 225.106 244.902C225.106 245.459 224.679 245.911 224.153 245.911H190.482C189.956 245.911 189.529 245.459 189.529 244.902C189.529 244.345 189.956 243.893 190.482 243.893ZM229.871 243.893H251.047C251.573 243.893 252 244.345 252 244.902C252 245.459 251.573 245.911 251.047 245.911H229.871C229.344 245.911 228.918 245.459 228.918 244.902C228.918 244.345 229.344 243.893 229.871 243.893Z" fill="#DE3190"/>
<path d="M249.883 192.799C249.882 193.132 249.882 193.468 249.882 193.808C249.882 205.232 249.501 221.586 249.374 227.016C249.353 227.726 249.438 229.668 248.167 230.9C247.659 231.381 247.108 231.59 246.769 231.715C243.021 233.031 237.769 233.052 232.009 232.55C231.628 232.509 231.014 232.279 230.188 232.028C228.939 231.631 228.028 230.462 227.901 229.062C227.308 222.922 225.678 206.151 225.551 204.669C225.381 202.789 225.233 200.659 225.106 198.236L224.69 191.211C222.488 190.718 220.39 190.177 218.404 189.609C221.124 201.163 223.777 213.241 226.122 225.242C226.228 225.767 226.419 226.994 225.868 228.155C224.852 230.28 222.205 230.192 215.873 231.024C208.419 232.032 205.306 233.062 203.612 230.937C203.04 230.258 202.849 229.535 202.786 229.206C201.24 220.598 193.574 195.561 190.588 177.599C190.588 177.555 190.567 177.533 190.567 177.49C190.332 176.059 190.373 174.651 190.646 173.33C191.237 167.175 196.086 162.311 202.079 162.179L220.195 161.779C228.115 161.629 253.755 160.755 254.512 161.522C255.27 162.29 255.581 168.724 255.665 171.459C255.665 172.463 255.665 173.489 255.686 174.472C255.686 179.28 254.903 183.682 253.59 187.08C252.679 189.43 251.536 191.289 250.244 192.486C250.125 192.596 250.004 192.701 249.883 192.799Z" fill="#A339FF"/>
<path opacity="0.176986" d="M249.846 192.829C249.849 188.882 249.87 185.485 249.909 183.255C249.951 181.333 250.269 170.765 246.161 168.572C245.801 168.384 245.441 168.217 244.721 167.946C244.149 167.737 241.184 166.63 237.373 166.797C234.895 166.902 231.168 167.069 228.097 169.7C223.841 173.376 223.947 179.119 223.989 180.059L224.649 191.202C222.442 190.707 220.34 190.163 218.351 189.594C216.975 183.753 215.583 178.046 214.205 172.551C212.935 167.491 208.467 164.206 203.744 164.841C201.987 165.082 200.229 165.323 198.471 165.564C194.555 166.112 191.581 169.206 190.668 173.119C191.348 167.064 196.155 162.31 202.079 162.179L220.195 161.779C228.115 161.629 253.755 160.755 254.512 161.522C255.27 162.29 255.581 168.724 255.665 171.459C255.665 172.463 255.665 173.489 255.686 174.472C255.686 179.28 254.903 183.682 253.59 187.08C252.679 189.43 251.536 191.289 250.244 192.486C250.113 192.608 249.98 192.722 249.846 192.829Z" fill="#444444"/>
<path d="M217.978 146.757L208.869 145.802C207.937 145.713 207.936 143.68 207.908 142.851C207.997 142.002 208.369 140.723 209.039 140.39C208.664 139.7 208.6 138.477 208.885 137.3C209.113 136.362 209.911 135.804 210.737 135.517C211.42 133.177 212.478 129.308 212.87 127.459C214.04 121.831 215.643 119.686 216.195 119.06C216.827 118.319 217.446 117.802 217.859 117.473C220.647 115.284 223.663 114.858 225.207 114.756C225.248 114.733 225.29 114.731 225.333 114.729L231.177 114.426C231.963 114.331 232.707 114.271 233.379 114.217C235.42 114.066 237.527 113.907 239.607 114.183L246.151 114.28C246.194 114.28 246.236 114.28 246.278 114.303C247.824 114.347 250.853 114.661 253.711 116.746C254.135 117.06 254.77 117.553 255.427 118.27C255.998 118.876 257.671 120.96 259.027 126.542C259.479 128.375 260.663 132.203 261.423 134.516C262.259 134.773 263.074 135.3 263.333 136.23C263.657 137.395 263.633 138.62 263.281 139.323C263.962 139.631 264.375 140.896 264.492 141.741C264.492 142.57 264.558 144.602 263.63 144.726L255.403 145.897C255.986 150.732 256.002 154.769 255.569 157.435C255.569 157.504 255.546 157.596 255.523 157.665C255.409 158.376 255.249 158.972 255.043 159.454C255.02 159.5 254.997 159.546 254.974 159.592C253.808 161.335 244.588 160.716 242.415 160.784C238.846 160.899 234.728 160.922 229.65 160.807C228.071 160.762 225.074 161.06 221.414 160.05C221.391 160.05 221.368 160.027 221.368 160.027C221.368 160.027 220.911 159.89 220.385 159.569C220.133 159.408 219.836 159.225 219.584 158.972C217.296 156.793 217.8 151.586 217.8 151.586C217.86 149.879 217.919 148.272 217.978 146.757Z" fill="#DE3190"/>
<path d="M238.489 107.856L238.718 114.997C238.718 115.154 238.655 115.311 238.528 115.379C237.977 115.737 237.194 116.141 236.22 116.365C234.462 116.791 232.958 116.477 232.111 116.208C231.942 116.163 231.815 115.984 231.815 115.804L231.732 111.816C230.53 112.29 230.598 112.243 230.486 112.282C229.152 112.641 228.009 112.596 227.797 112.551C227.034 112.484 226.23 111.812 225.51 110.668C224.536 109.144 223.667 106.768 223.201 103.921C223.117 103.517 223.096 103.114 223.074 102.71L222.99 98.6978C222.969 97.8011 223.18 96.9269 223.583 96.0975C223.752 95.7388 223.921 95.4474 224.133 95.2008C224.178 95.1397 224.224 95.0801 224.27 95.0218C225.935 92.7457 229.245 92.447 230.783 92.6229C230.973 92.6453 231.651 92.735 232.625 92.8022C233.154 92.8471 233.578 92.8471 233.832 92.8695C236.987 93.004 238.237 92.6005 239.825 93.4971C240.121 93.6541 240.799 94.0576 241.392 94.8421C243.065 97.0614 242.663 99.9307 242.557 100.783C242.176 103.338 240.778 104.907 240.354 105.557C239.875 106.305 239.085 107.211 238.489 107.856ZM209.23 156.017L210.74 146.011L217.965 146.605L217.886 153.449C220.648 153.121 223.381 153.084 224.761 153.716C224.801 153.734 224.84 153.753 224.878 153.772C231.419 152.462 242.621 150.294 249.491 149.385L248.799 146.798L263.025 144.774C263.668 152.186 262.937 161.153 255.87 162.072C247.715 163.134 234.213 163.134 215.364 162.072H206.054C205.922 159.193 207.714 157.537 209.23 156.017Z" fill="#DB9E75"/>
<path d="M242.15 102.41C241.157 102.411 240.21 102.461 239.269 102.517C239.41 101.718 239.298 100.842 238.803 100.113C238.125 99.1041 236.855 98.5437 235.838 98.9023C235.267 99.1041 234.885 99.5748 234.843 99.6197C234.271 100.382 234.144 101.189 234.144 101.189L234.038 102.301C232.336 100.436 230.169 98.0773 228.551 96.2769C227.597 96.5535 226.023 96.8302 224.234 96.4278C223.99 96.3705 223.759 96.2841 223.54 96.1866C223.554 96.1568 223.568 96.1271 223.583 96.0975C223.752 95.7388 223.921 95.4474 224.133 95.2008C224.178 95.1397 224.224 95.0801 224.27 95.0218C225.935 92.7457 229.245 92.447 230.783 92.6229C230.973 92.6453 231.651 92.735 232.625 92.8022C233.154 92.8471 233.578 92.8471 233.832 92.8695C236.987 93.004 238.237 92.6005 239.825 93.4971C240.121 93.6541 240.799 94.0576 241.392 94.8421C243.065 97.0614 242.663 99.9307 242.557 100.783C242.468 101.378 242.324 101.921 242.15 102.41ZM223.831 101.503C223.62 101.458 223.556 101.166 223.704 101.009C223.895 100.83 224.234 100.651 224.657 100.651C225.525 100.651 226.457 101.256 225.483 101.525C224.911 101.704 224.234 101.615 223.831 101.503ZM228.194 101.66C227.982 101.615 227.918 101.323 228.088 101.166C228.278 100.987 228.617 100.808 229.062 100.808C229.93 100.808 230.862 101.435 229.888 101.682C229.274 101.884 228.617 101.749 228.194 101.66Z" fill="#482D1F"/>
<path opacity="0.2" d="M209.213 156.071L210.74 146.011L217.965 146.605L217.886 153.487C214.123 153.933 210.306 154.92 209.781 155.488C209.599 155.682 209.408 155.876 209.213 156.071Z" fill="#8C2A00"/>
<path d="M225.483 103.094C225.462 103.475 225.398 104.103 225.187 104.327C224.827 104.663 224.361 103.543 224.636 102.848C224.742 102.556 224.89 102.511 225.06 102.534C225.314 102.579 225.483 102.825 225.483 103.094ZM229.274 103.027C229.295 103.408 229.295 104.036 229.083 104.305C228.765 104.686 228.173 103.61 228.384 102.892C228.469 102.601 228.617 102.534 228.787 102.534C229.041 102.534 229.253 102.758 229.274 103.027Z" fill="#482D1F"/>
<path d="M227.537 107.645C227.685 107.6 228.045 107.488 228.109 107.241C228.109 107.196 228.13 107.129 228.109 107.084C228.024 106.927 227.77 107.017 227.389 107.04C226.711 107.084 226.161 107.017 226.161 107.017C226.161 107.017 226.309 107.465 226.415 107.6C226.648 107.936 227.325 107.712 227.537 107.645Z" fill="#482D1F"/>
<path d="M225.782 105.507C225.742 105.759 225.927 106.008 226.168 106.05C226.221 106.055 226.221 106.055 226.255 106.058C226.613 106.087 226.836 106.098 227.22 106.098C227.337 106.098 227.431 105.998 227.431 105.874C227.431 105.75 227.337 105.65 227.22 105.65C226.848 105.65 226.635 105.639 226.288 105.611L226.219 105.606C226.219 105.605 226.2 105.579 226.2 105.575L226.519 103.17L226.521 103.139V101.816C226.521 101.693 226.426 101.592 226.309 101.592C226.192 101.592 226.097 101.693 226.097 101.816V103.123L225.782 105.507Z" fill="#482D1F"/>
<path d="M239.272 101.336C239.369 101.992 239.257 102.707 238.975 103.282C238.633 104.007 238.151 104.402 237.529 104.706C237.422 104.758 237.376 104.892 237.425 105.004C237.474 105.116 237.6 105.165 237.706 105.114C237.98 104.98 238.197 104.851 238.448 104.644C238.819 104.341 239.129 103.959 239.353 103.486C239.674 102.829 239.801 102.018 239.69 101.266C239.672 101.144 239.564 101.06 239.448 101.079C239.333 101.099 239.254 101.213 239.272 101.336Z" fill="#482D1F"/>
<path d="M225.584 103.142C225.562 103.523 225.499 104.151 225.287 104.375C224.927 104.711 224.461 103.59 224.737 102.895C224.842 102.604 224.991 102.559 225.16 102.581C225.414 102.626 225.584 102.873 225.584 103.142ZM229.374 103.075C229.395 103.456 229.395 104.083 229.184 104.352C228.866 104.733 228.273 103.657 228.485 102.94C228.57 102.649 228.718 102.581 228.887 102.581C229.141 102.581 229.353 102.806 229.374 103.075Z" fill="#482D1F"/>
<path d="M227.638 107.692C227.786 107.648 228.146 107.536 228.21 107.289C228.21 107.244 228.231 107.177 228.21 107.132C228.125 106.975 227.871 107.065 227.49 107.087C226.812 107.132 226.261 107.065 226.261 107.065C226.261 107.065 226.41 107.513 226.515 107.648C226.748 107.984 227.426 107.76 227.638 107.692Z" fill="#482D1F"/>
<path d="M239.372 101.383C239.469 102.04 239.357 102.755 239.076 103.33C238.733 104.055 238.251 104.45 237.629 104.754C237.523 104.806 237.476 104.939 237.526 105.052C237.575 105.164 237.7 105.213 237.807 105.161C238.08 105.027 238.297 104.898 238.549 104.692C238.919 104.388 239.229 104.007 239.453 103.534C239.775 102.877 239.901 102.065 239.791 101.314C239.772 101.192 239.664 101.108 239.549 101.127C239.433 101.146 239.354 101.261 239.372 101.383Z" fill="#482D1F"/>
<path d="M249.106 146.865C249.158 147.042 249.063 147.23 248.896 147.285C248.728 147.34 248.55 147.24 248.499 147.063C247.895 144.986 245.968 138.694 245.561 137.531C245.5 137.357 245.584 137.163 245.748 137.099C245.913 137.034 246.096 137.123 246.157 137.297C246.57 138.475 248.499 144.777 249.106 146.865ZM220.187 128.035C219.658 133.217 219.234 137.35 218.281 146.641C218.262 146.826 218.106 146.959 217.931 146.939C217.757 146.919 217.631 146.753 217.65 146.569C218.603 137.277 219.026 133.144 219.556 127.963C219.574 127.778 219.731 127.645 219.906 127.665C220.08 127.685 220.206 127.851 220.187 128.035Z" fill="#482D1F"/>
<path d="M231.737 111.895L233.472 111.077L231.778 114.032L231.737 111.895Z" fill="#482D1F"/>
<path d="M146.774 245.597L146.689 245.642C146.245 245.888 145.673 245.754 145.461 245.328L120.664 197.11C120.431 196.661 120.621 196.101 121.066 195.854L121.151 195.81C121.595 195.563 122.167 195.697 122.379 196.123L128.52 208.049C132.522 215.85 136.525 223.629 140.548 231.43L147.176 244.297C147.409 244.745 147.219 245.328 146.774 245.597Z" fill="#D8DEED"/>
<path d="M85.9765 195.025H101.499C110.901 195.025 120.304 195.025 129.685 195.025H144.085C144.593 195.025 145.038 195.473 145.038 196.011V196.123C145.038 196.661 144.614 197.11 144.085 197.11H85.9341C85.4259 197.11 84.9812 196.661 84.9812 196.123V196.011C84.9812 195.473 85.4259 195.025 85.9765 195.025Z" fill="#D8DEED"/>
<path d="M77.6329 244.297L84.2612 231.43C88.2635 223.629 92.2659 215.85 96.2894 208.049L102.431 196.123C102.642 195.697 103.214 195.541 103.659 195.81L103.744 195.854C104.188 196.101 104.379 196.684 104.146 197.11L79.3482 245.328C79.1365 245.754 78.5647 245.911 78.12 245.642L78.0353 245.597C77.5906 245.328 77.4 244.745 77.6329 244.297Z" fill="#D8DEED"/>
<path d="M79.6023 131.272L81.6141 148.488C82.8423 158.912 84.0494 169.335 85.2776 179.737L87.1412 195.697C87.2047 196.258 86.8447 196.818 86.3365 196.886L86.2306 196.908C85.7223 196.975 85.2565 196.572 85.1718 195.966L77.6118 131.496C77.5482 130.936 77.9082 130.375 78.4165 130.308L78.5223 130.286C79.0518 130.218 79.5388 130.667 79.6023 131.272Z" fill="#D8DEED"/>
<path d="M115.354 243.873H126.805C127.334 243.873 127.779 244.333 127.779 244.881C127.779 245.43 127.334 245.89 126.805 245.89H115.052C114.522 245.89 114.099 245.452 114.078 244.881C114.078 244.333 114.522 243.873 115.052 243.873H115.354L115.581 244.052C116.005 244.388 116.089 245.038 115.772 245.487C115.454 245.935 114.84 246.025 114.416 245.688L93.1553 228.921C92.7318 228.584 92.6471 227.934 92.9647 227.486C93.2824 227.038 93.8965 226.948 94.32 227.284L115.354 243.873ZM171.296 245.867H137.668C137.139 245.867 136.715 245.418 136.715 244.858C136.715 244.298 137.139 243.849 137.668 243.849H171.318C171.847 243.849 172.271 244.298 172.271 244.858C172.249 245.418 171.826 245.867 171.296 245.867Z" fill="#FFCB3D"/>
<path d="M94.3239 227.303L102.092 215.648L114.84 225.444C115.539 227.955 116.259 230.466 116.979 232.999C117.36 234.321 117.741 235.622 118.122 236.922C119.308 237.415 120.325 237.863 121.045 238.199C122.421 238.827 123.586 239.41 124.856 240.284C124.856 240.284 125.958 241.002 126.572 242.033C126.762 242.369 126.932 242.75 127.038 243.154C127.08 243.333 127.08 243.512 127.101 243.669C127.098 243.749 127.087 243.833 127.071 243.919C126.98 243.889 126.884 243.873 126.785 243.873H115.334L94.3239 227.303ZM171.562 243.888C171.478 243.863 171.39 243.849 171.298 243.849H137.649C137.516 243.849 137.39 243.877 137.275 243.929C137.215 243.789 137.181 243.633 137.181 243.468L138.109 230.422C138.081 229.973 142.868 229.757 152.471 229.772C152.704 229.772 152.915 229.839 153.106 229.996C155.52 232.731 157.828 234.255 159.501 235.152C160.793 235.846 165.113 237.774 167.061 238.716C168.056 239.187 169.009 239.747 169.941 240.352C170.005 240.397 170.047 240.419 170.111 240.487C170.598 240.957 171.339 241.809 171.614 242.818C171.656 242.953 171.656 243.065 171.678 243.199C171.699 243.311 171.678 243.423 171.678 243.535V243.558C171.654 243.676 171.615 243.787 171.562 243.888Z" fill="#474961"/>
<path d="M112.127 192.8L103.601 194.19C96.4026 195.416 88.2964 189.585 87.2445 181.237C87.1414 180.505 87.1001 179.774 87.1001 179.042C87.1001 172.114 87.5224 164.714 94.2353 163.163C100.948 161.612 145.449 162.733 150.588 162.733C155.728 162.733 157.58 164.875 159.451 168.03C161.321 171.185 160.757 176.582 160.283 179.982C159.437 186.114 159.004 190.805 158.839 195.818C158.798 196.872 158.736 197.991 158.674 199.239C158.303 206.684 157.973 209.761 157.354 219.422C157.127 223.252 156.941 226.565 156.797 229.083C156.735 230.331 155.724 231.32 154.528 231.32H153.311L136.348 231.385C135.069 231.385 134.017 230.287 134.058 228.953L134.285 220.024L134.43 214.688C134.51 211.691 134.591 208.494 134.672 205.242C132.745 207.825 130.988 210.2 129.402 212.365C128.118 214.15 126.648 216.201 124.814 218.787C122.379 222.216 120.325 225.175 118.758 227.462C118.072 228.443 116.817 228.772 115.734 228.311C115.567 228.243 115.404 228.157 115.248 228.052L114.083 227.245L106.036 221.798L99.4926 217.359C98.2432 216.507 97.8832 214.804 98.6879 213.571L104.003 205.366L107.18 200.457C108.302 198.716 109.951 196.164 112.127 192.8Z" fill="#474BFF"/>
<path opacity="0.176986" d="M134.604 205.326C130.581 210.719 127.306 215.198 124.777 218.764C122.342 222.194 120.288 225.153 118.721 227.44C117.937 228.56 116.413 228.829 115.248 228.045L114.083 227.238L106.036 221.79L99.4926 217.352C98.2432 216.5 97.8832 214.797 98.6879 213.564L104.003 205.359L107.18 200.45C108.308 198.7 109.969 196.129 112.162 192.739L135.004 189.016V189.641L134.86 194.977C134.774 198.375 134.689 201.882 134.604 205.326L134.604 205.326Z" fill="#444444"/>
<path d="M138.162 183.794C137.123 185.458 136.811 185.912 136.495 186.286C136.144 186.702 135.813 187.184 134.753 188.882C134.624 189.089 134.677 189.367 134.872 189.503C135.067 189.64 135.33 189.583 135.459 189.377C136.499 187.712 136.81 187.259 137.126 186.884C137.477 186.469 137.808 185.986 138.869 184.288C138.998 184.082 138.944 183.803 138.749 183.667C138.554 183.53 138.291 183.587 138.162 183.794Z" fill="#482D1F"/>
<path d="M122.188 136.495C125.301 134.029 133.348 127.327 133.348 127.327C135.974 129.837 129.664 134.343 129.664 134.343" fill="#482D1F"/>
<mask id="mask0_2_4502" style="mask-type:alpha" maskUnits="userSpaceOnUse" x="86" y="116" width="36" height="49">
<path d="M111.046 117.118C111.709 117.339 112.378 117.642 113.04 118.046C115.56 119.593 116.767 121.588 118.991 125.645C120.854 129.008 122.506 132.034 121.32 134.052C120.532 135.391 118.769 135.741 117.582 135.839L117.529 141.046V141.27L117.424 152.433C117.252 156.041 117.04 158.975 116.788 161.235C116.41 164.626 92.2231 166.024 92.2231 162.135C91.6513 160.655 91.4612 155.863 91.4824 154.159L91.6553 137.662C91.3821 137.689 91.1057 137.722 90.8259 137.76C89.64 137.76 87.7977 137.522 86.9082 136.095C85.6165 134.05 87.0988 130.744 88.7506 127.034C90.7412 122.587 91.5977 120.049 94.2565 118.591C95.4125 117.957 96.3741 117.644 97.1413 117.652C98.7162 116.671 100.539 116.126 102.473 116.163L107.132 116.253C108.519 116.269 109.839 116.575 111.046 117.118Z" fill="white"/>
</mask>
<g mask="url(#mask0_2_4502)">
<path d="M111.046 117.118C111.709 117.339 112.378 117.642 113.04 118.046C115.56 119.593 116.767 121.588 118.991 125.645C120.854 129.008 122.506 132.034 121.32 134.052C120.532 135.391 118.769 135.741 117.582 135.839L117.529 141.046V141.27L117.424 152.433C117.252 156.041 117.04 158.975 116.788 161.235C116.41 164.626 92.2231 166.024 92.2231 162.135C91.6513 160.655 91.4612 155.863 91.4824 154.159L91.6553 137.662C91.3821 137.689 91.1057 137.722 90.8259 137.76C89.64 137.76 87.7977 137.522 86.9082 136.095C85.6165 134.05 87.0988 130.744 88.7506 127.034C90.7412 122.587 91.5977 120.049 94.2565 118.591C95.4125 117.957 96.3741 117.644 97.1413 117.652C98.7162 116.671 100.539 116.126 102.473 116.163L107.132 116.253C108.519 116.269 109.839 116.575 111.046 117.118Z" fill="#FFCB3D"/>
</g>
<path opacity="0.2" d="M105.947 116.308C107.956 116.114 110.668 116.598 113.04 118.046C115.56 119.593 116.8 121.676 119.024 125.734C120.887 129.096 122.506 132.034 121.32 134.052C120.54 135.377 118.806 135.733 117.62 135.836L117.694 128.639V128.235C117.778 121.734 113.077 116.399 107.169 116.332L105.947 116.308V116.308Z" fill="#8C2A00"/>
<path d="M139.671 139.232L139.66 141.233C139.67 142.077 138.864 142.655 138.122 142.335L136.378 141.577L128.158 128.57C127.818 128.029 127.964 127.282 128.476 126.922L129.916 125.894C130.427 125.534 131.132 125.688 131.472 126.23L139.671 139.232Z" fill="#FFCB3D"/>
<path d="M127.683 133.265L133.485 129.529C134.018 129.196 134.706 129.436 135.013 130.079L135.295 130.646C135.515 131.124 135.468 131.668 135.229 132.07C135.659 132.036 136.07 132.304 136.28 132.806L136.562 133.39C136.826 133.977 136.709 134.662 136.337 135.078C136.854 134.831 137.478 135.08 137.767 135.705L138.049 136.271C138.356 136.936 138.142 137.731 137.61 138.089L134.164 140.301C129.815 143.598 125.738 146.528 121.933 149.091L122.141 150.888C126.77 151.627 133.14 152.645 141.253 153.943L141.342 153.957C142.826 153.823 144.12 154.058 145.003 154.252C147.22 154.017 149.414 153.76 151.61 153.526C153.387 152.978 157.374 152.082 157.634 154.765C157.634 154.765 155.923 155.354 153.606 156.134C150.329 157.237 145.82 158.746 143.274 159.606L143.183 159.609L132.691 162.587L115.761 162.549C115.742 162.476 115.724 162.404 115.705 162.332C116.34 161.993 116.722 161.62 116.772 161.219C117.055 158.96 117.267 156.023 117.408 152.408L117.411 152.045C112.155 155.365 107.485 157.895 103.403 159.634C100.989 160.665 98.6169 161.584 96.3087 162.391C90.9298 163.512 88.6447 160.302 88.0306 159.651C87.3106 158.889 85.8494 156.76 88.4965 144.162C88.9995 141.771 89.5255 139.608 90.0253 137.713C90.3043 137.74 90.5698 137.749 90.8086 137.749C95.9583 137.043 99.9404 138.304 104.922 137.88C104.31 139.532 103.515 141.514 102.536 143.825C107.449 142.043 112.452 140.045 117.546 137.831L117.567 135.797C118.374 135.73 119.448 135.547 120.301 135.015C120.302 135.024 120.304 135.034 120.305 135.043L120.478 136.537C122.813 135.491 125.167 134.401 127.54 133.265C127.571 133.249 127.619 133.249 127.683 133.265ZM102.052 116.038C102.514 114.753 102.968 113.617 103.451 112.265C103.449 112.264 103.448 112.263 103.447 112.263L103.893 108.354C103.85 108.108 103.659 108.205 103.447 108.138C102.896 107.981 102.419 107.495 102.037 107.046C101.339 106.195 101.224 104.955 101.562 103.812C101.986 102.713 103.087 101.884 104.104 101.973C104.485 102.018 104.845 102.175 105.184 102.399L105.205 102.422C105.311 102.534 105.459 102.556 105.607 102.579C105.967 102.579 106.264 102.31 106.285 101.929L106.475 96.0778C106.475 95.6967 106.751 95.4277 107.111 95.4277C107.894 95.4277 108.656 95.3829 109.44 95.2036C109.546 95.2036 109.631 95.1812 109.715 95.1812C110.478 95.0915 114.565 94.8225 116.767 98.0281C116.958 98.3419 117.148 98.6557 117.296 98.9696C117.678 99.7766 117.847 100.673 117.784 101.615L117.551 105.695C117.508 106.098 117.466 106.502 117.381 106.927C116.365 111.971 114.205 115.468 112.384 115.58C111.452 115.603 110.52 115.491 109.609 115.199C109.496 115.139 109.568 115.186 108.295 114.642L108.028 116.169C109.221 116.408 110.451 116.794 111.694 117.372C111.292 117.932 110.859 118.45 110.414 118.808C105.586 122.798 94.5244 118.496 96.4341 117.673C97.3711 117.269 99.4084 116.42 102.052 116.038Z" fill="#BF865F"/>
<path opacity="0.2" d="M117.542 151.902C118.964 151.003 120.428 150.046 121.936 149.032L122.156 150.904C125.236 151.406 131.622 152.426 141.315 153.963C141.318 153.963 141.321 153.963 141.324 153.962C142.845 153.811 144.171 154.081 145.072 154.278C147.289 154.043 149.414 153.76 151.61 153.526C153.387 152.978 157.374 152.082 157.634 154.765C157.42 154.844 156.054 155.287 153.737 156.068C150.459 157.171 145.95 158.679 143.404 159.54L143.313 159.543L132.821 162.521L115.891 162.483C115.872 162.41 115.854 162.338 115.835 162.266C116.47 161.926 116.852 161.554 116.902 161.153C117.185 158.894 117.397 155.957 117.538 152.342L117.542 151.902ZM117.677 137.702L117.697 135.731C118.461 135.667 119.465 135.5 120.293 135.03L120.462 136.473C119.531 136.89 118.602 137.3 117.677 137.702Z" fill="#8C2A00"/>
<path d="M166.765 148.685C166.934 149.38 166.553 150.075 165.896 150.254L136.504 158.638C135.847 158.818 135.191 158.414 135.021 157.719C134.852 157.024 135.233 156.329 135.889 156.15L165.282 147.766C165.918 147.609 166.595 148.013 166.765 148.685Z" fill="#474961"/>
<path d="M97.1024 101.863C97.1329 100.555 97.4079 98.8159 98.4918 97.378C98.9365 96.7728 99.5294 96.3244 100.165 95.9882C101.859 95.0915 103.151 95.5398 106.496 95.4502C107.174 95.4502 108.169 95.3381 109.44 95.2036C110.308 95.0899 115.534 94.3833 116.767 98.0281C116.332 97.9384 115.306 97.916 114.353 98.1626C110.245 99.2386 109.038 106.771 107.153 106.457C107.135 106.454 107.116 106.451 107.096 106.446L107.111 106.434L106.2 103.789C105.988 103.251 105.628 102.825 105.205 102.467C104.866 102.242 104.506 102.086 104.125 102.041C103.108 101.951 102.007 102.78 101.584 103.879C101.181 104.977 101.372 106.21 102.113 107.062C102.579 107.622 103.214 108.004 103.913 108.138L103.966 108.137C103.832 109.814 103.631 112.067 103.432 112.376C103.116 113.255 102.815 114.023 102.516 114.809C102.089 114.772 101.711 114.733 101.414 114.706C100.482 114.616 99.1059 114.504 97.3694 114.392C97.3694 114.392 97.2424 114.392 97.1365 114.37C96.5859 114.28 96.0565 114.191 95.5271 113.899C95.5271 113.899 95.3577 113.832 95.2094 113.697C92.2235 111.097 91.5671 107.376 92.8377 105.291C93.7482 103.834 95.5271 103.274 95.7812 103.184C96.12 103.072 96.4588 103.027 96.7553 103.005C96.871 102.637 96.9867 102.251 97.1024 101.863ZM114.565 104.507C114.141 104.619 113.442 104.731 112.871 104.574C111.875 104.35 112.807 103.722 113.718 103.677C114.141 103.655 114.48 103.834 114.692 104.013C114.84 104.17 114.776 104.462 114.565 104.507ZM118.165 104.417C117.741 104.574 117.085 104.776 116.471 104.663C115.433 104.507 116.322 103.789 117.212 103.677C117.678 103.61 117.995 103.767 118.228 103.924C118.419 104.058 118.376 104.35 118.165 104.417Z" fill="#482D1F"/>
<path d="M116.598 107.241C116.407 106.972 116.471 106.367 116.534 105.964C116.555 105.672 116.809 105.493 117.042 105.493C117.191 105.515 117.381 105.605 117.424 105.919C117.572 106.658 116.852 107.69 116.598 107.241ZM113.104 107.264C112.892 106.995 112.976 106.367 113.04 105.986C113.061 105.695 113.315 105.515 113.548 105.515C113.696 105.538 113.887 105.627 113.929 105.941C114.078 106.681 113.379 107.712 113.104 107.264Z" fill="#482D1F"/>
<path d="M116.384 105.545C116.4 105.423 116.318 105.31 116.203 105.293C116.087 105.276 115.98 105.362 115.964 105.485L115.795 106.808L115.793 106.836L115.772 109.211C115.764 109.238 115.744 109.256 115.716 109.258C115.451 109.229 115.131 109.229 114.756 109.259C114.64 109.269 114.553 109.377 114.561 109.5C114.57 109.624 114.672 109.716 114.789 109.707C115.146 109.678 115.445 109.678 115.685 109.706L115.708 109.707C115.956 109.707 116.153 109.521 116.192 109.273L116.195 109.239L116.216 106.854L116.384 105.545Z" fill="#482D1F"/>
<path d="M114.522 111.433C114.374 111.411 113.993 111.321 113.908 111.075C113.908 111.03 113.866 110.963 113.887 110.918C113.951 110.806 114.607 110.806 114.607 110.806C115.475 110.828 115.687 110.783 115.751 110.895C115.772 110.963 115.772 111.052 115.624 111.254C115.433 111.635 114.734 111.501 114.522 111.433Z" fill="#482D1F"/>
<path d="M102.404 143.52C102.563 143.442 102.752 143.516 102.825 143.685C102.898 143.853 102.829 144.053 102.669 144.131L95.9564 147.404C95.7971 147.481 95.6084 147.408 95.535 147.239C95.4616 147.07 95.5313 146.87 95.6906 146.793L102.404 143.52ZM106.07 133.177C106.011 133.002 106.098 132.81 106.264 132.748C106.429 132.686 106.611 132.778 106.669 132.953C106.684 132.998 106.709 133.078 106.74 133.187C106.792 133.368 106.844 133.568 106.892 133.784C107.023 134.372 107.105 134.96 107.113 135.515C107.136 137.234 106.435 138.333 104.819 138.311C104.644 138.308 104.504 138.156 104.506 137.97C104.508 137.784 104.652 137.636 104.828 137.638C106.021 137.655 106.497 136.909 106.478 135.525C106.471 135.025 106.395 134.483 106.274 133.939C106.229 133.738 106.18 133.55 106.132 133.382C106.104 133.283 106.082 133.213 106.07 133.177Z" fill="#482D1F"/>
<path d="M108.339 114.616L106.624 113.877L107.64 117.934L108.339 114.616Z" fill="#482D1F"/>
<path d="M257.082 161.176H87.4588C86.6401 161.176 85.9765 161.878 85.9765 162.745C85.9765 163.612 86.6401 164.314 87.4588 164.314H257.082C257.901 164.314 258.565 163.612 258.565 162.745C258.565 161.878 257.901 161.176 257.082 161.176Z" fill="#D8DEED"/>
<path d="M183.604 94.3982H123.492C121.132 94.3982 119.204 92.2192 119.204 89.5509V44.7916C119.204 42.1234 121.132 39.9443 123.492 39.9443H183.604C185.964 39.9443 187.892 42.1234 187.892 44.7916V89.5287C187.892 92.2192 185.964 94.3982 183.604 94.3982Z" fill="#F2F6FB"/>
<path d="M138.967 70.1734C142.115 70.1734 144.668 67.5185 144.668 64.2436C144.668 60.9687 142.115 58.3139 138.967 58.3139C135.818 58.3139 133.265 60.9687 133.265 64.2436C133.265 67.5185 135.818 70.1734 138.967 70.1734Z" fill="#FFCB3D"/>
<path d="M153.084 70.1734C156.233 70.1734 158.786 67.5185 158.786 64.2436C158.786 60.9687 156.233 58.3139 153.084 58.3139C149.935 58.3139 147.383 60.9687 147.383 64.2436C147.383 67.5185 149.935 70.1734 153.084 70.1734Z" fill="#3ABF7C"/>
<path d="M167.202 70.1734C170.351 70.1734 172.903 67.5185 172.903 64.2436C172.903 60.9687 170.351 58.3139 167.202 58.3139C164.053 58.3139 161.5 60.9687 161.5 64.2436C161.5 67.5185 164.053 70.1734 167.202 70.1734Z" fill="#A339FF"/>
<path d="M172.786 79.7739H134.468C133.879 79.7739 133.401 80.2796 133.401 80.9034C133.401 81.5272 133.879 82.0329 134.468 82.0329H172.786C173.376 82.0329 173.853 81.5272 173.853 80.9034C173.853 80.2796 173.376 79.7739 172.786 79.7739Z" fill="#E1E5F0"/>
<path d="M172.72 75.256H134.535C133.908 75.256 133.401 75.7933 133.401 76.4561C133.401 77.1189 133.908 77.6562 134.535 77.6562H172.72C173.346 77.6562 173.853 77.1189 173.853 76.4561C173.853 75.7933 173.346 75.256 172.72 75.256Z" fill="#E1E5F0"/>
<path d="M119.012 42.7836C119.012 41.0681 120.325 39.6775 121.947 39.6775H184.9C186.521 39.6775 187.835 41.0678 187.835 42.7836V45.8896H119.012V42.7836Z" fill="#E1E5F0"/>
<path d="M123.016 44.1954C123.729 44.1954 124.306 43.5949 124.306 42.8541C124.306 42.1134 123.729 41.5129 123.016 41.5129C122.304 41.5129 121.727 42.1134 121.727 42.8541C121.727 43.5949 122.304 44.1954 123.016 44.1954Z" fill="#FF5645"/>
<path d="M127.224 44.1954C127.937 44.1954 128.514 43.5949 128.514 42.8541C128.514 42.1134 127.937 41.5129 127.224 41.5129C126.512 41.5129 125.935 42.1134 125.935 42.8541C125.935 43.5949 126.512 44.1954 127.224 44.1954Z" fill="#FFCB3D"/>
<path d="M131.568 44.1954C132.281 44.1954 132.858 43.5949 132.858 42.8541C132.858 42.1134 132.281 41.5129 131.568 41.5129C130.856 41.5129 130.279 42.1134 130.279 42.8541C130.279 43.5949 130.856 44.1954 131.568 44.1954Z" fill="#3ABF7C"/>
<path d="M189.434 160.393C189.645 160.788 190.045 161.055 190.504 161.055H220.934C221.612 161.055 222.141 160.472 222.141 159.755C222.141 159.037 221.591 158.454 220.934 158.454H191.335L181.016 129.066C180.784 128.394 180.085 128.057 179.449 128.304C178.814 128.551 178.496 129.29 178.729 129.963L189.339 160.181C189.365 160.256 189.397 160.327 189.434 160.393Z" fill="#474961"/>
</svg>
